<svg xmlns="http://www.w3.org/2000/svg" viewBox="0 0 1080 1080">
  <!-- Background -->
  <rect width="1080" height="1080" fill="#18181B"/>
  
  <!-- Left accent bar -->
  <rect x="0" y="0" width="8" height="1080" fill="#22C55E"/>
  
  <!-- Header -->
  <text x="60" y="80" font-family="system-ui, -apple-system, sans-serif" font-size="14" font-weight="500" letter-spacing="3" fill="#FAFAFA">DEV WEEKENDS</text>
  
  <!-- Category badge -->
  <rect x="60" y="110" width="260" height="40" rx="8" fill="#22C55E"/>
  <text x="190" y="137" text-anchor="middle" font-family="system-ui, -apple-system, sans-serif" font-size="14" font-weight="600" fill="#18181B">QUICK REFERENCE</text>
  
  <!-- Title -->
  <text x="60" y="210" font-family="system-ui, -apple-system, sans-serif" font-size="48" font-weight="700" fill="#FAFAFA">Constraint → Algorithm</text>
  <text x="60" y="255" font-family="system-ui, -apple-system, sans-serif" font-size="20" fill="#A1A1AA">Pick the right approach based on input size</text>
  
  <!-- Table Header -->
  <g transform="translate(60, 300)">
    <rect x="0" y="0" width="200" height="50" rx="8" fill="#22C55E"/>
    <text x="100" y="32" text-anchor="middle" font-family="system-ui, sans-serif" font-size="16" font-weight="700" fill="#18181B">Constraint (n)</text>
    
    <rect x="210" y="0" width="180" height="50" rx="8" fill="#22C55E"/>
    <text x="300" y="32" text-anchor="middle" font-family="system-ui, sans-serif" font-size="16" font-weight="700" fill="#18181B">Max Operations</text>
    
    <rect x="400" y="0" width="560" height="50" rx="8" fill="#22C55E"/>
    <text x="680" y="32" text-anchor="middle" font-family="system-ui, sans-serif" font-size="16" font-weight="700" fill="#18181B">Likely Algorithm</text>
  </g>
  
  <!-- Row 1: n ≤ 10 -->
  <g transform="translate(60, 360)">
    <rect x="0" y="0" width="200" height="60" rx="8" fill="#27272A" stroke="#3F3F46" stroke-width="1"/>
    <text x="100" y="38" text-anchor="middle" font-family="monospace" font-size="18" font-weight="600" fill="#FAFAFA">n ≤ 10</text>
    
    <rect x="210" y="0" width="180" height="60" rx="8" fill="#27272A" stroke="#3F3F46" stroke-width="1"/>
    <text x="300" y="38" text-anchor="middle" font-family="monospace" font-size="16" fill="#A1A1AA">10! = 3.6M</text>
    
    <rect x="400" y="0" width="560" height="60" rx="8" fill="#22C55E" fill-opacity="0.15" stroke="#22C55E" stroke-width="2"/>
    <text x="680" y="38" text-anchor="middle" font-family="system-ui, sans-serif" font-size="16" fill="#22C55E">Brute force, permutations, backtracking</text>
  </g>
  
  <!-- Row 2: n ≤ 20 -->
  <g transform="translate(60, 430)">
    <rect x="0" y="0" width="200" height="60" rx="8" fill="#27272A" stroke="#3F3F46" stroke-width="1"/>
    <text x="100" y="38" text-anchor="middle" font-family="monospace" font-size="18" font-weight="600" fill="#FAFAFA">n ≤ 20</text>
    
    <rect x="210" y="0" width="180" height="60" rx="8" fill="#27272A" stroke="#3F3F46" stroke-width="1"/>
    <text x="300" y="38" text-anchor="middle" font-family="monospace" font-size="16" fill="#A1A1AA">2²⁰ = 1M</text>
    
    <rect x="400" y="0" width="560" height="60" rx="8" fill="#22C55E" fill-opacity="0.15" stroke="#22C55E" stroke-width="2"/>
    <text x="680" y="38" text-anchor="middle" font-family="system-ui, sans-serif" font-size="16" fill="#22C55E">Bitmask DP, subset enumeration</text>
  </g>
  
  <!-- Row 3: n ≤ 500 -->
  <g transform="translate(60, 500)">
    <rect x="0" y="0" width="200" height="60" rx="8" fill="#27272A" stroke="#3F3F46" stroke-width="1"/>
    <text x="100" y="38" text-anchor="middle" font-family="monospace" font-size="18" font-weight="600" fill="#FAFAFA">n ≤ 500</text>
    
    <rect x="210" y="0" width="180" height="60" rx="8" fill="#27272A" stroke="#3F3F46" stroke-width="1"/>
    <text x="300" y="38" text-anchor="middle" font-family="monospace" font-size="16" fill="#A1A1AA">n³ = 125M</text>
    
    <rect x="400" y="0" width="560" height="60" rx="8" fill="#F97316" fill-opacity="0.15" stroke="#F97316" stroke-width="2"/>
    <text x="680" y="38" text-anchor="middle" font-family="system-ui, sans-serif" font-size="16" fill="#F97316">Floyd-Warshall, O(n³) DP</text>
  </g>
  
  <!-- Row 4: n ≤ 5000 -->
  <g transform="translate(60, 570)">
    <rect x="0" y="0" width="200" height="60" rx="8" fill="#27272A" stroke="#3F3F46" stroke-width="1"/>
    <text x="100" y="38" text-anchor="middle" font-family="monospace" font-size="18" font-weight="600" fill="#FAFAFA">n ≤ 5,000</text>
    
    <rect x="210" y="0" width="180" height="60" rx="8" fill="#27272A" stroke="#3F3F46" stroke-width="1"/>
    <text x="300" y="38" text-anchor="middle" font-family="monospace" font-size="16" fill="#A1A1AA">n² = 25M</text>
    
    <rect x="400" y="0" width="560" height="60" rx="8" fill="#F97316" fill-opacity="0.15" stroke="#F97316" stroke-width="2"/>
    <text x="680" y="38" text-anchor="middle" font-family="system-ui, sans-serif" font-size="16" fill="#F97316">O(n²) DP, all pairs comparison</text>
  </g>
  
  <!-- Row 5: n ≤ 10^5 -->
  <g transform="translate(60, 640)">
    <rect x="0" y="0" width="200" height="60" rx="8" fill="#27272A" stroke="#3F3F46" stroke-width="1"/>
    <text x="100" y="38" text-anchor="middle" font-family="monospace" font-size="18" font-weight="600" fill="#FAFAFA">n ≤ 10⁵</text>
    
    <rect x="210" y="0" width="180" height="60" rx="8" fill="#27272A" stroke="#3F3F46" stroke-width="1"/>
    <text x="300" y="38" text-anchor="middle" font-family="monospace" font-size="16" fill="#A1A1AA">n log n</text>
    
    <rect x="400" y="0" width="560" height="60" rx="8" fill="#3B82F6" fill-opacity="0.15" stroke="#3B82F6" stroke-width="2"/>
    <text x="680" y="38" text-anchor="middle" font-family="system-ui, sans-serif" font-size="16" fill="#3B82F6">Sorting, binary search, segment tree</text>
  </g>
  
  <!-- Row 6: n ≤ 10^6 -->
  <g transform="translate(60, 710)">
    <rect x="0" y="0" width="200" height="60" rx="8" fill="#27272A" stroke="#3F3F46" stroke-width="1"/>
    <text x="100" y="38" text-anchor="middle" font-family="monospace" font-size="18" font-weight="600" fill="#FAFAFA">n ≤ 10⁶</text>
    
    <rect x="210" y="0" width="180" height="60" rx="8" fill="#27272A" stroke="#3F3F46" stroke-width="1"/>
    <text x="300" y="38" text-anchor="middle" font-family="monospace" font-size="16" fill="#A1A1AA">O(n)</text>
    
    <rect x="400" y="0" width="560" height="60" rx="8" fill="#3B82F6" fill-opacity="0.15" stroke="#3B82F6" stroke-width="2"/>
    <text x="680" y="38" text-anchor="middle" font-family="system-ui, sans-serif" font-size="16" fill="#3B82F6">Linear scan, two pointers, prefix sum</text>
  </g>
  
  <!-- Row 7: n ≤ 10^9 -->
  <g transform="translate(60, 780)">
    <rect x="0" y="0" width="200" height="60" rx="8" fill="#27272A" stroke="#3F3F46" stroke-width="1"/>
    <text x="100" y="38" text-anchor="middle" font-family="monospace" font-size="18" font-weight="600" fill="#FAFAFA">n ≤ 10⁹</text>
    
    <rect x="210" y="0" width="180" height="60" rx="8" fill="#27272A" stroke="#3F3F46" stroke-width="1"/>
    <text x="300" y="38" text-anchor="middle" font-family="monospace" font-size="16" fill="#A1A1AA">O(log n)</text>
    
    <rect x="400" y="0" width="560" height="60" rx="8" fill="#A855F7" fill-opacity="0.15" stroke="#A855F7" stroke-width="2"/>
    <text x="680" y="38" text-anchor="middle" font-family="system-ui, sans-serif" font-size="16" fill="#A855F7">Binary search, math formula</text>
  </g>
  
  <!-- Row 8: n ≤ 10^18 -->
  <g transform="translate(60, 850)">
    <rect x="0" y="0" width="200" height="60" rx="8" fill="#27272A" stroke="#3F3F46" stroke-width="1"/>
    <text x="100" y="38" text-anchor="middle" font-family="monospace" font-size="18" font-weight="600" fill="#FAFAFA">n ≤ 10¹⁸</text>
    
    <rect x="210" y="0" width="180" height="60" rx="8" fill="#27272A" stroke="#3F3F46" stroke-width="1"/>
    <text x="300" y="38" text-anchor="middle" font-family="monospace" font-size="16" fill="#A1A1AA">O(1) / O(log n)</text>
    
    <rect x="400" y="0" width="560" height="60" rx="8" fill="#A855F7" fill-opacity="0.15" stroke="#A855F7" stroke-width="2"/>
    <text x="680" y="38" text-anchor="middle" font-family="system-ui, sans-serif" font-size="16" fill="#A855F7">Math formula, matrix exponentiation</text>
  </g>
  
  <!-- Tip box -->
  <g transform="translate(60, 940)">
    <rect x="0" y="0" width="960" height="60" rx="12" fill="#27272A"/>
    <text x="30" y="38" font-family="system-ui, sans-serif" font-size="16" fill="#FAFAFA">💡 <tspan font-weight="600">Pro Tip:</tspan> <tspan fill="#A1A1AA">If n = 10⁵ and time limit is 2s, you can do ~2×10⁸ operations. Aim for O(n log n) or better.</tspan></text>
  </g>
  
  <!-- Footer -->
  <text x="540" y="1040" text-anchor="middle" font-family="system-ui, -apple-system, sans-serif" font-size="14" fill="#52525B">@devweekends</text>
</svg>