<svg xmlns="http://www.w3.org/2000/svg" viewBox="0 0 800 300">
  <rect width="800" height="300" fill="#fafafa"/>
  
  <!-- Title -->
  <text x="400" y="35" font-family="Arial, sans-serif" font-size="20" font-weight="bold" text-anchor="middle" fill="#1a1a1a">Contest Day Timeline</text>
  
  <!-- Timeline base -->
  <line x1="50" y1="150" x2="750" y2="150" stroke="#333" stroke-width="3"/>
  
  <!-- Time markers -->
  <g font-family="Arial, sans-serif" font-size="12" fill="#555">
    <line x1="100" y1="145" x2="100" y2="155" stroke="#333" stroke-width="2"/>
    <text x="100" y="175" text-anchor="middle">-2h</text>
    <text x="100" y="120" text-anchor="middle" font-weight="bold" fill="#1a1a1a">Prep</text>
    
    <line x1="220" y1="145" x2="220" y2="155" stroke="#333" stroke-width="2"/>
    <text x="220" y="175" text-anchor="middle">-1h</text>
    <text x="220" y="120" text-anchor="middle" font-weight="bold" fill="#1a1a1a">Setup</text>
    
    <line x1="340" y1="145" x2="340" y2="155" stroke="#333" stroke-width="2"/>
    <text x="340" y="175" text-anchor="middle">-30m</text>
    <text x="340" y="120" text-anchor="middle" font-weight="bold" fill="#1a1a1a">Warm-up</text>
    
    <line x1="460" y1="145" x2="460" y2="155" stroke="#333" stroke-width="2"/>
    <text x="460" y="175" text-anchor="middle">START</text>
    <text x="460" y="120" text-anchor="middle" font-weight="bold" fill="#22c55e">Contest</text>
    
    <line x1="580" y1="145" x2="580" y2="155" stroke="#333" stroke-width="2"/>
    <text x="580" y="175" text-anchor="middle">+2h</text>
    <text x="580" y="120" text-anchor="middle" font-weight="bold" fill="#dc2626">END</text>
    
    <line x1="700" y1="145" x2="700" y2="155" stroke="#333" stroke-width="2"/>
    <text x="700" y="175" text-anchor="middle">+2.5h</text>
    <text x="700" y="120" text-anchor="middle" font-weight="bold" fill="#1a1a1a">Review</text>
  </g>
  
  <!-- Phase blocks -->
  <rect x="60" y="195" width="120" height="40" rx="5" fill="#e5e5e5" stroke="#333"/>
  <text x="120" y="220" font-family="Arial, sans-serif" font-size="11" text-anchor="middle" fill="#333">Food + Physical</text>
  
  <rect x="180" y="195" width="120" height="40" rx="5" fill="#e5e5e5" stroke="#333"/>
  <text x="240" y="220" font-family="Arial, sans-serif" font-size="11" text-anchor="middle" fill="#333">Tech Check</text>
  
  <rect x="300" y="195" width="120" height="40" rx="5" fill="#e5e5e5" stroke="#333"/>
  <text x="360" y="220" font-family="Arial, sans-serif" font-size="11" text-anchor="middle" fill="#333">Easy Problems</text>
  
  <rect x="420" y="195" width="120" height="40" rx="5" fill="#333" stroke="#333"/>
  <text x="480" y="220" font-family="Arial, sans-serif" font-size="11" text-anchor="middle" fill="#fff">COMPETE</text>
  
  <rect x="540" y="195" width="120" height="40" rx="5" fill="#e5e5e5" stroke="#333"/>
  <text x="600" y="220" font-family="Arial, sans-serif" font-size="11" text-anchor="middle" fill="#333">Cool Down</text>
  
  <rect x="660" y="195" width="100" height="40" rx="5" fill="#e5e5e5" stroke="#333"/>
  <text x="710" y="220" font-family="Arial, sans-serif" font-size="11" text-anchor="middle" fill="#333">Upsolve</text>
  
  <!-- Start indicator -->
  <polygon points="460,135 450,110 470,110" fill="#22c55e"/>
  
  <!-- Branding -->
  <text x="400" y="285" font-family="Arial, sans-serif" font-size="10" text-anchor="middle" fill="#888">Dev Weekends • Competitive Programming</text>
</svg>