<svg xmlns="http://www.w3.org/2000/svg" viewBox="0 0 800 280">
  <!-- Background -->
  <rect width="800" height="280" fill="#fafafa"/>
  
  <!-- Title -->
  <text x="400" y="25" text-anchor="middle" font-family="system-ui, -apple-system, sans-serif" font-size="16" font-weight="600" fill="#1a1a2e">Drawing Your Data Structure</text>
  
  <!-- Array Example -->
  <rect x="30" y="45" width="220" height="100" rx="8" fill="#fff" stroke="#1565c0" stroke-width="2"/>
  <text x="140" y="65" text-anchor="middle" font-family="system-ui, sans-serif" font-size="12" font-weight="600" fill="#1565c0">Array</text>
  
  <rect x="45" y="80" width="30" height="30" fill="#e3f2fd" stroke="#1565c0" stroke-width="1"/>
  <text x="60" y="100" text-anchor="middle" font-family="monospace" font-size="12" fill="#333">3</text>
  <rect x="75" y="80" width="30" height="30" fill="#e3f2fd" stroke="#1565c0" stroke-width="1"/>
  <text x="90" y="100" text-anchor="middle" font-family="monospace" font-size="12" fill="#333">1</text>
  <rect x="105" y="80" width="30" height="30" fill="#e3f2fd" stroke="#1565c0" stroke-width="1"/>
  <text x="120" y="100" text-anchor="middle" font-family="monospace" font-size="12" fill="#333">4</text>
  <rect x="135" y="80" width="30" height="30" fill="#e3f2fd" stroke="#1565c0" stroke-width="1"/>
  <text x="150" y="100" text-anchor="middle" font-family="monospace" font-size="12" fill="#333">1</text>
  <rect x="165" y="80" width="30" height="30" fill="#e3f2fd" stroke="#1565c0" stroke-width="1"/>
  <text x="180" y="100" text-anchor="middle" font-family="monospace" font-size="12" fill="#333">5</text>
  <rect x="195" y="80" width="30" height="30" fill="#e3f2fd" stroke="#1565c0" stroke-width="1"/>
  <text x="210" y="100" text-anchor="middle" font-family="monospace" font-size="12" fill="#333">9</text>
  
  <text x="60" y="125" text-anchor="middle" font-family="monospace" font-size="9" fill="#888">0</text>
  <text x="90" y="125" text-anchor="middle" font-family="monospace" font-size="9" fill="#888">1</text>
  <text x="120" y="125" text-anchor="middle" font-family="monospace" font-size="9" fill="#888">2</text>
  <text x="150" y="125" text-anchor="middle" font-family="monospace" font-size="9" fill="#888">3</text>
  <text x="180" y="125" text-anchor="middle" font-family="monospace" font-size="9" fill="#888">4</text>
  <text x="210" y="125" text-anchor="middle" font-family="monospace" font-size="9" fill="#888">5</text>
  
  <!-- Graph Example -->
  <rect x="290" y="45" width="220" height="100" rx="8" fill="#fff" stroke="#7b1fa2" stroke-width="2"/>
  <text x="400" y="65" text-anchor="middle" font-family="system-ui, sans-serif" font-size="12" font-weight="600" fill="#7b1fa2">Graph</text>
  
  <circle cx="330" cy="95" r="12" fill="#f3e5f5" stroke="#7b1fa2" stroke-width="2"/>
  <text x="330" y="99" text-anchor="middle" font-family="monospace" font-size="10" fill="#333">1</text>
  
  <circle cx="380" cy="80" r="12" fill="#f3e5f5" stroke="#7b1fa2" stroke-width="2"/>
  <text x="380" y="84" text-anchor="middle" font-family="monospace" font-size="10" fill="#333">2</text>
  
  <circle cx="430" cy="95" r="12" fill="#f3e5f5" stroke="#7b1fa2" stroke-width="2"/>
  <text x="430" y="99" text-anchor="middle" font-family="monospace" font-size="10" fill="#333">3</text>
  
  <circle cx="380" cy="120" r="12" fill="#f3e5f5" stroke="#7b1fa2" stroke-width="2"/>
  <text x="380" y="124" text-anchor="middle" font-family="monospace" font-size="10" fill="#333">4</text>
  
  <circle cx="470" cy="115" r="12" fill="#f3e5f5" stroke="#7b1fa2" stroke-width="2"/>
  <text x="470" y="119" text-anchor="middle" font-family="monospace" font-size="10" fill="#333">5</text>
  
  <line x1="342" y1="95" x2="368" y2="82" stroke="#7b1fa2" stroke-width="1.5"/>
  <line x1="392" y1="80" x2="418" y2="93" stroke="#7b1fa2" stroke-width="1.5"/>
  <line x1="380" y1="92" x2="380" y2="108" stroke="#7b1fa2" stroke-width="1.5"/>
  <line x1="442" y1="100" x2="458" y2="110" stroke="#7b1fa2" stroke-width="1.5"/>
  
  <!-- Grid Example -->
  <rect x="550" y="45" width="220" height="100" rx="8" fill="#fff" stroke="#e65100" stroke-width="2"/>
  <text x="660" y="65" text-anchor="middle" font-family="system-ui, sans-serif" font-size="12" font-weight="600" fill="#e65100">Grid / Matrix</text>
  
  <rect x="590" y="75" width="22" height="22" fill="#fff3e0" stroke="#e65100" stroke-width="1"/>
  <text x="601" y="90" text-anchor="middle" font-family="monospace" font-size="10" fill="#333">.</text>
  <rect x="612" y="75" width="22" height="22" fill="#fff3e0" stroke="#e65100" stroke-width="1"/>
  <text x="623" y="90" text-anchor="middle" font-family="monospace" font-size="10" fill="#333">.</text>
  <rect x="634" y="75" width="22" height="22" fill="#e65100"/>
  <text x="645" y="90" text-anchor="middle" font-family="monospace" font-size="10" fill="white">#</text>
  <rect x="656" y="75" width="22" height="22" fill="#fff3e0" stroke="#e65100" stroke-width="1"/>
  <text x="667" y="90" text-anchor="middle" font-family="monospace" font-size="10" fill="#333">.</text>
  
  <rect x="590" y="97" width="22" height="22" fill="#fff3e0" stroke="#e65100" stroke-width="1"/>
  <text x="601" y="112" text-anchor="middle" font-family="monospace" font-size="10" fill="#333">.</text>
  <rect x="612" y="97" width="22" height="22" fill="#e65100"/>
  <text x="623" y="112" text-anchor="middle" font-family="monospace" font-size="10" fill="white">#</text>
  <rect x="634" y="97" width="22" height="22" fill="#e65100"/>
  <text x="645" y="112" text-anchor="middle" font-family="monospace" font-size="10" fill="white">#</text>
  <rect x="656" y="97" width="22" height="22" fill="#fff3e0" stroke="#e65100" stroke-width="1"/>
  <text x="667" y="112" text-anchor="middle" font-family="monospace" font-size="10" fill="#333">.</text>
  
  <rect x="590" y="119" width="22" height="22" fill="#2e7d32"/>
  <text x="601" y="134" text-anchor="middle" font-family="monospace" font-size="10" fill="white">S</text>
  <rect x="612" y="119" width="22" height="22" fill="#fff3e0" stroke="#e65100" stroke-width="1"/>
  <text x="623" y="134" text-anchor="middle" font-family="monospace" font-size="10" fill="#333">.</text>
  <rect x="634" y="119" width="22" height="22" fill="#fff3e0" stroke="#e65100" stroke-width="1"/>
  <text x="645" y="134" text-anchor="middle" font-family="monospace" font-size="10" fill="#333">.</text>
  <rect x="656" y="119" width="22" height="22" fill="#e94560"/>
  <text x="667" y="134" text-anchor="middle" font-family="monospace" font-size="10" fill="white">E</text>
  
  <!-- String Example -->
  <rect x="30" y="160" width="220" height="70" rx="8" fill="#fff" stroke="#2e7d32" stroke-width="2"/>
  <text x="140" y="180" text-anchor="middle" font-family="system-ui, sans-serif" font-size="12" font-weight="600" fill="#2e7d32">String</text>
  
  <text x="45" y="210" font-family="monospace" font-size="13" fill="#333">a b c d e f</text>
  <text x="45" y="223" font-family="monospace" font-size="9" fill="#888">0 1 2 3 4 5</text>
  
  <!-- Tree Example -->
  <rect x="290" y="160" width="220" height="70" rx="8" fill="#fff" stroke="#e94560" stroke-width="2"/>
  <text x="400" y="180" text-anchor="middle" font-family="system-ui, sans-serif" font-size="12" font-weight="600" fill="#e94560">Tree</text>
  
  <circle cx="400" cy="195" r="10" fill="#ffebee" stroke="#e94560" stroke-width="2"/>
  <text x="400" y="199" text-anchor="middle" font-family="monospace" font-size="9" fill="#333">1</text>
  
  <circle cx="370" cy="215" r="10" fill="#ffebee" stroke="#e94560" stroke-width="2"/>
  <text x="370" y="219" text-anchor="middle" font-family="monospace" font-size="9" fill="#333">2</text>
  
  <circle cx="430" cy="215" r="10" fill="#ffebee" stroke="#e94560" stroke-width="2"/>
  <text x="430" y="219" text-anchor="middle" font-family="monospace" font-size="9" fill="#333">3</text>
  
  <line x1="393" y1="203" x2="377" y2="207" stroke="#e94560" stroke-width="1.5"/>
  <line x1="407" y1="203" x2="423" y2="207" stroke="#e94560" stroke-width="1.5"/>
  
  <!-- Linked List Example -->
  <rect x="550" y="160" width="220" height="70" rx="8" fill="#fff" stroke="#0288d1" stroke-width="2"/>
  <text x="660" y="180" text-anchor="middle" font-family="system-ui, sans-serif" font-size="12" font-weight="600" fill="#0288d1">Linked List</text>
  
  <rect x="570" y="195" width="30" height="25" rx="4" fill="#e1f5fe" stroke="#0288d1" stroke-width="1"/>
  <text x="585" y="212" text-anchor="middle" font-family="monospace" font-size="11" fill="#333">1</text>
  <path d="M 600 207 L 618 207" stroke="#0288d1" stroke-width="2" marker-end="url(#arrow3)"/>
  
  <rect x="620" y="195" width="30" height="25" rx="4" fill="#e1f5fe" stroke="#0288d1" stroke-width="1"/>
  <text x="635" y="212" text-anchor="middle" font-family="monospace" font-size="11" fill="#333">2</text>
  <path d="M 650 207 L 668 207" stroke="#0288d1" stroke-width="2" marker-end="url(#arrow3)"/>
  
  <rect x="670" y="195" width="30" height="25" rx="4" fill="#e1f5fe" stroke="#0288d1" stroke-width="1"/>
  <text x="685" y="212" text-anchor="middle" font-family="monospace" font-size="11" fill="#333">3</text>
  <path d="M 700 207 L 718 207" stroke="#0288d1" stroke-width="2" marker-end="url(#arrow3)"/>
  
  <text x="728" y="212" font-family="monospace" font-size="11" fill="#888">∅</text>
  
  <defs>
    <marker id="arrow3" markerWidth="8" markerHeight="6" refX="7" refY="3" orient="auto">
      <polygon points="0 0, 8 3, 0 6" fill="#0288d1"/>
    </marker>
  </defs>
  
  <!-- Branding -->
  <text x="400" y="260" text-anchor="middle" font-family="system-ui, sans-serif" font-size="12" fill="#888">DEV WEEKENDS</text>
</svg>