<svg xmlns="http://www.w3.org/2000/svg" viewBox="0 0 800 350">
  <!-- Background -->
  <rect width="800" height="350" fill="#fafafa"/>
  
  <!-- Title -->
  <text x="400" y="25" text-anchor="middle" font-family="system-ui, -apple-system, sans-serif" font-size="18" font-weight="600" fill="#1a1a2e">The CP Success Pyramid</text>
  
  <!-- Pyramid layers from bottom to top -->
  
  <!-- Layer 1 (Bottom) - Foundation -->
  <polygon points="100,300 700,300 600,250 200,250" fill="#e8f5e9" stroke="#2e7d32" stroke-width="2"/>
  <text x="400" y="280" text-anchor="middle" font-family="system-ui, sans-serif" font-size="14" font-weight="600" fill="#2e7d32">MINDSET</text>
  <text x="400" y="295" text-anchor="middle" font-family="system-ui, sans-serif" font-size="10" fill="#555">Growth mindset, resilience, patience</text>
  
  <!-- Layer 2 - Fundamentals -->
  <polygon points="200,250 600,250 520,200 280,200" fill="#e3f2fd" stroke="#1565c0" stroke-width="2"/>
  <text x="400" y="230" text-anchor="middle" font-family="system-ui, sans-serif" font-size="14" font-weight="600" fill="#1565c0">FUNDAMENTALS</text>
  <text x="400" y="245" text-anchor="middle" font-family="system-ui, sans-serif" font-size="10" fill="#555">Time complexity, STL, I/O, debugging</text>
  
  <!-- Layer 3 - Patterns -->
  <polygon points="280,200 520,200 460,150 340,150" fill="#fff3e0" stroke="#e65100" stroke-width="2"/>
  <text x="400" y="180" text-anchor="middle" font-family="system-ui, sans-serif" font-size="14" font-weight="600" fill="#e65100">PATTERNS</text>
  <text x="400" y="195" text-anchor="middle" font-family="system-ui, sans-serif" font-size="10" fill="#555">DP, Graphs, Binary Search, Greedy</text>
  
  <!-- Layer 4 - Practice -->
  <polygon points="340,150 460,150 420,100 380,100" fill="#f3e5f5" stroke="#7b1fa2" stroke-width="2"/>
  <text x="400" y="130" text-anchor="middle" font-family="system-ui, sans-serif" font-size="14" font-weight="600" fill="#7b1fa2">PRACTICE</text>
  <text x="400" y="145" text-anchor="middle" font-family="system-ui, sans-serif" font-size="10" fill="#555">1000+ problems</text>
  
  <!-- Layer 5 (Top) - Mastery -->
  <polygon points="380,100 420,100 400,60" fill="#ffebee" stroke="#e94560" stroke-width="2"/>
  <text x="400" y="85" text-anchor="middle" font-family="system-ui, sans-serif" font-size="10" font-weight="600" fill="#e94560">WIN</text>
  
  <!-- Star at top -->
  <polygon points="400,45 404,55 415,55 406,62 410,73 400,66 390,73 394,62 385,55 396,55" fill="#ffd700" stroke="#e65100" stroke-width="1"/>
  
  <!-- Side notes -->
  <rect x="50" y="90" width="100" height="60" rx="6" fill="#fff" stroke="#ddd" stroke-width="1"/>
  <text x="100" y="110" text-anchor="middle" font-family="system-ui, sans-serif" font-size="9" font-weight="500" fill="#1a1a2e">Without mindset,</text>
  <text x="100" y="125" text-anchor="middle" font-family="system-ui, sans-serif" font-size="9" font-weight="500" fill="#1a1a2e">you'll quit before</text>
  <text x="100" y="140" text-anchor="middle" font-family="system-ui, sans-serif" font-size="9" font-weight="500" fill="#e94560">you succeed</text>
  
  <rect x="650" y="90" width="100" height="60" rx="6" fill="#fff" stroke="#ddd" stroke-width="1"/>
  <text x="700" y="110" text-anchor="middle" font-family="system-ui, sans-serif" font-size="9" font-weight="500" fill="#1a1a2e">The base must</text>
  <text x="700" y="125" text-anchor="middle" font-family="system-ui, sans-serif" font-size="9" font-weight="500" fill="#1a1a2e">be strong for</text>
  <text x="700" y="140" text-anchor="middle" font-family="system-ui, sans-serif" font-size="9" font-weight="500" fill="#2e7d32">everything else</text>
  
  <!-- Branding -->
  <text x="400" y="335" text-anchor="middle" font-family="system-ui, sans-serif" font-size="12" fill="#888">DEV WEEKENDS</text>
</svg>