<svg xmlns="http://www.w3.org/2000/svg" viewBox="0 0 800 280">
  <!-- Background -->
  <rect width="800" height="280" fill="#fafafa"/>
  
  <!-- Title -->
  <text x="400" y="25" text-anchor="middle" font-family="system-ui, -apple-system, sans-serif" font-size="16" font-weight="600" fill="#1a1a2e">Range Query Decision Tree</text>
  
  <!-- Array Visualization -->
  <rect x="230" y="45" width="35" height="30" fill="#e3f2fd" stroke="#1565c0" stroke-width="1"/>
  <text x="247" y="65" text-anchor="middle" font-family="monospace" font-size="12" fill="#333">3</text>
  <rect x="265" y="45" width="35" height="30" fill="#e3f2fd" stroke="#1565c0" stroke-width="1"/>
  <text x="282" y="65" text-anchor="middle" font-family="monospace" font-size="12" fill="#333">1</text>
  <rect x="300" y="45" width="35" height="30" fill="#fff3e0" stroke="#e65100" stroke-width="2"/>
  <text x="317" y="65" text-anchor="middle" font-family="monospace" font-size="12" fill="#333">4</text>
  <rect x="335" y="45" width="35" height="30" fill="#fff3e0" stroke="#e65100" stroke-width="2"/>
  <text x="352" y="65" text-anchor="middle" font-family="monospace" font-size="12" fill="#333">1</text>
  <rect x="370" y="45" width="35" height="30" fill="#fff3e0" stroke="#e65100" stroke-width="2"/>
  <text x="387" y="65" text-anchor="middle" font-family="monospace" font-size="12" fill="#333">5</text>
  <rect x="405" y="45" width="35" height="30" fill="#fff3e0" stroke="#e65100" stroke-width="2"/>
  <text x="422" y="65" text-anchor="middle" font-family="monospace" font-size="12" fill="#333">9</text>
  <rect x="440" y="45" width="35" height="30" fill="#e3f2fd" stroke="#1565c0" stroke-width="1"/>
  <text x="457" y="65" text-anchor="middle" font-family="monospace" font-size="12" fill="#333">2</text>
  <rect x="475" y="45" width="35" height="30" fill="#e3f2fd" stroke="#1565c0" stroke-width="1"/>
  <text x="492" y="65" text-anchor="middle" font-family="monospace" font-size="12" fill="#333">6</text>
  
  <!-- Range bracket -->
  <path d="M 300 78 L 300 88 L 440 88 L 440 78" stroke="#e65100" stroke-width="2" fill="none"/>
  <text x="370" y="102" text-anchor="middle" font-family="system-ui, sans-serif" font-size="11" fill="#e65100">Query: [2, 5] → sum = 19</text>
  
  <!-- Decision Tree -->
  <polygon points="400,130 480,160 400,190 320,160" fill="#f5f5f5" stroke="#1a1a2e" stroke-width="2"/>
  <text x="400" y="165" text-anchor="middle" font-family="system-ui, sans-serif" font-size="10" font-weight="500" fill="#1a1a2e">Updates?</text>
  
  <!-- No Updates Branch -->
  <line x1="320" y1="160" x2="180" y2="160" stroke="#2e7d32" stroke-width="2"/>
  <text x="250" y="152" text-anchor="middle" font-family="system-ui, sans-serif" font-size="10" fill="#2e7d32">No</text>
  
  <rect x="50" y="140" width="120" height="40" rx="8" fill="#e8f5e9" stroke="#2e7d32" stroke-width="2"/>
  <text x="110" y="155" text-anchor="middle" font-family="system-ui, sans-serif" font-size="11" font-weight="500" fill="#2e7d32">Prefix Sum</text>
  <text x="110" y="170" text-anchor="middle" font-family="system-ui, sans-serif" font-size="9" fill="#666">O(1) query, O(n) build</text>
  
  <!-- With Updates Branch -->
  <line x1="480" y1="160" x2="550" y2="160" stroke="#e94560" stroke-width="2"/>
  <text x="515" y="152" text-anchor="middle" font-family="system-ui, sans-serif" font-size="10" fill="#e94560">Yes</text>
  
  <!-- Sub-decision -->
  <polygon points="650,130 720,160 650,190 580,160" fill="#fff3e0" stroke="#e65100" stroke-width="2"/>
  <text x="650" y="165" text-anchor="middle" font-family="system-ui, sans-serif" font-size="10" font-weight="500" fill="#e65100">Query Type?</text>
  
  <!-- Sum/Min/Max -->
  <line x1="580" y1="160" x2="520" y2="210" stroke="#1565c0" stroke-width="1.5"/>
  <rect x="450" y="200" width="100" height="35" rx="6" fill="#e3f2fd" stroke="#1565c0" stroke-width="2"/>
  <text x="500" y="215" text-anchor="middle" font-family="system-ui, sans-serif" font-size="10" font-weight="500" fill="#1565c0">Segment Tree</text>
  <text x="500" y="228" text-anchor="middle" font-family="system-ui, sans-serif" font-size="8" fill="#666">O(log n) both</text>
  
  <!-- Point Update -->
  <line x1="650" y1="190" x2="650" y2="210" stroke="#7b1fa2" stroke-width="1.5"/>
  <rect x="590" y="210" width="100" height="35" rx="6" fill="#f3e5f5" stroke="#7b1fa2" stroke-width="2"/>
  <text x="640" y="225" text-anchor="middle" font-family="system-ui, sans-serif" font-size="10" font-weight="500" fill="#7b1fa2">Fenwick Tree</text>
  <text x="640" y="238" text-anchor="middle" font-family="system-ui, sans-serif" font-size="8" fill="#666">Simpler, O(log n)</text>
  
  <!-- Range Update -->
  <line x1="720" y1="160" x2="780" y2="210" stroke="#e94560" stroke-width="1.5"/>
  <rect x="710" y="200" width="80" height="35" rx="6" fill="#ffebee" stroke="#e94560" stroke-width="2"/>
  <text x="750" y="215" text-anchor="middle" font-family="system-ui, sans-serif" font-size="10" font-weight="500" fill="#e94560">Lazy Prop</text>
  <text x="750" y="228" text-anchor="middle" font-family="system-ui, sans-serif" font-size="8" fill="#666">Range updates</text>
  
  <!-- Branding -->
  <text x="400" y="265" text-anchor="middle" font-family="system-ui, sans-serif" font-size="12" fill="#888">DEV WEEKENDS</text>
</svg>