<svg width="1080" height="1080" viewBox="0 0 1080 1080" fill="none" xmlns="http://www.w3.org/2000/svg">
  <rect width="1080" height="1080" fill="#18181B"/>
  <rect x="0" y="0" width="8" height="1080" fill="#22C55E"/>
  
  <text x="60" y="80" font-family="system-ui, sans-serif" font-size="14" font-weight="600" fill="#FAFAFA" letter-spacing="3">DEV WEEKENDS</text>
  
  <rect x="60" y="140" width="280" height="40" fill="#22C55E"/>
  <text x="200" y="168" font-family="system-ui, sans-serif" font-size="12" font-weight="600" fill="#FAFAFA" text-anchor="middle" letter-spacing="2">COMPETITIVE PROGRAMMING</text>
  
  <text x="60" y="280" font-family="system-ui, sans-serif" font-size="52" font-weight="700" fill="#FAFAFA">Segment Tree</text>
  <text x="60" y="340" font-family="system-ui, sans-serif" font-size="24" fill="#A1A1AA">Range Query + Point Update in O(log n)</text>
  
  <!-- Segment Tree Structure -->
  <g transform="translate(80, 380)">
    <!-- Level 0 - Root -->
    <rect x="410" y="0" width="100" height="55" fill="#EF4444" stroke="#DC2626" stroke-width="2" rx="8"/>
    <text x="460" y="28" text-anchor="middle" font-family="monospace" font-size="20" font-weight="700" fill="#FAFAFA">64</text>
    <text x="460" y="46" text-anchor="middle" font-family="system-ui, sans-serif" font-size="11" fill="#FAFAFA">[0-7]</text>
    
    <!-- Level 1 -->
    <rect x="200" y="90" width="85" height="50" fill="#F97316" stroke="#EA580C" stroke-width="2" rx="6"/>
    <text x="242" y="118" text-anchor="middle" font-family="monospace" font-size="18" font-weight="600" fill="#FAFAFA">16</text>
    <text x="242" y="132" text-anchor="middle" font-family="system-ui, sans-serif" font-size="10" fill="#FAFAFA">[0-3]</text>
    
    <rect x="635" y="90" width="85" height="50" fill="#F97316" stroke="#EA580C" stroke-width="2" rx="6"/>
    <text x="677" y="118" text-anchor="middle" font-family="monospace" font-size="18" font-weight="600" fill="#FAFAFA">48</text>
    <text x="677" y="132" text-anchor="middle" font-family="system-ui, sans-serif" font-size="10" fill="#FAFAFA">[4-7]</text>
    
    <!-- Level 2 -->
    <rect x="100" y="175" width="70" height="45" fill="#3B82F6" stroke="#2563EB" stroke-width="2" rx="5"/>
    <text x="135" y="200" text-anchor="middle" font-family="monospace" font-size="16" font-weight="600" fill="#FAFAFA">4</text>
    <text x="135" y="213" text-anchor="middle" font-family="system-ui, sans-serif" font-size="9" fill="#FAFAFA">[0-1]</text>
    
    <rect x="300" y="175" width="70" height="45" fill="#3B82F6" stroke="#2563EB" stroke-width="2" rx="5"/>
    <text x="335" y="200" text-anchor="middle" font-family="monospace" font-size="16" font-weight="600" fill="#FAFAFA">12</text>
    <text x="335" y="213" text-anchor="middle" font-family="system-ui, sans-serif" font-size="9" fill="#FAFAFA">[2-3]</text>
    
    <rect x="550" y="175" width="70" height="45" fill="#3B82F6" stroke="#2563EB" stroke-width="2" rx="5"/>
    <text x="585" y="200" text-anchor="middle" font-family="monospace" font-size="16" font-weight="600" fill="#FAFAFA">20</text>
    <text x="585" y="213" text-anchor="middle" font-family="system-ui, sans-serif" font-size="9" fill="#FAFAFA">[4-5]</text>
    
    <rect x="750" y="175" width="70" height="45" fill="#3B82F6" stroke="#2563EB" stroke-width="2" rx="5"/>
    <text x="785" y="200" text-anchor="middle" font-family="monospace" font-size="16" font-weight="600" fill="#FAFAFA">28</text>
    <text x="785" y="213" text-anchor="middle" font-family="system-ui, sans-serif" font-size="9" fill="#FAFAFA">[6-7]</text>
    
    <!-- Level 3 - Leaves -->
    <rect x="60" y="255" width="55" height="40" fill="#A855F7" stroke="#9333EA" stroke-width="2" rx="4"/>
    <text x="87" y="281" text-anchor="middle" font-family="monospace" font-size="14" fill="#FAFAFA">1</text>
    
    <rect x="145" y="255" width="55" height="40" fill="#A855F7" stroke="#9333EA" stroke-width="2" rx="4"/>
    <text x="172" y="281" text-anchor="middle" font-family="monospace" font-size="14" fill="#FAFAFA">3</text>
    
    <rect x="265" y="255" width="55" height="40" fill="#A855F7" stroke="#9333EA" stroke-width="2" rx="4"/>
    <text x="292" y="281" text-anchor="middle" font-family="monospace" font-size="14" fill="#FAFAFA">5</text>
    
    <rect x="350" y="255" width="55" height="40" fill="#A855F7" stroke="#9333EA" stroke-width="2" rx="4"/>
    <text x="377" y="281" text-anchor="middle" font-family="monospace" font-size="14" fill="#FAFAFA">7</text>
    
    <rect x="510" y="255" width="55" height="40" fill="#A855F7" stroke="#9333EA" stroke-width="2" rx="4"/>
    <text x="537" y="281" text-anchor="middle" font-family="monospace" font-size="14" fill="#FAFAFA">9</text>
    
    <rect x="595" y="255" width="55" height="40" fill="#A855F7" stroke="#9333EA" stroke-width="2" rx="4"/>
    <text x="622" y="281" text-anchor="middle" font-family="monospace" font-size="14" fill="#FAFAFA">11</text>
    
    <rect x="715" y="255" width="55" height="40" fill="#A855F7" stroke="#9333EA" stroke-width="2" rx="4"/>
    <text x="742" y="281" text-anchor="middle" font-family="monospace" font-size="14" fill="#FAFAFA">13</text>
    
    <rect x="800" y="255" width="55" height="40" fill="#A855F7" stroke="#9333EA" stroke-width="2" rx="4"/>
    <text x="827" y="281" text-anchor="middle" font-family="monospace" font-size="14" fill="#FAFAFA">15</text>
    
    <!-- Edges -->
    <line x1="430" y1="55" x2="265" y2="90" stroke="#71717A" stroke-width="2"/>
    <line x1="490" y1="55" x2="655" y2="90" stroke="#71717A" stroke-width="2"/>
    
    <line x1="220" y1="140" x2="150" y2="175" stroke="#71717A" stroke-width="1.5"/>
    <line x1="265" y1="140" x2="320" y2="175" stroke="#71717A" stroke-width="1.5"/>
    <line x1="655" y1="140" x2="600" y2="175" stroke="#71717A" stroke-width="1.5"/>
    <line x1="700" y1="140" x2="770" y2="175" stroke="#71717A" stroke-width="1.5"/>
    
    <line x1="120" y1="220" x2="95" y2="255" stroke="#71717A" stroke-width="1"/>
    <line x1="150" y1="220" x2="165" y2="255" stroke="#71717A" stroke-width="1"/>
    <line x1="320" y1="220" x2="300" y2="255" stroke="#71717A" stroke-width="1"/>
    <line x1="350" y1="220" x2="370" y2="255" stroke="#71717A" stroke-width="1"/>
    <line x1="570" y1="220" x2="545" y2="255" stroke="#71717A" stroke-width="1"/>
    <line x1="600" y1="220" x2="615" y2="255" stroke="#71717A" stroke-width="1"/>
    <line x1="770" y1="220" x2="750" y2="255" stroke="#71717A" stroke-width="1"/>
    <line x1="800" y1="220" x2="820" y2="255" stroke="#71717A" stroke-width="1"/>
  </g>
  
  <!-- Original Array -->
  <rect x="60" y="720" width="800" height="100" fill="#27272A" rx="8"/>
  <text x="100" y="755" font-family="system-ui, sans-serif" font-size="16" font-weight="600" fill="#FAFAFA">Original Array</text>
  <g transform="translate(100, 770)">
    <rect x="0" y="0" width="70" height="40" fill="#22C55E" rx="4"/>
    <text x="35" y="26" text-anchor="middle" font-family="monospace" font-size="16" fill="#FAFAFA">1</text>
    <text x="35" y="-8" text-anchor="middle" font-family="system-ui, sans-serif" font-size="10" fill="#71717A">[0]</text>
    
    <rect x="85" y="0" width="70" height="40" fill="#22C55E" rx="4"/>
    <text x="120" y="26" text-anchor="middle" font-family="monospace" font-size="16" fill="#FAFAFA">3</text>
    <text x="120" y="-8" text-anchor="middle" font-family="system-ui, sans-serif" font-size="10" fill="#71717A">[1]</text>
    
    <rect x="170" y="0" width="70" height="40" fill="#22C55E" rx="4"/>
    <text x="205" y="26" text-anchor="middle" font-family="monospace" font-size="16" fill="#FAFAFA">5</text>
    <text x="205" y="-8" text-anchor="middle" font-family="system-ui, sans-serif" font-size="10" fill="#71717A">[2]</text>
    
    <rect x="255" y="0" width="70" height="40" fill="#22C55E" rx="4"/>
    <text x="290" y="26" text-anchor="middle" font-family="monospace" font-size="16" fill="#FAFAFA">7</text>
    <text x="290" y="-8" text-anchor="middle" font-family="system-ui, sans-serif" font-size="10" fill="#71717A">[3]</text>
    
    <rect x="340" y="0" width="70" height="40" fill="#22C55E" rx="4"/>
    <text x="375" y="26" text-anchor="middle" font-family="monospace" font-size="16" fill="#FAFAFA">9</text>
    <text x="375" y="-8" text-anchor="middle" font-family="system-ui, sans-serif" font-size="10" fill="#71717A">[4]</text>
    
    <rect x="425" y="0" width="70" height="40" fill="#22C55E" rx="4"/>
    <text x="460" y="26" text-anchor="middle" font-family="monospace" font-size="16" fill="#FAFAFA">11</text>
    <text x="460" y="-8" text-anchor="middle" font-family="system-ui, sans-serif" font-size="10" fill="#71717A">[5]</text>
    
    <rect x="510" y="0" width="70" height="40" fill="#22C55E" rx="4"/>
    <text x="545" y="26" text-anchor="middle" font-family="monospace" font-size="16" fill="#FAFAFA">13</text>
    <text x="545" y="-8" text-anchor="middle" font-family="system-ui, sans-serif" font-size="10" fill="#71717A">[6]</text>
    
    <rect x="595" y="0" width="70" height="40" fill="#22C55E" rx="4"/>
    <text x="630" y="26" text-anchor="middle" font-family="monospace" font-size="16" fill="#FAFAFA">15</text>
    <text x="630" y="-8" text-anchor="middle" font-family="system-ui, sans-serif" font-size="10" fill="#71717A">[7]</text>
  </g>
  
  <!-- Operations & Query Example -->
  <rect x="880" y="400" width="140" height="200" fill="#27272A" rx="8"/>
  <text x="950" y="435" text-anchor="middle" font-family="system-ui, sans-serif" font-size="16" font-weight="600" fill="#FAFAFA">Operations</text>
  
  <rect x="895" y="455" width="110" height="30" fill="#22C55E" rx="4"/>
  <text x="950" y="476" text-anchor="middle" font-family="system-ui, sans-serif" font-size="12" fill="#FAFAFA">Build: O(n)</text>
  
  <rect x="895" y="495" width="110" height="30" fill="#3B82F6" rx="4"/>
  <text x="950" y="516" text-anchor="middle" font-family="system-ui, sans-serif" font-size="12" fill="#FAFAFA">Query: O(log n)</text>
  
  <rect x="895" y="535" width="110" height="30" fill="#F97316" rx="4"/>
  <text x="950" y="556" text-anchor="middle" font-family="system-ui, sans-serif" font-size="12" fill="#FAFAFA">Update: O(log n)</text>
  
  <text x="950" y="585" text-anchor="middle" font-family="system-ui, sans-serif" font-size="12" fill="#71717A">Space: O(4n)</text>
  
  <!-- Query Example -->
  <rect x="880" y="620" width="140" height="110" fill="#27272A" rx="8"/>
  <rect x="880" y="620" width="6" height="110" fill="#EF4444" rx="3"/>
  <text x="950" y="655" text-anchor="middle" font-family="system-ui, sans-serif" font-size="14" font-weight="600" fill="#EF4444">Query [2,5]</text>
  <text x="950" y="685" text-anchor="middle" font-family="system-ui, sans-serif" font-size="12" fill="#A1A1AA">5+7+9+11 = 32</text>
  <text x="950" y="715" text-anchor="middle" font-family="system-ui, sans-serif" font-size="11" fill="#71717A">Only 4 nodes</text>
  
  <!-- Bottom Summary -->
  <rect x="60" y="850" width="960" height="100" fill="#27272A" rx="8"/>
  <text x="100" y="890" font-family="system-ui, sans-serif" font-size="18" font-weight="600" fill="#FAFAFA">Use Cases</text>
  <text x="100" y="920" font-family="system-ui, sans-serif" font-size="14" fill="#A1A1AA">• Range sum/min/max queries  • Point updates  • Lazy propagation for range updates</text>
  <text x="100" y="940" font-family="system-ui, sans-serif" font-size="14" fill="#A1A1AA">• Merge sort tree  • Persistent segment tree  • 2D segment tree</text>
  
  <text x="540" y="1040" font-family="system-ui, sans-serif" font-size="14" fill="#52525B" text-anchor="middle">@devweekends</text>
</svg>
