<svg viewBox="0 0 1080 1080" xmlns="http://www.w3.org/2000/svg">
  <!-- Background -->
  <rect width="1080" height="1080" fill="#FAFAFA"/>
  
  <!-- Branding Top -->
  <text x="60" y="80" font-family="system-ui, sans-serif" font-size="14" font-weight="600" fill="#18181B" letter-spacing="3">DEV WEEKENDS</text>
  
  <!-- Title -->
  <text x="540" y="140" font-family="system-ui, sans-serif" font-size="36" font-weight="700" fill="#18181B" text-anchor="middle">From Nature to Neural Networks</text>
  <text x="540" y="180" font-family="system-ui, sans-serif" font-size="18" fill="#71717A" text-anchor="middle">Complex systems that learn and adapt through optimization</text>
  
  <!-- Example 1: Brain Learning -->
  <rect x="60" y="220" width="470" height="250" rx="15" fill="white" stroke="#3B82F6" stroke-width="2"/>
  <text x="295" y="260" font-family="system-ui, sans-serif" font-size="22" fill="#3B82F6" text-anchor="middle" font-weight="600">🧠 Human Brain Learning</text>
  
  <!-- Brain neurons -->
  <circle cx="120" cy="340" r="20" fill="white" stroke="#3B82F6" stroke-width="2"/>
  <circle cx="180" cy="300" r="20" fill="white" stroke="#3B82F6" stroke-width="2"/>
  <circle cx="180" cy="380" r="20" fill="white" stroke="#3B82F6" stroke-width="2"/>
  <circle cx="260" cy="320" r="25" fill="#3B82F6" fill-opacity="0.2" stroke="#3B82F6" stroke-width="2"/>
  <circle cx="260" cy="380" r="20" fill="white" stroke="#3B82F6" stroke-width="2"/>
  <circle cx="340" cy="340" r="20" fill="white" stroke="#3B82F6" stroke-width="2"/>
  
  <!-- Connections (synapses) -->
  <line x1="140" y1="340" x2="160" y2="300" stroke="#3B82F6" stroke-width="2"/>
  <line x1="140" y1="340" x2="160" y2="380" stroke="#3B82F6" stroke-width="2"/>
  <line x1="200" y1="300" x2="235" y2="320" stroke="#3B82F6" stroke-width="3"/>
  <line x1="200" y1="380" x2="240" y2="380" stroke="#3B82F6" stroke-width="1"/>
  <line x1="285" y1="320" x2="320" y2="340" stroke="#3B82F6" stroke-width="3"/>
  <line x1="280" y1="380" x2="320" y2="340" stroke="#3B82F6" stroke-width="1"/>
  
  <!-- Learning text -->
  <text x="420" y="310" font-family="system-ui, sans-serif" font-size="13" fill="#18181B">Strong pathways =</text>
  <text x="420" y="330" font-family="system-ui, sans-serif" font-size="13" fill="#18181B">Large weights</text>
  <text x="420" y="360" font-family="system-ui, sans-serif" font-size="13" fill="#71717A">Practice strengthens</text>
  <text x="420" y="380" font-family="system-ui, sans-serif" font-size="13" fill="#71717A">connections!</text>
  
  <text x="295" y="445" font-family="system-ui, sans-serif" font-size="12" fill="#71717A" text-anchor="middle">"Neurons that fire together, wire together"</text>
  
  <!-- Example 2: Bird Migration -->
  <rect x="550" y="220" width="470" height="250" rx="15" fill="white" stroke="#22C55E" stroke-width="2"/>
  <text x="785" y="260" font-family="system-ui, sans-serif" font-size="22" fill="#22C55E" text-anchor="middle" font-weight="600">🦅 Bird Migration Routes</text>
  
  <!-- Map with route optimization -->
  <ellipse cx="660" cy="350" rx="60" ry="40" fill="#22C55E" fill-opacity="0.1" stroke="#22C55E" stroke-width="2"/>
  <text x="660" y="355" font-family="system-ui, sans-serif" font-size="11" fill="#22C55E" text-anchor="middle">Summer</text>
  
  <ellipse cx="780" cy="420" rx="60" ry="40" fill="#22C55E" fill-opacity="0.3" stroke="#22C55E" stroke-width="2"/>
  <text x="780" y="425" font-family="system-ui, sans-serif" font-size="11" fill="#22C55E" text-anchor="middle">Winter</text>
  
  <!-- Routes -->
  <path d="M 690 380 Q 710 390, 750 410" stroke="#EF4444" stroke-width="2" stroke-dasharray="3,3" fill="none"/>
  <path d="M 690 380 Q 680 420, 720 415" stroke="#22C55E" stroke-width="3" fill="none"/>
  
  <!-- Legend -->
  <line x1="860" y1="320" x2="890" y2="320" stroke="#EF4444" stroke-width="2" stroke-dasharray="3,3"/>
  <text x="900" y="325" font-family="system-ui, sans-serif" font-size="11" fill="#71717A">Naive path</text>
  <line x1="860" y1="345" x2="890" y2="345" stroke="#22C55E" stroke-width="3"/>
  <text x="900" y="350" font-family="system-ui, sans-serif" font-size="11" fill="#71717A">Optimized</text>
  
  <text x="890" y="385" font-family="system-ui, sans-serif" font-size="12" fill="#71717A">Generations of</text>
  <text x="890" y="405" font-family="system-ui, sans-serif" font-size="12" fill="#71717A">optimization</text>
  <text x="890" y="425" font-family="system-ui, sans-serif" font-size="12" fill="#71717A">= gradient descent!</text>
  
  <text x="785" y="450" font-family="system-ui, sans-serif" font-size="12" fill="#71717A" text-anchor="middle">Nature optimizes energy expenditure over generations</text>
  
  <!-- Example 3: Plant Growth -->
  <rect x="60" y="490" width="470" height="250" rx="15" fill="white" stroke="#A855F7" stroke-width="2"/>
  <text x="295" y="530" font-family="system-ui, sans-serif" font-size="22" fill="#A855F7" text-anchor="middle" font-weight="600">🌻 Sunflower Sun-Tracking</text>
  
  <!-- Sun -->
  <circle cx="140" cy="610" r="25" fill="#F59E0B"/>
  <line x1="140" y1="580" x2="140" y2="565" stroke="#F59E0B" stroke-width="2"/>
  <line x1="165" y1="590" x2="175" y2="580" stroke="#F59E0B" stroke-width="2"/>
  <line x1="165" y1="630" x2="175" y2="640" stroke="#F59E0B" stroke-width="2"/>
  
  <!-- Sunflower -->
  <line x1="240" y1="680" x2="240" y2="600" stroke="#22C55E" stroke-width="4"/>
  <!-- Flower head -->
  <circle cx="240" cy="580" r="30" fill="#F59E0B"/>
  <circle cx="240" cy="580" r="15" fill="#8B4513"/>
  <!-- Leaves -->
  <ellipse cx="220" cy="640" rx="20" ry="8" fill="#22C55E" transform="rotate(-30 220 640)"/>
  <ellipse cx="260" cy="660" rx="20" ry="8" fill="#22C55E" transform="rotate(30 260 660)"/>
  
  <!-- Arrow showing tracking -->
  <path d="M 170 605 Q 190 570, 210 580" stroke="#A855F7" stroke-width="2" fill="none"/>
  <polygon points="210,580 205,572 200,582" fill="#A855F7"/>
  
  <text x="370" y="580" font-family="system-ui, sans-serif" font-size="13" fill="#18181B">Objective: Maximize sunlight</text>
  <text x="370" y="605" font-family="system-ui, sans-serif" font-size="12" fill="#71717A">Input: Light direction</text>
  <text x="370" y="625" font-family="system-ui, sans-serif" font-size="12" fill="#71717A">Output: Stem angle</text>
  <text x="370" y="650" font-family="system-ui, sans-serif" font-size="12" fill="#A855F7">Gradient: ∂Light/∂Angle</text>
  
  <text x="295" y="720" font-family="system-ui, sans-serif" font-size="12" fill="#71717A" text-anchor="middle">Biological gradient ascent for maximum energy capture</text>
  
  <!-- Example 4: Neural Network Training -->
  <rect x="550" y="490" width="470" height="250" rx="15" fill="white" stroke="#EF4444" stroke-width="2"/>
  <text x="785" y="530" font-family="system-ui, sans-serif" font-size="22" fill="#EF4444" text-anchor="middle" font-weight="600">🤖 Neural Network Training</text>
  
  <!-- Simple NN -->
  <circle cx="620" cy="600" r="15" fill="white" stroke="#3B82F6" stroke-width="2"/>
  <circle cx="620" cy="660" r="15" fill="white" stroke="#3B82F6" stroke-width="2"/>
  <circle cx="700" cy="590" r="15" fill="white" stroke="#A855F7" stroke-width="2"/>
  <circle cx="700" cy="630" r="15" fill="white" stroke="#A855F7" stroke-width="2"/>
  <circle cx="700" cy="670" r="15" fill="white" stroke="#A855F7" stroke-width="2"/>
  <circle cx="780" cy="630" r="15" fill="white" stroke="#22C55E" stroke-width="2"/>
  
  <!-- Connections -->
  <line x1="635" y1="600" x2="685" y2="590" stroke="#E5E7EB" stroke-width="2"/>
  <line x1="635" y1="600" x2="685" y2="630" stroke="#E5E7EB" stroke-width="2"/>
  <line x1="635" y1="600" x2="685" y2="670" stroke="#E5E7EB" stroke-width="2"/>
  <line x1="635" y1="660" x2="685" y2="590" stroke="#E5E7EB" stroke-width="2"/>
  <line x1="635" y1="660" x2="685" y2="630" stroke="#E5E7EB" stroke-width="2"/>
  <line x1="635" y1="660" x2="685" y2="670" stroke="#E5E7EB" stroke-width="2"/>
  <line x1="715" y1="590" x2="765" y2="630" stroke="#E5E7EB" stroke-width="2"/>
  <line x1="715" y1="630" x2="765" y2="630" stroke="#E5E7EB" stroke-width="2"/>
  <line x1="715" y1="670" x2="765" y2="630" stroke="#E5E7EB" stroke-width="2"/>
  
  <!-- Training curve -->
  <text x="880" y="565" font-family="system-ui, sans-serif" font-size="12" fill="#18181B" font-weight="500">Training Loss:</text>
  <rect x="840" y="580" width="160" height="80" rx="5" fill="#F5F5F5" stroke="#E5E7EB"/>
  <polyline points="850,650 870,640 890,610 920,595 950,590 980,588" stroke="#EF4444" stroke-width="2" fill="none"/>
  <text x="855" y="595" font-family="system-ui, sans-serif" font-size="10" fill="#71717A">High</text>
  <text x="855" y="655" font-family="system-ui, sans-serif" font-size="10" fill="#71717A">Low</text>
  
  <text x="620" y="710" font-family="system-ui, sans-serif" font-size="12" fill="#71717A">Forward → Loss → Backprop → Update</text>
  <text x="785" y="730" font-family="system-ui, sans-serif" font-size="12" fill="#EF4444" text-anchor="middle" font-weight="500">All calculus concepts combined!</text>
  
  <!-- Unifying Theme -->
  <rect x="60" y="770" width="960" height="180" rx="15" fill="#18181B"/>
  <text x="540" y="815" font-family="system-ui, sans-serif" font-size="24" fill="white" text-anchor="middle" font-weight="600">The Universal Pattern</text>
  
  <!-- Pattern flow -->
  <rect x="120" y="850" width="150" height="70" rx="10" fill="white" fill-opacity="0.1" stroke="white" stroke-width="1"/>
  <text x="195" y="880" font-family="system-ui, sans-serif" font-size="14" fill="#3B82F6" text-anchor="middle" font-weight="600">Observe</text>
  <text x="195" y="905" font-family="system-ui, sans-serif" font-size="12" fill="#A1A1AA" text-anchor="middle">Forward pass</text>
  
  <path d="M 270 885 L 310 885" stroke="white" stroke-width="2"/>
  <polygon points="310,885 300,880 300,890" fill="white"/>
  
  <rect x="320" y="850" width="150" height="70" rx="10" fill="white" fill-opacity="0.1" stroke="white" stroke-width="1"/>
  <text x="395" y="880" font-family="system-ui, sans-serif" font-size="14" fill="#EF4444" text-anchor="middle" font-weight="600">Measure Error</text>
  <text x="395" y="905" font-family="system-ui, sans-serif" font-size="12" fill="#A1A1AA" text-anchor="middle">Loss function</text>
  
  <path d="M 470 885 L 510 885" stroke="white" stroke-width="2"/>
  <polygon points="510,885 500,880 500,890" fill="white"/>
  
  <rect x="520" y="850" width="150" height="70" rx="10" fill="white" fill-opacity="0.1" stroke="white" stroke-width="1"/>
  <text x="595" y="880" font-family="system-ui, sans-serif" font-size="14" fill="#A855F7" text-anchor="middle" font-weight="600">Find Direction</text>
  <text x="595" y="905" font-family="system-ui, sans-serif" font-size="12" fill="#A1A1AA" text-anchor="middle">Gradients</text>
  
  <path d="M 670 885 L 710 885" stroke="white" stroke-width="2"/>
  <polygon points="710,885 700,880 700,890" fill="white"/>
  
  <rect x="720" y="850" width="150" height="70" rx="10" fill="white" fill-opacity="0.1" stroke="white" stroke-width="1"/>
  <text x="795" y="880" font-family="system-ui, sans-serif" font-size="14" fill="#22C55E" text-anchor="middle" font-weight="600">Improve</text>
  <text x="795" y="905" font-family="system-ui, sans-serif" font-size="12" fill="#A1A1AA" text-anchor="middle">Update weights</text>
  
  <!-- Loop arrow -->
  <path d="M 870 885 Q 920 885, 920 830 Q 920 780, 540 780 Q 100 780, 100 830 Q 100 885, 120 885" stroke="#22C55E" stroke-width="2" stroke-dasharray="5,3" fill="none"/>
  <text x="540" y="775" font-family="system-ui, sans-serif" font-size="12" fill="#22C55E" text-anchor="middle">Repeat until optimal</text>
  
  <!-- Branding Bottom -->
  <text x="540" y="1040" font-family="system-ui, sans-serif" font-size="14" fill="#71717A" text-anchor="middle">@devweekends</text>
</svg>