<svg xmlns="http://www.w3.org/2000/svg" viewBox="0 0 1080 1080">
  <defs>
    <linearGradient id="trackGrad1" x1="0%" y1="0%" x2="100%" y2="100%">
      <stop offset="0%" style="stop-color:#3B82F6;stop-opacity:1" />
      <stop offset="100%" style="stop-color:#2563EB;stop-opacity:1" />
    </linearGradient>
    <linearGradient id="trackGrad2" x1="0%" y1="0%" x2="100%" y2="100%">
      <stop offset="0%" style="stop-color:#22C55E;stop-opacity:1" />
      <stop offset="100%" style="stop-color:#16A34A;stop-opacity:1" />
    </linearGradient>
    <linearGradient id="trackGrad3" x1="0%" y1="0%" x2="100%" y2="100%">
      <stop offset="0%" style="stop-color:#A855F7;stop-opacity:1" />
      <stop offset="100%" style="stop-color:#9333EA;stop-opacity:1" />
    </linearGradient>
    <linearGradient id="trackGrad4" x1="0%" y1="0%" x2="100%" y2="100%">
      <stop offset="0%" style="stop-color:#F97316;stop-opacity:1" />
      <stop offset="100%" style="stop-color:#EA580C;stop-opacity:1" />
    </linearGradient>
  </defs>
  
  <!-- Background -->
  <rect width="1080" height="1080" fill="#FAFAFA"/>
  
  <!-- Header -->
  <rect x="0" y="0" width="1080" height="100" fill="#FFFFFF" stroke="#E4E4E7" stroke-width="1"/>
  <text x="40" y="60" font-family="system-ui, -apple-system, sans-serif" font-size="24" font-weight="700" fill="#18181B">DEV WEEKENDS</text>
  <rect x="920" y="30" width="130" height="40" rx="6" fill="#F97316"/>
  <text x="985" y="58" font-family="system-ui, -apple-system, sans-serif" font-size="14" font-weight="600" fill="#FFFFFF" text-anchor="middle">HIPAA COURSE</text>
  
  <!-- Title -->
  <text x="540" y="160" font-family="system-ui, -apple-system, sans-serif" font-size="32" font-weight="700" fill="#18181B" text-anchor="middle">HIPAA Compliance Learning Path</text>
  <text x="540" y="195" font-family="system-ui, -apple-system, sans-serif" font-size="18" fill="#71717A" text-anchor="middle">4 Tracks + Capstone Project</text>
  
  <!-- Track 1: Foundations -->
  <rect x="60" y="240" width="460" height="180" rx="12" fill="url(#trackGrad1)" opacity="0.1"/>
  <rect x="60" y="240" width="460" height="180" rx="12" fill="none" stroke="#3B82F6" stroke-width="2"/>
  <rect x="60" y="240" width="460" height="50" rx="12" fill="url(#trackGrad1)"/>
  <rect x="60" y="278" width="460" height="12" fill="url(#trackGrad1)"/>
  <text x="85" y="274" font-family="system-ui, -apple-system, sans-serif" font-size="18" font-weight="700" fill="#FFFFFF">TRACK 1: FOUNDATIONS</text>
  <text x="490" y="274" font-family="system-ui, -apple-system, sans-serif" font-size="14" fill="#FFFFFF" text-anchor="end">Week 1-2</text>
  
  <circle cx="95" cy="320" r="8" fill="#3B82F6"/>
  <text x="115" y="325" font-family="system-ui, -apple-system, sans-serif" font-size="15" fill="#27272A">HIPAA Fundamentals</text>
  <circle cx="95" cy="355" r="8" fill="#3B82F6"/>
  <text x="115" y="360" font-family="system-ui, -apple-system, sans-serif" font-size="15" fill="#27272A">PHI Identification</text>
  <circle cx="280" cy="320" r="8" fill="#3B82F6"/>
  <text x="300" y="325" font-family="system-ui, -apple-system, sans-serif" font-size="15" fill="#27272A">Covered Entities</text>
  <circle cx="280" cy="355" r="8" fill="#3B82F6"/>
  <text x="300" y="360" font-family="system-ui, -apple-system, sans-serif" font-size="15" fill="#27272A">Business Associates</text>
  
  <text x="95" y="400" font-family="system-ui, -apple-system, sans-serif" font-size="13" fill="#71717A">📋 Regulations, Rules, Penalties</text>
  
  <!-- Track 2: Data Protection -->
  <rect x="560" y="240" width="460" height="180" rx="12" fill="url(#trackGrad2)" opacity="0.1"/>
  <rect x="560" y="240" width="460" height="180" rx="12" fill="none" stroke="#22C55E" stroke-width="2"/>
  <rect x="560" y="240" width="460" height="50" rx="12" fill="url(#trackGrad2)"/>
  <rect x="560" y="278" width="460" height="12" fill="url(#trackGrad2)"/>
  <text x="585" y="274" font-family="system-ui, -apple-system, sans-serif" font-size="18" font-weight="700" fill="#FFFFFF">TRACK 2: DATA PROTECTION</text>
  <text x="990" y="274" font-family="system-ui, -apple-system, sans-serif" font-size="14" fill="#FFFFFF" text-anchor="end">Week 3-4</text>
  
  <circle cx="595" cy="320" r="8" fill="#22C55E"/>
  <text x="615" y="325" font-family="system-ui, -apple-system, sans-serif" font-size="15" fill="#27272A">Encryption at Rest</text>
  <circle cx="595" cy="355" r="8" fill="#22C55E"/>
  <text x="615" y="360" font-family="system-ui, -apple-system, sans-serif" font-size="15" fill="#27272A">Key Management</text>
  <circle cx="780" cy="320" r="8" fill="#22C55E"/>
  <text x="800" y="325" font-family="system-ui, -apple-system, sans-serif" font-size="15" fill="#27272A">Encryption in Transit</text>
  <circle cx="780" cy="355" r="8" fill="#22C55E"/>
  <text x="800" y="360" font-family="system-ui, -apple-system, sans-serif" font-size="15" fill="#27272A">Database Encryption</text>
  
  <text x="595" y="400" font-family="system-ui, -apple-system, sans-serif" font-size="13" fill="#71717A">🔐 AES-256, TLS 1.3, Envelope Encryption</text>
  
  <!-- Arrow down -->
  <path d="M290 435 L290 470 M280 460 L290 475 L300 460" stroke="#D4D4D8" stroke-width="3" fill="none" stroke-linecap="round" stroke-linejoin="round"/>
  <path d="M790 435 L790 470 M780 460 L790 475 L800 460" stroke="#D4D4D8" stroke-width="3" fill="none" stroke-linecap="round" stroke-linejoin="round"/>
  
  <!-- Track 3: Compliance Ops -->
  <rect x="60" y="490" width="460" height="180" rx="12" fill="url(#trackGrad3)" opacity="0.1"/>
  <rect x="60" y="490" width="460" height="180" rx="12" fill="none" stroke="#A855F7" stroke-width="2"/>
  <rect x="60" y="490" width="460" height="50" rx="12" fill="url(#trackGrad3)"/>
  <rect x="60" y="528" width="460" height="12" fill="url(#trackGrad3)"/>
  <text x="85" y="524" font-family="system-ui, -apple-system, sans-serif" font-size="18" font-weight="700" fill="#FFFFFF">TRACK 3: COMPLIANCE OPS</text>
  <text x="490" y="524" font-family="system-ui, -apple-system, sans-serif" font-size="14" fill="#FFFFFF" text-anchor="end">Week 5-6</text>
  
  <circle cx="95" cy="570" r="8" fill="#A855F7"/>
  <text x="115" y="575" font-family="system-ui, -apple-system, sans-serif" font-size="15" fill="#27272A">Audit Logging</text>
  <circle cx="95" cy="605" r="8" fill="#A855F7"/>
  <text x="115" y="610" font-family="system-ui, -apple-system, sans-serif" font-size="15" fill="#27272A">Access Controls</text>
  <circle cx="280" cy="570" r="8" fill="#A855F7"/>
  <text x="300" y="575" font-family="system-ui, -apple-system, sans-serif" font-size="15" fill="#27272A">PDPL Compliance</text>
  <circle cx="280" cy="605" r="8" fill="#A855F7"/>
  <text x="300" y="610" font-family="system-ui, -apple-system, sans-serif" font-size="15" fill="#27272A">Incident Response</text>
  
  <text x="95" y="650" font-family="system-ui, -apple-system, sans-serif" font-size="13" fill="#71717A">📝 Immutable Logs, RBAC, Breach Protocol</text>
  
  <!-- Track 4: AI & Encryption -->
  <rect x="560" y="490" width="460" height="180" rx="12" fill="url(#trackGrad4)" opacity="0.1"/>
  <rect x="560" y="490" width="460" height="180" rx="12" fill="none" stroke="#F97316" stroke-width="2"/>
  <rect x="560" y="490" width="460" height="50" rx="12" fill="url(#trackGrad4)"/>
  <rect x="560" y="528" width="460" height="12" fill="url(#trackGrad4)"/>
  <text x="585" y="524" font-family="system-ui, -apple-system, sans-serif" font-size="18" font-weight="700" fill="#FFFFFF">TRACK 4: AI & ENCRYPTION</text>
  <text x="990" y="524" font-family="system-ui, -apple-system, sans-serif" font-size="14" fill="#FFFFFF" text-anchor="end">Week 7-8</text>
  
  <circle cx="595" cy="570" r="8" fill="#F97316"/>
  <text x="615" y="575" font-family="system-ui, -apple-system, sans-serif" font-size="15" fill="#27272A">E2E Encrypted Chat</text>
  <circle cx="595" cy="605" r="8" fill="#F97316"/>
  <text x="615" y="610" font-family="system-ui, -apple-system, sans-serif" font-size="15" fill="#27272A">Secure LLM Integration</text>
  <circle cx="800" cy="570" r="8" fill="#F97316"/>
  <text x="820" y="575" font-family="system-ui, -apple-system, sans-serif" font-size="15" fill="#27272A">AI with PHI</text>
  <circle cx="800" cy="605" r="8" fill="#F97316"/>
  <text x="820" y="610" font-family="system-ui, -apple-system, sans-serif" font-size="15" fill="#27272A">Privacy-Preserving AI</text>
  
  <text x="595" y="650" font-family="system-ui, -apple-system, sans-serif" font-size="13" fill="#71717A">🤖 LLMs + Healthcare Data Safely</text>
  
  <!-- Converging arrows to Capstone -->
  <path d="M290 685 L290 720 L440 755" stroke="#D4D4D8" stroke-width="3" fill="none" stroke-linecap="round" stroke-linejoin="round"/>
  <path d="M790 685 L790 720 L640 755" stroke="#D4D4D8" stroke-width="3" fill="none" stroke-linecap="round" stroke-linejoin="round"/>
  
  <!-- Capstone -->
  <rect x="180" y="760" width="720" height="140" rx="16" fill="#18181B"/>
  <text x="540" y="810" font-family="system-ui, -apple-system, sans-serif" font-size="22" font-weight="700" fill="#FFFFFF" text-anchor="middle">🎯 CAPSTONE: PRODUCTION DEPLOYMENT</text>
  <text x="540" y="845" font-family="system-ui, -apple-system, sans-serif" font-size="16" fill="#A1A1AA" text-anchor="middle">Week 9-10 • Implementation Guide • Compliance Checklist • Go-Live</text>
  
  <rect x="240" y="865" width="180" height="24" rx="4" fill="#3B82F6"/>
  <text x="330" y="882" font-family="system-ui, -apple-system, sans-serif" font-size="12" font-weight="600" fill="#FFFFFF" text-anchor="middle">✓ HIPAA Compliant</text>
  
  <rect x="450" y="865" width="180" height="24" rx="4" fill="#22C55E"/>
  <text x="540" y="882" font-family="system-ui, -apple-system, sans-serif" font-size="12" font-weight="600" fill="#FFFFFF" text-anchor="middle">✓ Audit Ready</text>
  
  <rect x="660" y="865" width="180" height="24" rx="4" fill="#F97316"/>
  <text x="750" y="882" font-family="system-ui, -apple-system, sans-serif" font-size="12" font-weight="600" fill="#FFFFFF" text-anchor="middle">✓ AI Safe</text>
  
  <!-- Duration badge -->
  <rect x="430" y="920" width="220" height="36" rx="18" fill="#FFFFFF" stroke="#E4E4E7" stroke-width="2"/>
  <text x="540" y="944" font-family="system-ui, -apple-system, sans-serif" font-size="14" font-weight="600" fill="#18181B" text-anchor="middle">⏱️ 8-10 Weeks Self-Paced</text>
  
  <!-- Footer -->
  <text x="540" y="1040" font-family="system-ui, -apple-system, sans-serif" font-size="14" fill="#A1A1AA" text-anchor="middle">@devweekends • HIPAA Compliance & Healthcare Security</text>
</svg>