<svg width="1080" height="1080" viewBox="0 0 1080 1080" fill="none" xmlns="http://www.w3.org/2000/svg">
  <rect width="1080" height="1080" fill="#18181B"/>

  <text x="60" y="80" font-family="system-ui, sans-serif" font-size="14" font-weight="600" fill="#FAFAFA" letter-spacing="3">DEV WEEKENDS</text>

  <rect x="60" y="140" width="200" height="40" fill="#10B981"/>
  <text x="160" y="168" font-family="system-ui, sans-serif" font-size="12" font-weight="600" fill="#FAFAFA" text-anchor="middle" letter-spacing="2">AI ENGINEERING</text>

  <text x="60" y="280" font-family="system-ui, sans-serif" font-size="52" font-weight="700" fill="#FAFAFA">RAG</text>
  <text x="60" y="340" font-family="system-ui, sans-serif" font-size="52" font-weight="700" fill="#10B981">Architecture</text>

  <text x="60" y="400" font-family="system-ui, sans-serif" font-size="18" fill="#A1A1AA">Retrieval-Augmented Generation pipeline</text>

  <!-- Main diagram area -->
  <rect x="60" y="440" width="960" height="520" fill="#27272A" rx="8"/>

  <!-- Step 1: User Query -->
  <rect x="100" y="470" width="880" height="70" fill="#7C3AED" rx="8"/>
  <text x="150" y="500" font-family="system-ui, sans-serif" font-size="14" font-weight="600" fill="#E9D5FF">1. User Query</text>
  <rect x="150" y="510" width="800" height="35" fill="#6D28D9" rx="4"/>
  <text x="550" y="533" font-family="monospace" font-size="12" fill="#FAFAFA" text-anchor="middle">"What are the benefits of vector databases?"</text>

  <!-- Arrow -->
  <path d="M 540 540 L 540 570" stroke="#10B981" stroke-width="3" marker-end="url(#arrowRAG1)"/>
  <defs>
    <marker id="arrowRAG1" markerWidth="10" markerHeight="7" refX="5" refY="7" orient="auto">
      <polygon points="0 0, 10 0, 5 7" fill="#10B981"/>
    </marker>
  </defs>

  <!-- Step 2: Embedding -->
  <rect x="100" y="570" width="880" height="70" fill="#1E40AF" rx="8"/>
  <text x="150" y="600" font-family="system-ui, sans-serif" font-size="14" font-weight="600" fill="#93C5FD">2. Query Embedding</text>
  <rect x="150" y="610" width="800" height="35" fill="#1E3A8A" rx="4"/>
  <text x="550" y="633" font-family="monospace" font-size="11" fill="#FAFAFA" text-anchor="middle">Embedding Model → [0.23, -0.45, 0.67, ..., 0.12]  (1536 dims)</text>

  <!-- Arrow -->
  <path d="M 540 640 L 540 670" stroke="#10B981" stroke-width="3" marker-end="url(#arrowRAG2)"/>
  <defs>
    <marker id="arrowRAG2" markerWidth="10" markerHeight="7" refX="5" refY="7" orient="auto">
      <polygon points="0 0, 10 0, 5 7" fill="#10B981"/>
    </marker>
  </defs>

  <!-- Step 3: Vector Search -->
  <rect x="100" y="670" width="430" height="120" fill="#166534" rx="8"/>
  <text x="150" y="700" font-family="system-ui, sans-serif" font-size="14" font-weight="600" fill="#BBF7D0">3. Vector Search</text>
  <text x="150" y="725" font-family="system-ui, sans-serif" font-size="11" fill="#BBF7D0">Query vector database</text>

  <rect x="150" y="735" width="350" height="45" fill="#14532D" rx="4"/>
  <circle cx="165" cy="752" r="3" fill="#22C55E"/>
  <text x="180" y="755" font-family="system-ui, sans-serif" font-size="10" fill="#BBF7D0">Top-K similar documents (cosine similarity)</text>
  <circle cx="165" cy="768" r="3" fill="#22C55E"/>
  <text x="180" y="771" font-family="system-ui, sans-serif" font-size="10" fill="#BBF7D0">Retrieves relevant context chunks</text>

  <!-- Retrieved Documents -->
  <rect x="550" y="670" width="430" height="120" fill="#9A3412" rx="8"/>
  <text x="600" y="700" font-family="system-ui, sans-serif" font-size="14" font-weight="600" fill="#FED7AA">Retrieved Documents</text>

  <rect x="565" y="710" width="395" height="25" fill="#7C2D12" rx="3"/>
  <text x="763" y="728" font-family="system-ui, sans-serif" font-size="9" fill="#FED7AA" text-anchor="middle">Doc 1: "Vector databases enable fast similarity search..."</text>

  <rect x="565" y="740" width="395" height="25" fill="#7C2D12" rx="3"/>
  <text x="763" y="758" font-family="system-ui, sans-serif" font-size="9" fill="#FED7AA" text-anchor="middle">Doc 2: "They scale to billions of embeddings..."</text>

  <rect x="565" y="770" width="395" height="15" fill="#7C2D12" rx="3"/>
  <text x="763" y="782" font-family="system-ui, sans-serif" font-size="8" fill="#FED7AA" text-anchor="middle">Doc 3: "Popular options include Pinecone, Weaviate..."</text>

  <!-- Arrow -->
  <path d="M 540 790 L 540 820" stroke="#10B981" stroke-width="3" marker-end="url(#arrowRAG3)"/>
  <defs>
    <marker id="arrowRAG3" markerWidth="10" markerHeight="7" refX="5" refY="7" orient="auto">
      <polygon points="0 0, 10 0, 5 7" fill="#10B981"/>
    </marker>
  </defs>

  <!-- Step 4: Prompt Construction -->
  <rect x="100" y="820" width="880" height="90" fill="#7C2D12" rx="8"/>
  <text x="150" y="850" font-family="system-ui, sans-serif" font-size="14" font-weight="600" fill="#FED7AA">4. Augmented Prompt</text>
  <rect x="150" y="860" width="800" height="40" fill="#78350F" rx="4"/>
  <text x="550" y="875" font-family="monospace" font-size="9" fill="#FAFAFA" text-anchor="middle">Context: [Doc 1] [Doc 2] [Doc 3]</text>
  <text x="550" y="891" font-family="monospace" font-size="9" fill="#FAFAFA" text-anchor="middle">Question: What are the benefits of vector databases?</text>

  <!-- Arrow -->
  <path d="M 540 910 L 540 935" stroke="#10B981" stroke-width="3" marker-end="url(#arrowRAG4)"/>
  <defs>
    <marker id="arrowRAG4" markerWidth="10" markerHeight="7" refX="5" refY="7" orient="auto">
      <polygon points="0 0, 10 0, 5 7" fill="#10B981"/>
    </marker>
  </defs>

  <!-- Step 5: LLM Generation -->
  <rect x="350" y="935" width="380" height="50" fill="#0EA5E9" rx="8"/>
  <text x="540" y="967" font-family="system-ui, sans-serif" font-size="14" font-weight="600" fill="#FAFAFA" text-anchor="middle">5. LLM generates contextual answer</text>

  <!-- Key components -->
  <rect x="60" y="985" width="460" height="70" fill="#27272A" rx="8"/>
  <text x="290" y="1013" font-family="system-ui, sans-serif" font-size="13" font-weight="600" fill="#10B981" text-anchor="middle">Key Components</text>
  <circle cx="90" cy="1032" r="3" fill="#10B981"/>
  <text x="105" y="1035" font-family="system-ui, sans-serif" font-size="10" fill="#E5E5E5">Embedding Model (text-embedding-3-small)</text>
  <circle cx="90" cy="1047" r="3" fill="#10B981"/>
  <text x="105" y="1050" font-family="system-ui, sans-serif" font-size="10" fill="#E5E5E5">Vector DB (Pinecone, Qdrant, Weaviate, ChromaDB)</text>

  <!-- Benefits -->
  <rect x="540" y="985" width="480" height="70" fill="#27272A" rx="8"/>
  <text x="780" y="1013" font-family="system-ui, sans-serif" font-size="13" font-weight="600" fill="#10B981" text-anchor="middle">Why RAG?</text>
  <circle cx="560" cy="1032" r="3" fill="#22C55E"/>
  <text x="575" y="1035" font-family="system-ui, sans-serif" font-size="10" fill="#E5E5E5">Up-to-date knowledge without retraining</text>
  <circle cx="560" cy="1047" r="3" fill="#22C55E"/>
  <text x="575" y="1050" font-family="system-ui, sans-serif" font-size="10" fill="#E5E5E5">Reduces hallucinations with grounded context</text>

  <text x="540" y="1073" font-family="system-ui, sans-serif" font-size="14" fill="#52525B" text-anchor="middle">@devweekends</text>
</svg>
