<svg width="1080" height="1080" viewBox="0 0 1080 1080" fill="none" xmlns="http://www.w3.org/2000/svg">
  <!-- Background -->
  <rect width="1080" height="1080" fill="#FAFAFA"/>
  
  <!-- Header -->
  <text x="60" y="80" font-family="system-ui, sans-serif" font-size="14" font-weight="600" letter-spacing="3">
    <tspan fill="#667EEA">DEV</tspan><tspan fill="#764BA2"> WEEKENDS</tspan>
  </text>
  
  <!-- Topic Tag -->
  <rect x="60" y="110" width="200" height="36" rx="18" fill="#FF6B6B"/>
  <text x="160" y="134" font-family="system-ui, sans-serif" font-size="12" font-weight="600" fill="#FFFFFF" text-anchor="middle" letter-spacing="2">SYSTEM DESIGN</text>
  
  <!-- Title -->
  <text x="60" y="220" font-family="system-ui, sans-serif" font-size="52" font-weight="800" fill="#1a1a2e">High Availability</text>
  <text x="60" y="285" font-family="system-ui, sans-serif" font-size="52" font-weight="800" fill="#FF6B6B">Layers</text>
  
  <!-- Subtitle -->
  <text x="60" y="340" font-family="system-ui, sans-serif" font-size="20" fill="#6B7280">Redundancy at every layer of your architecture</text>
  
  <!-- Users at top -->
  <rect x="440" y="380" width="200" height="50" rx="25" fill="#6B7280"/>
  <text x="540" y="412" font-family="system-ui, sans-serif" font-size="16" font-weight="600" fill="#FFFFFF" text-anchor="middle">👥 Users</text>
  
  <line x1="540" y1="430" x2="540" y2="460" stroke="#6B7280" stroke-width="2"/>
  <polygon points="540,470 533,455 547,455" fill="#6B7280"/>
  
  <!-- Layer 1: DNS -->
  <rect x="160" y="480" width="760" height="70" rx="12" fill="#EFF6FF" stroke="#3B82F6" stroke-width="2"/>
  <rect x="160" y="480" width="120" height="70" rx="12" fill="#3B82F6"/>
  <text x="220" y="522" font-family="system-ui, sans-serif" font-size="14" font-weight="700" fill="#FFFFFF" text-anchor="middle">Layer 1</text>
  
  <text x="340" y="510" font-family="system-ui, sans-serif" font-size="16" font-weight="600" fill="#3B82F6">DNS (Multiple Providers)</text>
  <text x="340" y="535" font-family="system-ui, sans-serif" font-size="13" fill="#6B7280">Route 53 + Cloudflare + NS1 | Health checks + Failover</text>
  <text x="820" y="522" font-family="system-ui, sans-serif" font-size="14" fill="#10B981" text-anchor="middle">99.9999%</text>
  
  <line x1="540" y1="550" x2="540" y2="565" stroke="#6B7280" stroke-width="2"/>
  <polygon points="540,575 533,560 547,560" fill="#6B7280"/>
  
  <!-- Layer 2: CDN -->
  <rect x="160" y="580" width="760" height="70" rx="12" fill="#ECFDF5" stroke="#10B981" stroke-width="2"/>
  <rect x="160" y="580" width="120" height="70" rx="12" fill="#10B981"/>
  <text x="220" y="622" font-family="system-ui, sans-serif" font-size="14" font-weight="700" fill="#FFFFFF" text-anchor="middle">Layer 2</text>
  
  <text x="340" y="610" font-family="system-ui, sans-serif" font-size="16" font-weight="600" fill="#10B981">CDN (Edge Network)</text>
  <text x="340" y="635" font-family="system-ui, sans-serif" font-size="13" fill="#6B7280">CloudFront / Fastly | 200+ PoPs globally | Cache at edge</text>
  <text x="820" y="622" font-family="system-ui, sans-serif" font-size="14" fill="#10B981" text-anchor="middle">99.99%</text>
  
  <line x1="540" y1="650" x2="540" y2="665" stroke="#6B7280" stroke-width="2"/>
  <polygon points="540,675 533,660 547,660" fill="#6B7280"/>
  
  <!-- Layer 3: Load Balancer -->
  <rect x="160" y="680" width="760" height="70" rx="12" fill="#FEF3C7" stroke="#F59E0B" stroke-width="2"/>
  <rect x="160" y="680" width="120" height="70" rx="12" fill="#F59E0B"/>
  <text x="220" y="722" font-family="system-ui, sans-serif" font-size="14" font-weight="700" fill="#FFFFFF" text-anchor="middle">Layer 3</text>
  
  <text x="340" y="710" font-family="system-ui, sans-serif" font-size="16" font-weight="600" fill="#F59E0B">Load Balancer (Active-Passive)</text>
  <text x="340" y="735" font-family="system-ui, sans-serif" font-size="13" fill="#6B7280">ALB/NLB pair | Health probes | Automatic failover &lt;30s</text>
  <text x="820" y="722" font-family="system-ui, sans-serif" font-size="14" fill="#10B981" text-anchor="middle">99.99%</text>
  
  <line x1="540" y1="750" x2="540" y2="765" stroke="#6B7280" stroke-width="2"/>
  <polygon points="540,775 533,760 547,760" fill="#6B7280"/>
  
  <!-- Layer 4: Application -->
  <rect x="160" y="780" width="760" height="70" rx="12" fill="#F3E8FF" stroke="#8B5CF6" stroke-width="2"/>
  <rect x="160" y="780" width="120" height="70" rx="12" fill="#8B5CF6"/>
  <text x="220" y="822" font-family="system-ui, sans-serif" font-size="14" font-weight="700" fill="#FFFFFF" text-anchor="middle">Layer 4</text>
  
  <text x="340" y="810" font-family="system-ui, sans-serif" font-size="16" font-weight="600" fill="#8B5CF6">Application (Multi-AZ Cluster)</text>
  <text x="340" y="835" font-family="system-ui, sans-serif" font-size="13" fill="#6B7280">N+1 redundancy | Rolling deployments | Auto-scaling</text>
  <text x="820" y="822" font-family="system-ui, sans-serif" font-size="14" fill="#10B981" text-anchor="middle">99.95%</text>
  
  <line x1="540" y1="850" x2="540" y2="865" stroke="#6B7280" stroke-width="2"/>
  <polygon points="540,875 533,860 547,860" fill="#6B7280"/>
  
  <!-- Layer 5: Database -->
  <rect x="160" y="880" width="760" height="70" rx="12" fill="#FEF2F2" stroke="#EF4444" stroke-width="2"/>
  <rect x="160" y="880" width="120" height="70" rx="12" fill="#EF4444"/>
  <text x="220" y="922" font-family="system-ui, sans-serif" font-size="14" font-weight="700" fill="#FFFFFF" text-anchor="middle">Layer 5</text>
  
  <text x="340" y="910" font-family="system-ui, sans-serif" font-size="16" font-weight="600" fill="#EF4444">Database (Primary + Replicas)</text>
  <text x="340" y="935" font-family="system-ui, sans-serif" font-size="13" fill="#6B7280">Multi-AZ RDS | Sync replication | Automatic failover</text>
  <text x="820" y="922" font-family="system-ui, sans-serif" font-size="14" fill="#10B981" text-anchor="middle">99.95%</text>
  
  <!-- Formula -->
  <rect x="160" y="970" width="760" height="60" rx="12" fill="#1a1a2e"/>
  <text x="540" y="1005" font-family="system-ui, sans-serif" font-size="16" fill="#FFFFFF" text-anchor="middle">Combined Availability = 0.999999 × 0.9999 × 0.9999 × 0.9995 × 0.9995 ≈ 99.87%</text>
  
  <!-- Footer -->
  <text x="540" y="1060" font-family="system-ui, sans-serif" font-size="14" fill="#9CA3AF" text-anchor="middle">@devweekends</text>
</svg>