<svg width="1080" height="1080" viewBox="0 0 1080 1080" fill="none" xmlns="http://www.w3.org/2000/svg">
  <!-- Background -->
  <rect width="1080" height="1080" fill="#18181B"/>
  
  <!-- Header -->
  <text x="60" y="80" font-family="system-ui, sans-serif" font-size="14" font-weight="600" fill="#FAFAFA" letter-spacing="3">DEV WEEKENDS</text>
  
  <!-- Topic Tag -->
  <rect x="60" y="110" width="140" height="36" rx="18" fill="#A855F7"/>
  <text x="130" y="134" font-family="system-ui, sans-serif" font-size="12" font-weight="600" fill="#FAFAFA" text-anchor="middle" letter-spacing="2">LLD CASE STUDY</text>
  
  <!-- Title -->
  <text x="60" y="220" font-family="system-ui, sans-serif" font-size="52" font-weight="800" fill="#FAFAFA">Parking Lot</text>
  <text x="60" y="285" font-family="system-ui, sans-serif" font-size="52" font-weight="800" fill="#A855F7">System</text>
  
  <!-- Subtitle -->
  <text x="60" y="330" font-family="system-ui, sans-serif" font-size="18" fill="#A1A1AA">The #1 most asked LLD interview question</text>
  
  <!-- Class Diagram -->
  <rect x="60" y="370" width="960" height="400" rx="16" fill="#27272A"/>
  <text x="90" y="410" font-family="system-ui, sans-serif" font-size="16" font-weight="700" fill="#FAFAFA">📊 Class Diagram</text>
  
  <!-- ParkingLot Class -->
  <rect x="380" y="440" width="260" height="100" rx="8" fill="#3B82F6"/>
  <text x="510" y="470" font-family="system-ui, sans-serif" font-size="14" font-weight="700" fill="#FFFFFF" text-anchor="middle">ParkingLot «Singleton»</text>
  <line x1="400" y1="485" x2="620" y2="485" stroke="#60A5FA" stroke-width="1"/>
  <text x="400" y="505" font-family="monospace" font-size="10" fill="#DBEAFE">- floors: List&lt;Floor&gt;</text>
  <text x="400" y="525" font-family="monospace" font-size="10" fill="#DBEAFE">+ parkVehicle(): Ticket</text>
  
  <!-- Floor Class -->
  <rect x="100" y="580" width="200" height="80" rx="8" fill="#A855F7"/>
  <text x="200" y="610" font-family="system-ui, sans-serif" font-size="14" font-weight="700" fill="#FFFFFF" text-anchor="middle">Floor</text>
  <line x1="120" y1="625" x2="280" y2="625" stroke="#C084FC" stroke-width="1"/>
  <text x="120" y="645" font-family="monospace" font-size="10" fill="#EDE9FE">- spots: List&lt;ParkingSpot&gt;</text>
  
  <!-- ParkingSpot Class (Abstract) -->
  <rect x="340" y="580" width="200" height="80" rx="8" fill="#10B981"/>
  <text x="440" y="610" font-family="system-ui, sans-serif" font-size="14" font-weight="700" fill="#FFFFFF" text-anchor="middle">ParkingSpot «abstract»</text>
  <line x1="360" y1="625" x2="520" y2="625" stroke="#34D399" stroke-width="1"/>
  <text x="360" y="645" font-family="monospace" font-size="10" fill="#D1FAE5">+ isAvailable(): bool</text>
  
  <!-- Spot Types -->
  <rect x="260" y="700" width="100" height="50" rx="6" fill="#27272A" stroke="#10B981" stroke-width="2"/>
  <text x="310" y="730" font-family="system-ui, sans-serif" font-size="11" font-weight="600" fill="#10B981" text-anchor="middle">Compact</text>
  
  <rect x="380" y="700" width="100" height="50" rx="6" fill="#27272A" stroke="#10B981" stroke-width="2"/>
  <text x="430" y="730" font-family="system-ui, sans-serif" font-size="11" font-weight="600" fill="#10B981" text-anchor="middle">Regular</text>
  
  <rect x="500" y="700" width="100" height="50" rx="6" fill="#27272A" stroke="#10B981" stroke-width="2"/>
  <text x="550" y="730" font-family="system-ui, sans-serif" font-size="11" font-weight="600" fill="#10B981" text-anchor="middle">Large</text>
  
  <!-- Vehicle Class (Abstract) -->
  <rect x="640" y="580" width="180" height="80" rx="8" fill="#F59E0B"/>
  <text x="730" y="610" font-family="system-ui, sans-serif" font-size="14" font-weight="700" fill="#FFFFFF" text-anchor="middle">Vehicle «abstract»</text>
  <line x1="660" y1="625" x2="800" y2="625" stroke="#FBBF24" stroke-width="1"/>
  <text x="660" y="645" font-family="monospace" font-size="10" fill="#FEF3C7">- licensePlate: string</text>
  
  <!-- Vehicle Types -->
  <rect x="620" y="700" width="80" height="50" rx="6" fill="#27272A" stroke="#F59E0B" stroke-width="2"/>
  <text x="660" y="730" font-family="system-ui, sans-serif" font-size="11" font-weight="600" fill="#F59E0B" text-anchor="middle">Bike</text>
  
  <rect x="720" y="700" width="80" height="50" rx="6" fill="#27272A" stroke="#F59E0B" stroke-width="2"/>
  <text x="760" y="730" font-family="system-ui, sans-serif" font-size="11" font-weight="600" fill="#F59E0B" text-anchor="middle">Car</text>
  
  <rect x="820" y="700" width="80" height="50" rx="6" fill="#27272A" stroke="#F59E0B" stroke-width="2"/>
  <text x="860" y="730" font-family="system-ui, sans-serif" font-size="11" font-weight="600" fill="#F59E0B" text-anchor="middle">Truck</text>
  
  <!-- Ticket Class -->
  <rect x="860" y="440" width="140" height="80" rx="8" fill="#EF4444"/>
  <text x="930" y="470" font-family="system-ui, sans-serif" font-size="14" font-weight="700" fill="#FFFFFF" text-anchor="middle">Ticket</text>
  <line x1="880" y1="485" x2="980" y2="485" stroke="#FCA5A5" stroke-width="1"/>
  <text x="880" y="505" font-family="monospace" font-size="10" fill="#FEE2E2">- entryTime: Date</text>
  
  <!-- Relationships lines -->
  <line x1="200" y1="580" x2="420" y2="540" stroke="#71717A" stroke-width="1"/>
  <line x1="440" y1="540" x2="440" y2="580" stroke="#71717A" stroke-width="1"/>
  <line x1="640" y1="490" x2="860" y2="490" stroke="#71717A" stroke-width="1"/>
  <line x1="310" y1="700" x2="370" y2="660" stroke="#71717A" stroke-width="1"/>
  <line x1="430" y1="700" x2="430" y2="660" stroke="#71717A" stroke-width="1"/>
  <line x1="550" y1="700" x2="490" y2="660" stroke="#71717A" stroke-width="1"/>
  <line x1="660" y1="700" x2="700" y2="660" stroke="#71717A" stroke-width="1"/>
  <line x1="760" y1="700" x2="730" y2="660" stroke="#71717A" stroke-width="1"/>
  <line x1="860" y1="700" x2="780" y2="660" stroke="#71717A" stroke-width="1"/>
  
  <!-- Design Patterns Used -->
  <text x="60" y="810" font-family="system-ui, sans-serif" font-size="18" font-weight="700" fill="#FAFAFA">🧩 Design Patterns Used</text>
  
  <rect x="60" y="840" width="200" height="80" rx="8" fill="#27272A" stroke="#3B82F6" stroke-width="2"/>
  <text x="160" y="875" font-family="system-ui, sans-serif" font-size="14" font-weight="600" fill="#3B82F6" text-anchor="middle">Singleton</text>
  <text x="160" y="900" font-family="system-ui, sans-serif" font-size="11" fill="#A1A1AA" text-anchor="middle">One ParkingLot instance</text>
  
  <rect x="280" y="840" width="200" height="80" rx="8" fill="#27272A" stroke="#A855F7" stroke-width="2"/>
  <text x="380" y="875" font-family="system-ui, sans-serif" font-size="14" font-weight="600" fill="#A855F7" text-anchor="middle">Strategy</text>
  <text x="380" y="900" font-family="system-ui, sans-serif" font-size="11" fill="#A1A1AA" text-anchor="middle">Pricing strategies</text>
  
  <rect x="500" y="840" width="200" height="80" rx="8" fill="#27272A" stroke="#10B981" stroke-width="2"/>
  <text x="600" y="875" font-family="system-ui, sans-serif" font-size="14" font-weight="600" fill="#10B981" text-anchor="middle">Factory</text>
  <text x="600" y="900" font-family="system-ui, sans-serif" font-size="11" fill="#A1A1AA" text-anchor="middle">Create spots/vehicles</text>
  
  <rect x="720" y="840" width="200" height="80" rx="8" fill="#27272A" stroke="#F59E0B" stroke-width="2"/>
  <text x="820" y="875" font-family="system-ui, sans-serif" font-size="14" font-weight="600" fill="#F59E0B" text-anchor="middle">Observer</text>
  <text x="820" y="900" font-family="system-ui, sans-serif" font-size="11" fill="#A1A1AA" text-anchor="middle">Notify on availability</text>
  
  <!-- Key Questions -->
  <rect x="60" y="940" width="960" height="90" rx="12" fill="#A855F7"/>
  <text x="90" y="975" font-family="system-ui, sans-serif" font-size="14" font-weight="700" fill="#FFFFFF">💡 Key Interview Questions to Ask</text>
  <text x="90" y="1005" font-family="system-ui, sans-serif" font-size="12" fill="#EDE9FE">• Vehicle types? • Spot sizes? • Multiple floors/entry points? • Pricing model (hourly/daily)? • Payment methods?</text>
  
  <!-- Footer -->
  <text x="540" y="1060" font-family="system-ui, sans-serif" font-size="14" fill="#52525B" text-anchor="middle">@devweekends</text>
</svg>