<svg width="1080" height="1080" viewBox="0 0 1080 1080" fill="none" xmlns="http://www.w3.org/2000/svg">
  <!-- Background -->
  <rect width="1080" height="1080" fill="#18181B"/>
  
  <!-- Header -->
  <text x="60" y="80" font-family="system-ui, sans-serif" font-size="14" font-weight="600" fill="#FAFAFA" letter-spacing="3">DEV WEEKENDS</text>
  
  <!-- Topic Tag -->
  <rect x="60" y="110" width="120" height="36" rx="18" fill="#A855F7"/>
  <text x="120" y="134" font-family="system-ui, sans-serif" font-size="12" font-weight="600" fill="#FAFAFA" text-anchor="middle" letter-spacing="2">CASE STUDY</text>
  
  <!-- Title -->
  <text x="60" y="220" font-family="system-ui, sans-serif" font-size="56" font-weight="800" fill="#FAFAFA">Chess</text>
  <text x="60" y="290" font-family="system-ui, sans-serif" font-size="56" font-weight="800" fill="#A855F7">Game</text>
  
  <!-- Subtitle -->
  <text x="60" y="340" font-family="system-ui, sans-serif" font-size="18" fill="#A1A1AA">Polymorphism, composition, and strategy patterns</text>
  
  <!-- Core Classes -->
  <text x="60" y="400" font-family="system-ui, sans-serif" font-size="20" font-weight="700" fill="#FAFAFA">📐 Class Hierarchy</text>
  
  <!-- Piece Interface -->
  <rect x="380" y="430" width="300" height="120" rx="12" fill="#27272A" stroke="#3B82F6" stroke-width="2"/>
  <rect x="380" y="430" width="300" height="35" rx="12" fill="#3B82F6"/>
  <text x="530" y="455" font-family="system-ui, sans-serif" font-size="13" font-weight="700" fill="#FFFFFF" text-anchor="middle">«abstract» Piece</text>
  
  <text x="400" y="485" font-family="monospace" font-size="10" fill="#A1A1AA">- color: Color</text>
  <text x="400" y="502" font-family="monospace" font-size="10" fill="#A1A1AA">- position: Position</text>
  <line x1="400" y1="512" x2="660" y2="512" stroke="#3F3F46"/>
  <text x="400" y="530" font-family="monospace" font-size="10" fill="#60A5FA">+ getValidMoves(): List&lt;Move&gt;</text>
  <text x="400" y="547" font-family="monospace" font-size="10" fill="#60A5FA">+ move(to: Position)</text>
  
  <!-- Concrete Pieces -->
  <rect x="60" y="580" width="130" height="60" rx="8" fill="#27272A" stroke="#A855F7" stroke-width="1"/>
  <text x="125" y="605" font-family="system-ui, sans-serif" font-size="12" font-weight="600" fill="#A855F7" text-anchor="middle">King ♔</text>
  <text x="125" y="625" font-family="system-ui, sans-serif" font-size="9" fill="#71717A" text-anchor="middle">1 square any dir</text>
  
  <rect x="210" y="580" width="130" height="60" rx="8" fill="#27272A" stroke="#A855F7" stroke-width="1"/>
  <text x="275" y="605" font-family="system-ui, sans-serif" font-size="12" font-weight="600" fill="#A855F7" text-anchor="middle">Queen ♕</text>
  <text x="275" y="625" font-family="system-ui, sans-serif" font-size="9" fill="#71717A" text-anchor="middle">Any direction</text>
  
  <rect x="360" y="580" width="130" height="60" rx="8" fill="#27272A" stroke="#A855F7" stroke-width="1"/>
  <text x="425" y="605" font-family="system-ui, sans-serif" font-size="12" font-weight="600" fill="#A855F7" text-anchor="middle">Rook ♖</text>
  <text x="425" y="625" font-family="system-ui, sans-serif" font-size="9" fill="#71717A" text-anchor="middle">Horizontal/Vertical</text>
  
  <rect x="510" y="580" width="130" height="60" rx="8" fill="#27272A" stroke="#A855F7" stroke-width="1"/>
  <text x="575" y="605" font-family="system-ui, sans-serif" font-size="12" font-weight="600" fill="#A855F7" text-anchor="middle">Bishop ♗</text>
  <text x="575" y="625" font-family="system-ui, sans-serif" font-size="9" fill="#71717A" text-anchor="middle">Diagonal</text>
  
  <rect x="660" y="580" width="130" height="60" rx="8" fill="#27272A" stroke="#A855F7" stroke-width="1"/>
  <text x="725" y="605" font-family="system-ui, sans-serif" font-size="12" font-weight="600" fill="#A855F7" text-anchor="middle">Knight ♘</text>
  <text x="725" y="625" font-family="system-ui, sans-serif" font-size="9" fill="#71717A" text-anchor="middle">L-shaped</text>
  
  <rect x="810" y="580" width="130" height="60" rx="8" fill="#27272A" stroke="#A855F7" stroke-width="1"/>
  <text x="875" y="605" font-family="system-ui, sans-serif" font-size="12" font-weight="600" fill="#A855F7" text-anchor="middle">Pawn ♙</text>
  <text x="875" y="625" font-family="system-ui, sans-serif" font-size="9" fill="#71717A" text-anchor="middle">Forward only</text>
  
  <!-- Inheritance lines -->
  <line x1="125" y1="575" x2="430" y2="555" stroke="#71717A" stroke-width="1"/>
  <line x1="275" y1="575" x2="430" y2="555" stroke="#71717A" stroke-width="1"/>
  <line x1="425" y1="575" x2="530" y2="555" stroke="#71717A" stroke-width="1"/>
  <line x1="575" y1="575" x2="530" y2="555" stroke="#71717A" stroke-width="1"/>
  <line x1="725" y1="575" x2="630" y2="555" stroke="#71717A" stroke-width="1"/>
  <line x1="875" y1="575" x2="630" y2="555" stroke="#71717A" stroke-width="1"/>
  
  <!-- Board and Game Classes -->
  <rect x="60" y="670" width="280" height="130" rx="12" fill="#27272A" stroke="#10B981" stroke-width="2"/>
  <rect x="60" y="670" width="280" height="35" rx="12" fill="#10B981"/>
  <text x="200" y="695" font-family="system-ui, sans-serif" font-size="13" font-weight="700" fill="#FFFFFF" text-anchor="middle">Board</text>
  
  <text x="80" y="725" font-family="monospace" font-size="10" fill="#A1A1AA">- cells: Cell[8][8]</text>
  <text x="80" y="742" font-family="monospace" font-size="10" fill="#A1A1AA">- pieces: Map&lt;Position, Piece&gt;</text>
  <line x1="80" y1="752" x2="320" y2="752" stroke="#3F3F46"/>
  <text x="80" y="770" font-family="monospace" font-size="10" fill="#6EE7B7">+ getPieceAt(pos)</text>
  <text x="80" y="787" font-family="monospace" font-size="10" fill="#6EE7B7">+ movePiece(from, to)</text>
  
  <rect x="360" y="670" width="280" height="130" rx="12" fill="#27272A" stroke="#F59E0B" stroke-width="2"/>
  <rect x="360" y="670" width="280" height="35" rx="12" fill="#F59E0B"/>
  <text x="500" y="695" font-family="system-ui, sans-serif" font-size="13" font-weight="700" fill="#FFFFFF" text-anchor="middle">Game</text>
  
  <text x="380" y="725" font-family="monospace" font-size="10" fill="#A1A1AA">- board: Board</text>
  <text x="380" y="742" font-family="monospace" font-size="10" fill="#A1A1AA">- currentTurn: Color</text>
  <text x="380" y="759" font-family="monospace" font-size="10" fill="#A1A1AA">- gameState: GameState</text>
  <line x1="380" y1="769" x2="620" y2="769" stroke="#3F3F46"/>
  <text x="380" y="787" font-family="monospace" font-size="10" fill="#FCD34D">+ makeMove(), isCheck()</text>
  
  <rect x="660" y="670" width="280" height="130" rx="12" fill="#27272A" stroke="#EC4899" stroke-width="2"/>
  <rect x="660" y="670" width="280" height="35" rx="12" fill="#EC4899"/>
  <text x="800" y="695" font-family="system-ui, sans-serif" font-size="13" font-weight="700" fill="#FFFFFF" text-anchor="middle">Move</text>
  
  <text x="680" y="725" font-family="monospace" font-size="10" fill="#A1A1AA">- from: Position</text>
  <text x="680" y="742" font-family="monospace" font-size="10" fill="#A1A1AA">- to: Position</text>
  <text x="680" y="759" font-family="monospace" font-size="10" fill="#A1A1AA">- piece: Piece</text>
  <line x1="680" y1="769" x2="920" y2="769" stroke="#3F3F46"/>
  <text x="680" y="787" font-family="monospace" font-size="10" fill="#F472B6">+ isValid(), execute()</text>
  
  <!-- Game Flow -->
  <rect x="60" y="820" width="960" height="140" rx="16" fill="#27272A"/>
  <text x="90" y="860" font-family="system-ui, sans-serif" font-size="18" font-weight="700" fill="#FAFAFA">🔄 Game Flow</text>
  
  <!-- Flow steps -->
  <rect x="100" y="885" width="120" height="50" rx="8" fill="#3B82F6"/>
  <text x="160" y="915" font-family="system-ui, sans-serif" font-size="11" font-weight="600" fill="#FFFFFF" text-anchor="middle">Select Piece</text>
  
  <line x1="220" y1="910" x2="270" y2="910" stroke="#71717A" stroke-width="2"/>
  <polygon points="270,905 280,910 270,915" fill="#71717A"/>
  
  <rect x="285" y="885" width="120" height="50" rx="8" fill="#8B5CF6"/>
  <text x="345" y="915" font-family="system-ui, sans-serif" font-size="11" font-weight="600" fill="#FFFFFF" text-anchor="middle">Get Valid Moves</text>
  
  <line x1="405" y1="910" x2="455" y2="910" stroke="#71717A" stroke-width="2"/>
  <polygon points="455,905 465,910 455,915" fill="#71717A"/>
  
  <rect x="470" y="885" width="120" height="50" rx="8" fill="#10B981"/>
  <text x="530" y="915" font-family="system-ui, sans-serif" font-size="11" font-weight="600" fill="#FFFFFF" text-anchor="middle">Validate Move</text>
  
  <line x1="590" y1="910" x2="640" y2="910" stroke="#71717A" stroke-width="2"/>
  <polygon points="640,905 650,910 640,915" fill="#71717A"/>
  
  <rect x="655" y="885" width="120" height="50" rx="8" fill="#F59E0B"/>
  <text x="715" y="915" font-family="system-ui, sans-serif" font-size="11" font-weight="600" fill="#FFFFFF" text-anchor="middle">Execute Move</text>
  
  <line x1="775" y1="910" x2="825" y2="910" stroke="#71717A" stroke-width="2"/>
  <polygon points="825,905 835,910 825,915" fill="#71717A"/>
  
  <rect x="840" y="885" width="120" height="50" rx="8" fill="#EF4444"/>
  <text x="900" y="915" font-family="system-ui, sans-serif" font-size="11" font-weight="600" fill="#FFFFFF" text-anchor="middle">Check State</text>
  
  <!-- Design Patterns -->
  <rect x="60" y="980" width="960" height="60" rx="12" fill="#1F2937"/>
  <text x="90" y="1018" font-family="system-ui, sans-serif" font-size="14" fill="#A1A1AA">🎨 <tspan fill="#FAFAFA" font-weight="600">Design Patterns:</tspan> Strategy (move validation) • Factory (piece creation) • Observer (game events) • Command (move history/undo)</text>
  
  <!-- Footer -->
  <text x="540" y="1060" font-family="system-ui, sans-serif" font-size="14" fill="#52525B" text-anchor="middle">@devweekends</text>
</svg>