<svg width="1080" height="1080" viewBox="0 0 1080 1080" fill="none" xmlns="http://www.w3.org/2000/svg">
  <!-- Background -->
  <rect width="1080" height="1080" fill="#18181B"/>
  
  <!-- Header -->
  <text x="60" y="80" font-family="system-ui, sans-serif" font-size="14" font-weight="600" fill="#FAFAFA" letter-spacing="3">DEV WEEKENDS</text>
  
  <!-- Topic Tag -->
  <rect x="60" y="110" width="120" height="36" rx="18" fill="#A855F7"/>
  <text x="120" y="134" font-family="system-ui, sans-serif" font-size="12" font-weight="600" fill="#FAFAFA" text-anchor="middle" letter-spacing="2">CASE STUDY</text>
  
  <!-- Title -->
  <text x="60" y="220" font-family="system-ui, sans-serif" font-size="56" font-weight="800" fill="#FAFAFA">Elevator</text>
  <text x="60" y="290" font-family="system-ui, sans-serif" font-size="56" font-weight="800" fill="#A855F7">System</text>
  
  <!-- Subtitle -->
  <text x="60" y="340" font-family="system-ui, sans-serif" font-size="18" fill="#A1A1AA">State pattern meets scheduling algorithms</text>
  
  <!-- Class Diagram -->
  <text x="60" y="400" font-family="system-ui, sans-serif" font-size="20" font-weight="700" fill="#FAFAFA">📐 Core Classes</text>
  
  <!-- ElevatorSystem -->
  <rect x="60" y="430" width="300" height="160" rx="12" fill="#27272A" stroke="#3B82F6" stroke-width="2"/>
  <rect x="60" y="430" width="300" height="40" rx="12" fill="#3B82F6"/>
  <text x="210" y="457" font-family="system-ui, sans-serif" font-size="14" font-weight="700" fill="#FFFFFF" text-anchor="middle">ElevatorSystem</text>
  
  <text x="80" y="490" font-family="monospace" font-size="11" fill="#A1A1AA">- elevators: List&lt;Elevator&gt;</text>
  <text x="80" y="510" font-family="monospace" font-size="11" fill="#A1A1AA">- scheduler: Scheduler</text>
  <line x1="80" y1="520" x2="340" y2="520" stroke="#3F3F46"/>
  <text x="80" y="540" font-family="monospace" font-size="11" fill="#60A5FA">+ requestElevator(floor, dir)</text>
  <text x="80" y="560" font-family="monospace" font-size="11" fill="#60A5FA">+ assignElevator(request)</text>
  <text x="80" y="580" font-family="monospace" font-size="11" fill="#60A5FA">+ getOptimalElevator()</text>
  
  <!-- Elevator -->
  <rect x="390" y="430" width="300" height="160" rx="12" fill="#27272A" stroke="#A855F7" stroke-width="2"/>
  <rect x="390" y="430" width="300" height="40" rx="12" fill="#A855F7"/>
  <text x="540" y="457" font-family="system-ui, sans-serif" font-size="14" font-weight="700" fill="#FFFFFF" text-anchor="middle">Elevator</text>
  
  <text x="410" y="490" font-family="monospace" font-size="11" fill="#A1A1AA">- id: int</text>
  <text x="410" y="510" font-family="monospace" font-size="11" fill="#A1A1AA">- currentFloor: int</text>
  <text x="410" y="530" font-family="monospace" font-size="11" fill="#A1A1AA">- state: ElevatorState</text>
  <line x1="410" y1="545" x2="670" y2="545" stroke="#3F3F46"/>
  <text x="410" y="565" font-family="monospace" font-size="11" fill="#C4B5FD">+ move(), openDoor()</text>
  <text x="410" y="585" font-family="monospace" font-size="11" fill="#C4B5FD">+ addStop(), getNextStop()</text>
  
  <!-- ElevatorState -->
  <rect x="720" y="430" width="300" height="160" rx="12" fill="#27272A" stroke="#10B981" stroke-width="2"/>
  <rect x="720" y="430" width="300" height="40" rx="12" fill="#10B981"/>
  <text x="870" y="457" font-family="system-ui, sans-serif" font-size="14" font-weight="700" fill="#FFFFFF" text-anchor="middle">«interface» ElevatorState</text>
  
  <text x="740" y="495" font-family="monospace" font-size="11" fill="#6EE7B7">+ handleRequest(elevator)</text>
  <text x="740" y="520" font-family="monospace" font-size="11" fill="#6EE7B7">+ move(elevator)</text>
  <text x="740" y="545" font-family="monospace" font-size="11" fill="#6EE7B7">+ openDoor(elevator)</text>
  <text x="740" y="570" font-family="monospace" font-size="11" fill="#6EE7B7">+ closeDoor(elevator)</text>
  
  <!-- State Classes -->
  <rect x="720" y="610" width="140" height="50" rx="6" fill="#27272A" stroke="#10B981" stroke-width="1"/>
  <text x="790" y="640" font-family="system-ui, sans-serif" font-size="11" fill="#10B981" text-anchor="middle">IdleState</text>
  
  <rect x="870" y="610" width="140" height="50" rx="6" fill="#27272A" stroke="#10B981" stroke-width="1"/>
  <text x="940" y="640" font-family="system-ui, sans-serif" font-size="11" fill="#10B981" text-anchor="middle">MovingState</text>
  
  <rect x="720" y="670" width="140" height="50" rx="6" fill="#27272A" stroke="#10B981" stroke-width="1"/>
  <text x="790" y="700" font-family="system-ui, sans-serif" font-size="11" fill="#10B981" text-anchor="middle">DoorOpenState</text>
  
  <rect x="870" y="670" width="140" height="50" rx="6" fill="#27272A" stroke="#10B981" stroke-width="1"/>
  <text x="940" y="700" font-family="system-ui, sans-serif" font-size="11" fill="#10B981" text-anchor="middle">MaintenanceState</text>
  
  <!-- Scheduling Algorithms -->
  <rect x="60" y="610" width="620" height="130" rx="12" fill="#27272A"/>
  <text x="90" y="645" font-family="system-ui, sans-serif" font-size="16" font-weight="700" fill="#FAFAFA">🎯 Scheduling Algorithms</text>
  
  <rect x="90" y="665" width="130" height="55" rx="8" fill="#1F2937" stroke="#F59E0B" stroke-width="1"/>
  <text x="155" y="690" font-family="system-ui, sans-serif" font-size="11" font-weight="600" fill="#F59E0B" text-anchor="middle">FCFS</text>
  <text x="155" y="708" font-family="system-ui, sans-serif" font-size="9" fill="#71717A" text-anchor="middle">First Come First</text>
  
  <rect x="235" y="665" width="130" height="55" rx="8" fill="#1F2937" stroke="#3B82F6" stroke-width="1"/>
  <text x="300" y="690" font-family="system-ui, sans-serif" font-size="11" font-weight="600" fill="#3B82F6" text-anchor="middle">SCAN</text>
  <text x="300" y="708" font-family="system-ui, sans-serif" font-size="9" fill="#71717A" text-anchor="middle">Elevator Algorithm</text>
  
  <rect x="380" y="665" width="130" height="55" rx="8" fill="#1F2937" stroke="#10B981" stroke-width="1"/>
  <text x="445" y="690" font-family="system-ui, sans-serif" font-size="11" font-weight="600" fill="#10B981" text-anchor="middle">LOOK ⭐</text>
  <text x="445" y="708" font-family="system-ui, sans-serif" font-size="9" fill="#71717A" text-anchor="middle">Optimized SCAN</text>
  
  <rect x="525" y="665" width="130" height="55" rx="8" fill="#1F2937" stroke="#EC4899" stroke-width="1"/>
  <text x="590" y="690" font-family="system-ui, sans-serif" font-size="11" font-weight="600" fill="#EC4899" text-anchor="middle">Shortest Seek</text>
  <text x="590" y="708" font-family="system-ui, sans-serif" font-size="9" fill="#71717A" text-anchor="middle">SSTF</text>
  
  <!-- State Flow -->
  <rect x="60" y="760" width="960" height="200" rx="16" fill="#27272A"/>
  <text x="90" y="800" font-family="system-ui, sans-serif" font-size="18" font-weight="700" fill="#FAFAFA">🔄 State Transitions</text>
  
  <!-- States -->
  <rect x="100" y="840" width="100" height="50" rx="8" fill="#6366F1"/>
  <text x="150" y="870" font-family="system-ui, sans-serif" font-size="12" font-weight="600" fill="#FFFFFF" text-anchor="middle">IDLE</text>
  
  <rect x="300" y="840" width="100" height="50" rx="8" fill="#F59E0B"/>
  <text x="350" y="870" font-family="system-ui, sans-serif" font-size="12" font-weight="600" fill="#FFFFFF" text-anchor="middle">MOVING</text>
  
  <rect x="500" y="840" width="120" height="50" rx="8" fill="#10B981"/>
  <text x="560" y="870" font-family="system-ui, sans-serif" font-size="12" font-weight="600" fill="#FFFFFF" text-anchor="middle">DOOR_OPEN</text>
  
  <rect x="720" y="840" width="120" height="50" rx="8" fill="#EF4444"/>
  <text x="780" y="870" font-family="system-ui, sans-serif" font-size="12" font-weight="600" fill="#FFFFFF" text-anchor="middle">MAINTENANCE</text>
  
  <!-- Arrows -->
  <line x1="200" y1="865" x2="290" y2="865" stroke="#71717A" stroke-width="2"/>
  <polygon points="290,860 300,865 290,870" fill="#71717A"/>
  <text x="245" y="855" font-family="system-ui, sans-serif" font-size="9" fill="#71717A" text-anchor="middle">request</text>
  
  <line x1="400" y1="865" x2="490" y2="865" stroke="#71717A" stroke-width="2"/>
  <polygon points="490,860 500,865 490,870" fill="#71717A"/>
  <text x="445" y="855" font-family="system-ui, sans-serif" font-size="9" fill="#71717A" text-anchor="middle">arrived</text>
  
  <path d="M560 890 Q560 920 350 920 Q150 920 150 890" stroke="#71717A" stroke-width="2" fill="none"/>
  <polygon points="145,890 150,880 155,890" fill="#71717A"/>
  <text x="350" y="935" font-family="system-ui, sans-serif" font-size="9" fill="#71717A" text-anchor="middle">door closed + no requests</text>
  
  <line x1="620" y1="865" x2="710" y2="865" stroke="#71717A" stroke-width="2" stroke-dasharray="4"/>
  <polygon points="710,860 720,865 710,870" fill="#71717A"/>
  <text x="665" y="855" font-family="system-ui, sans-serif" font-size="9" fill="#EF4444" text-anchor="middle">error</text>
  
  <!-- Design Patterns Used -->
  <rect x="60" y="980" width="960" height="60" rx="12" fill="#1F2937"/>
  <text x="90" y="1018" font-family="system-ui, sans-serif" font-size="14" fill="#A1A1AA">🎨 <tspan fill="#FAFAFA" font-weight="600">Design Patterns:</tspan> State (elevator behavior) • Strategy (scheduling) • Singleton (controller) • Observer (floor buttons)</text>
  
  <!-- Footer -->
  <text x="540" y="1060" font-family="system-ui, sans-serif" font-size="14" fill="#52525B" text-anchor="middle">@devweekends</text>
</svg>