<svg width="1080" height="1080" viewBox="0 0 1080 1080" fill="none" xmlns="http://www.w3.org/2000/svg">
  <rect width="1080" height="1080" fill="#18181B"/>
  
  <text x="60" y="80" font-family="system-ui, sans-serif" font-size="14" font-weight="600" fill="#FAFAFA" letter-spacing="3">DEV WEEKENDS</text>
  
  <rect x="60" y="140" width="220" height="40" fill="#EC4899"/>
  <text x="170" y="168" font-family="system-ui, sans-serif" font-size="12" font-weight="600" fill="#FAFAFA" text-anchor="middle" letter-spacing="2">AI ENGINEERING</text>
  
  <text x="60" y="280" font-family="system-ui, sans-serif" font-size="48" font-weight="700" fill="#FAFAFA">Vector</text>
  <text x="60" y="340" font-family="system-ui, sans-serif" font-size="48" font-weight="700" fill="#EC4899">Embeddings</text>
  
  <text x="60" y="400" font-family="system-ui, sans-serif" font-size="18" fill="#A1A1AA">Semantic meaning as geometric distance</text>
  
  <!-- Main diagram area -->
  <rect x="60" y="440" width="960" height="520" fill="#27272A" rx="8"/>
  
  <!-- Axes -->
  <line x1="100" y1="900" x2="900" y2="900" stroke="#52525B" stroke-width="2"/>
  <line x1="100" y1="900" x2="100" y2="500" stroke="#52525B" stroke-width="2"/>
  
  <!-- Points -->
  
  <!-- King -->
  <circle cx="700" cy="550" r="12" fill="#3B82F6"/>
  <text x="720" y="555" font-family="system-ui, sans-serif" font-size="14" font-weight="600" fill="#FAFAFA">King</text>
  
  <!-- Queen -->
  <circle cx="700" cy="750" r="12" fill="#EC4899"/>
  <text x="720" y="755" font-family="system-ui, sans-serif" font-size="14" font-weight="600" fill="#FAFAFA">Queen</text>
  
  <!-- Man -->
  <circle cx="300" cy="550" r="12" fill="#3B82F6"/>
  <text x="320" y="555" font-family="system-ui, sans-serif" font-size="14" font-weight="600" fill="#FAFAFA">Man</text>
  
  <!-- Woman -->
  <circle cx="300" cy="750" r="12" fill="#EC4899"/>
  <text x="320" y="755" font-family="system-ui, sans-serif" font-size="14" font-weight="600" fill="#FAFAFA">Woman</text>
  
  <!-- Relationships -->
  <line x1="300" y1="550" x2="300" y2="750" stroke="#FAFAFA" stroke-width="2" stroke-dasharray="4,4"/>
  <text x="280" y="650" font-family="system-ui, sans-serif" font-size="12" fill="#A1A1AA" text-anchor="end" transform="rotate(-90 280,650)">Gender</text>
  
  <line x1="700" y1="550" x2="700" y2="750" stroke="#FAFAFA" stroke-width="2" stroke-dasharray="4,4"/>
  
  <line x1="300" y1="550" x2="700" y2="550" stroke="#FAFAFA" stroke-width="2" stroke-dasharray="4,4"/>
  <text x="500" y="540" font-family="system-ui, sans-serif" font-size="12" fill="#A1A1AA" text-anchor="middle">Royalty</text>
  
  <line x1="300" y1="750" x2="700" y2="750" stroke="#FAFAFA" stroke-width="2" stroke-dasharray="4,4"/>
  
  <!-- Fruits Cluster -->
  <circle cx="200" cy="850" r="8" fill="#10B981"/>
  <text x="215" y="855" font-family="system-ui, sans-serif" font-size="12" fill="#E5E5E5">Apple</text>
  
  <circle cx="230" cy="880" r="8" fill="#10B981"/>
  <text x="245" y="885" font-family="system-ui, sans-serif" font-size="12" fill="#E5E5E5">Orange</text>

  <!-- Insight -->
  <rect x="60" y="980" width="960" height="40" fill="#27272A" rx="8"/>
  <text x="540" y="1007" font-family="system-ui, sans-serif" font-size="14" fill="#A1A1AA" text-anchor="middle">Vector Arithmetic: <tspan fill="#3B82F6">King</tspan> - <tspan fill="#3B82F6">Man</tspan> + <tspan fill="#EC4899">Woman</tspan> ≈ <tspan fill="#EC4899">Queen</tspan></text>
  
  <text x="540" y="1050" font-family="system-ui, sans-serif" font-size="14" fill="#52525B" text-anchor="middle">@devweekends</text>
</svg>
