<svg width="1080" height="1080" viewBox="0 0 1080 1080" fill="none" xmlns="http://www.w3.org/2000/svg">
  <rect width="1080" height="1080" fill="#18181B"/>
  
  <text x="60" y="80" font-family="system-ui, sans-serif" font-size="14" font-weight="600" fill="#FAFAFA" letter-spacing="3">DEV WEEKENDS</text>
  
  <rect x="60" y="140" width="220" height="40" fill="#F97316"/>
  <text x="170" y="168" font-family="system-ui, sans-serif" font-size="12" font-weight="600" fill="#FAFAFA" text-anchor="middle" letter-spacing="2">LINUX INTERNALS</text>
  
  <text x="60" y="280" font-family="system-ui, sans-serif" font-size="48" font-weight="700" fill="#FAFAFA">Memory</text>
  <text x="60" y="340" font-family="system-ui, sans-serif" font-size="48" font-weight="700" fill="#F97316">Fragmentation</text>
  
  <text x="60" y="400" font-family="system-ui, sans-serif" font-size="18" fill="#A1A1AA">How compaction creates contiguous free blocks</text>
  
  <rect x="60" y="440" width="960" height="580" fill="#27272A" rx="8"/>
  
  <text x="540" y="490" font-family="system-ui, sans-serif" font-size="20" font-weight="700" fill="#FAFAFA" text-anchor="middle">Fragmented Memory</text>
  <rect x="100" y="510" width="880" height="80" fill="#3F3F46" rx="4"/>
  
  <rect x="110" y="520" width="80" height="60" fill="#EF4444" rx="2"/>
  <rect x="195" y="520" width="60" height="60" fill="#10B981" rx="2"/>
  <rect x="260" y="520" width="100" height="60" fill="#EF4444" rx="2"/>
  <rect x="365" y="520" width="50" height="60" fill="#10B981" rx="2"/>
  <rect x="420" y="520" width="110" height="60" fill="#EF4444" rx="2"/>
  <rect x="535" y="520" width="80" height="60" fill="#10B981" rx="2"/>
  <rect x="620" y="520" width="70" height="60" fill="#EF4444" rx="2"/>
  <rect x="695" y="520" width="100" height="60" fill="#10B981" rx="2"/>
  <rect x="800" y="520" width="80" height="60" fill="#EF4444" rx="2"/>
  <rect x="885" y="520" width="85" height="60" fill="#10B981" rx="2"/>
  
  <text x="540" y="620" font-family="system-ui, sans-serif" font-size="14" fill="#EF4444" text-anchor="middle">Cannot allocate large contiguous block!</text>
  
  <path d="M 540 660 L 540 700" stroke="#F97316" stroke-width="4" marker-end="url(#arrow-orange)"/>
  <text x="540" y="685" font-family="system-ui, sans-serif" font-size="16" font-weight="700" fill="#F97316" text-anchor="middle">Memory Compaction</text>
  
  <text x="540" y="740" font-family="system-ui, sans-serif" font-size="20" font-weight="700" fill="#FAFAFA" text-anchor="middle">Compacted Memory</text>
  <rect x="100" y="760" width="880" height="80" fill="#3F3F46" rx="4"/>
  
  <rect x="110" y="770" width="80" height="60" fill="#EF4444" rx="2"/>
  <rect x="195" y="770" width="100" height="60" fill="#EF4444" rx="2"/>
  <rect x="300" y="770" width="110" height="60" fill="#EF4444" rx="2"/>
  <rect x="415" y="770" width="70" height="60" fill="#EF4444" rx="2"/>
  <rect x="490" y="770" width="80" height="60" fill="#EF4444" rx="2"/>
  
  <rect x="575" y="770" width="395" height="60" fill="#10B981" rx="2"/>
  <text x="772" y="805" font-family="system-ui, sans-serif" font-size="14" font-weight="700" fill="#FAFAFA" text-anchor="middle">Large Contiguous Free Block</text>
  
  <text x="540" y="870" font-family="system-ui, sans-serif" font-size="14" fill="#10B981" text-anchor="middle">Ready for huge page allocation</text>
  
  <rect x="100" y="920" width="880" height="80" fill="#18181B" rx="4"/>
  <text x="540" y="950" font-family="system-ui, sans-serif" font-size="16" font-weight="700" fill="#FAFAFA" text-anchor="middle">Legend</text>
  <rect x="300" y="965" width="30" height="30" fill="#EF4444" rx="2"/>
  <text x="340" y="985" font-family="system-ui, sans-serif" font-size="14" fill="#FAFAFA">Used Memory</text>
  <rect x="550" y="965" width="30" height="30" fill="#10B981" rx="2"/>
  <text x="590" y="985" font-family="system-ui, sans-serif" font-size="14" fill="#FAFAFA">Free Memory</text>
  
  <text x="540" y="1060" font-family="system-ui, sans-serif" font-size="14" fill="#52525B" text-anchor="middle">@devweekends</text>
  
  <defs>
    <marker id="arrow-orange" markerWidth="10" markerHeight="10" refX="9" refY="3" orient="auto" markerUnits="strokeWidth">
      <path d="M0,0 L0,6 L9,3 z" fill="#F97316"/>
    </marker>
  </defs>
</svg>
