<svg width="1080" height="1080" viewBox="0 0 1080 1080" fill="none" xmlns="http://www.w3.org/2000/svg">
  <rect width="1080" height="1080" fill="#18181B"/>
  
  <text x="60" y="80" font-family="system-ui, sans-serif" font-size="14" font-weight="600" fill="#FAFAFA" letter-spacing="3">DEV WEEKENDS</text>
  
  <rect x="60" y="140" width="200" height="40" fill="#F97316"/>
  <text x="160" y="168" font-family="system-ui, sans-serif" font-size="12" font-weight="600" fill="#FAFAFA" text-anchor="middle" letter-spacing="2">JAVA CRASH COURSE</text>
  
  <text x="60" y="280" font-family="system-ui, sans-serif" font-size="48" font-weight="700" fill="#FAFAFA">Collections</text>
  <text x="60" y="340" font-family="system-ui, sans-serif" font-size="48" font-weight="700" fill="#F97316">Framework</text>
  
  <text x="60" y="400" font-family="system-ui, sans-serif" font-size="18" fill="#A1A1AA">Complete hierarchy of Java collections</text>
  
  <!-- Main Diagram -->
  <rect x="60" y="440" width="960" height="520" fill="#27272A" rx="8"/>
  
  <!-- Iterable -->
  <rect x="420" y="470" width="240" height="50" fill="#8B5CF6" rx="6"/>
  <text x="540" y="502" font-family="system-ui, sans-serif" font-size="16" font-weight="700" fill="#FAFAFA" text-anchor="middle">Iterable&lt;E&gt;</text>
  
  <line x1="540" y1="520" x2="540" y2="545" stroke="#FAFAFA" stroke-width="2"/>
  
  <!-- Collection -->
  <rect x="420" y="545" width="240" height="50" fill="#A855F7" rx="6"/>
  <text x="540" y="577" font-family="system-ui, sans-serif" font-size="16" font-weight="700" fill="#FAFAFA" text-anchor="middle">Collection&lt;E&gt;</text>
  
  <!-- Branch lines -->
  <line x1="540" y1="595" x2="540" y2="620" stroke="#FAFAFA" stroke-width="2"/>
  <line x1="200" y1="620" x2="880" y2="620" stroke="#FAFAFA" stroke-width="2"/>
  <line x1="200" y1="620" x2="200" y2="650" stroke="#FAFAFA" stroke-width="2"/>
  <line x1="540" y1="620" x2="540" y2="650" stroke="#FAFAFA" stroke-width="2"/>
  <line x1="880" y1="620" x2="880" y2="650" stroke="#FAFAFA" stroke-width="2"/>
  
  <!-- List Interface -->
  <rect x="100" y="650" width="200" height="50" fill="#3B82F6" rx="6"/>
  <text x="200" y="682" font-family="system-ui, sans-serif" font-size="16" font-weight="700" fill="#FAFAFA" text-anchor="middle">List&lt;E&gt;</text>
  
  <!-- List implementations -->
  <line x1="200" y1="700" x2="200" y2="730" stroke="#FAFAFA" stroke-width="1"/>
  <line x1="100" y1="730" x2="300" y2="730" stroke="#FAFAFA" stroke-width="1"/>
  <line x1="100" y1="730" x2="100" y2="750" stroke="#FAFAFA" stroke-width="1"/>
  <line x1="200" y1="730" x2="200" y2="750" stroke="#FAFAFA" stroke-width="1"/>
  <line x1="300" y1="730" x2="300" y2="750" stroke="#FAFAFA" stroke-width="1"/>
  
  <rect x="60" y="750" width="100" height="45" fill="#1E40AF" rx="4"/>
  <text x="110" y="778" font-family="system-ui, sans-serif" font-size="11" fill="#FAFAFA" text-anchor="middle">ArrayList</text>
  
  <rect x="170" y="750" width="100" height="45" fill="#1E40AF" rx="4"/>
  <text x="220" y="778" font-family="system-ui, sans-serif" font-size="11" fill="#FAFAFA" text-anchor="middle">LinkedList</text>
  
  <rect x="280" y="750" width="100" height="45" fill="#1E40AF" rx="4"/>
  <text x="330" y="778" font-family="system-ui, sans-serif" font-size="11" fill="#FAFAFA" text-anchor="middle">Vector</text>
  
  <!-- List characteristics -->
  <text x="200" y="815" font-family="system-ui, sans-serif" font-size="10" fill="#93C5FD" text-anchor="middle">Ordered • Indexed • Duplicates OK</text>
  
  <!-- Set Interface -->
  <rect x="440" y="650" width="200" height="50" fill="#22C55E" rx="6"/>
  <text x="540" y="682" font-family="system-ui, sans-serif" font-size="16" font-weight="700" fill="#FAFAFA" text-anchor="middle">Set&lt;E&gt;</text>
  
  <!-- Set implementations -->
  <line x1="540" y1="700" x2="540" y2="730" stroke="#FAFAFA" stroke-width="1"/>
  <line x1="440" y1="730" x2="640" y2="730" stroke="#FAFAFA" stroke-width="1"/>
  <line x1="440" y1="730" x2="440" y2="750" stroke="#FAFAFA" stroke-width="1"/>
  <line x1="540" y1="730" x2="540" y2="750" stroke="#FAFAFA" stroke-width="1"/>
  <line x1="640" y1="730" x2="640" y2="750" stroke="#FAFAFA" stroke-width="1"/>
  
  <rect x="390" y="750" width="100" height="45" fill="#166534" rx="4"/>
  <text x="440" y="778" font-family="system-ui, sans-serif" font-size="11" fill="#FAFAFA" text-anchor="middle">HashSet</text>
  
  <rect x="500" y="750" width="100" height="45" fill="#166534" rx="4"/>
  <text x="550" y="778" font-family="system-ui, sans-serif" font-size="11" fill="#FAFAFA" text-anchor="middle">TreeSet</text>
  
  <rect x="610" y="750" width="100" height="45" fill="#166534" rx="4"/>
  <text x="660" y="778" font-family="system-ui, sans-serif" font-size="11" fill="#FAFAFA" text-anchor="middle">LinkedHashSet</text>
  
  <!-- Set characteristics -->
  <text x="540" y="815" font-family="system-ui, sans-serif" font-size="10" fill="#BBF7D0" text-anchor="middle">No Duplicates • Unordered (HashSet)</text>
  
  <!-- Queue Interface -->
  <rect x="780" y="650" width="200" height="50" fill="#F59E0B" rx="6"/>
  <text x="880" y="682" font-family="system-ui, sans-serif" font-size="16" font-weight="700" fill="#FAFAFA" text-anchor="middle">Queue&lt;E&gt;</text>
  
  <!-- Queue implementations -->
  <line x1="880" y1="700" x2="880" y2="730" stroke="#FAFAFA" stroke-width="1"/>
  <line x1="780" y1="730" x2="980" y2="730" stroke="#FAFAFA" stroke-width="1"/>
  <line x1="780" y1="730" x2="780" y2="750" stroke="#FAFAFA" stroke-width="1"/>
  <line x1="880" y1="730" x2="880" y2="750" stroke="#FAFAFA" stroke-width="1"/>
  <line x1="980" y1="730" x2="980" y2="750" stroke="#FAFAFA" stroke-width="1"/>
  
  <rect x="730" y="750" width="100" height="45" fill="#B45309" rx="4"/>
  <text x="780" y="778" font-family="system-ui, sans-serif" font-size="11" fill="#FAFAFA" text-anchor="middle">PriorityQueue</text>
  
  <rect x="840" y="750" width="100" height="45" fill="#B45309" rx="4"/>
  <text x="890" y="778" font-family="system-ui, sans-serif" font-size="11" fill="#FAFAFA" text-anchor="middle">ArrayDeque</text>
  
  <rect x="950" y="750" width="60" height="45" fill="#B45309" rx="4"/>
  <text x="980" y="778" font-family="system-ui, sans-serif" font-size="9" fill="#FAFAFA" text-anchor="middle">LinkedList</text>
  
  <!-- Queue characteristics -->
  <text x="880" y="815" font-family="system-ui, sans-serif" font-size="10" fill="#FDE68A" text-anchor="middle">FIFO • offer/poll/peek</text>
  
  <!-- Map Section (Separate hierarchy) -->
  <rect x="60" y="850" width="960" height="100" fill="#3F3F46" rx="6"/>
  <text x="540" y="885" font-family="system-ui, sans-serif" font-size="16" font-weight="700" fill="#EF4444" text-anchor="middle">Map&lt;K,V&gt; (Not extends Collection)</text>
  
  <rect x="100" y="900" width="110" height="35" fill="#991B1B" rx="4"/>
  <text x="155" y="922" font-family="system-ui, sans-serif" font-size="11" fill="#FAFAFA" text-anchor="middle">HashMap</text>
  
  <rect x="230" y="900" width="110" height="35" fill="#991B1B" rx="4"/>
  <text x="285" y="922" font-family="system-ui, sans-serif" font-size="11" fill="#FAFAFA" text-anchor="middle">TreeMap</text>
  
  <rect x="360" y="900" width="140" height="35" fill="#991B1B" rx="4"/>
  <text x="430" y="922" font-family="system-ui, sans-serif" font-size="11" fill="#FAFAFA" text-anchor="middle">LinkedHashMap</text>
  
  <rect x="520" y="900" width="110" height="35" fill="#991B1B" rx="4"/>
  <text x="575" y="922" font-family="system-ui, sans-serif" font-size="11" fill="#FAFAFA" text-anchor="middle">Hashtable</text>
  
  <rect x="650" y="900" width="160" height="35" fill="#991B1B" rx="4"/>
  <text x="730" y="922" font-family="system-ui, sans-serif" font-size="11" fill="#FAFAFA" text-anchor="middle">ConcurrentHashMap</text>
  
  <text x="880" y="925" font-family="system-ui, sans-serif" font-size="10" fill="#FCA5A5" text-anchor="middle">Key-Value pairs</text>
  
  <!-- Key Insight -->
  <rect x="60" y="970" width="960" height="50" fill="#27272A" rx="8"/>
  <text x="540" y="1002" font-family="system-ui, sans-serif" font-size="14" fill="#A1A1AA" text-anchor="middle">
    <tspan fill="#3B82F6">List</tspan>=ordered+indexed | <tspan fill="#22C55E">Set</tspan>=unique | <tspan fill="#F59E0B">Queue</tspan>=FIFO | <tspan fill="#EF4444">Map</tspan>=key-value
  </text>
  
  <text x="540" y="1060" font-family="system-ui, sans-serif" font-size="14" fill="#52525B" text-anchor="middle">@devweekends</text>
</svg>
