<svg viewBox="0 0 1080 1080" xmlns="http://www.w3.org/2000/svg">
  <rect width="1080" height="1080" fill="#FAFAFA"/>
  
  <!-- Header -->
  <text x="60" y="80" font-family="system-ui, sans-serif" font-size="14" font-weight="600" fill="#18181B" letter-spacing="3">DEV WEEKENDS</text>
  
  <!-- Title -->
  <text x="540" y="160" font-family="system-ui, sans-serif" font-size="42" font-weight="700" fill="#18181B" text-anchor="middle">Real-World Capstone</text>
  <text x="540" y="210" font-family="system-ui, sans-serif" font-size="22" fill="#71717A" text-anchor="middle">E-Commerce Customer Churn Prediction</text>
  
  <!-- Project Dashboard Frame -->
  <rect x="100" y="260" width="880" height="700" rx="20" fill="white" stroke="#E4E4E7" stroke-width="2"/>
  
  <!-- Dashboard Header -->
  <rect x="100" y="260" width="880" height="70" rx="20" fill="#18181B"/>
  <rect x="100" y="300" width="880" height="30" fill="#18181B"/>
  <text x="160" y="305" font-family="system-ui, sans-serif" font-size="22" font-weight="600" fill="white">🛒 ShopSmart Analytics - Churn Dashboard</text>
  <circle cx="920" cy="295" r="10" fill="#22C55E"/>
  <text x="900" y="300" font-family="system-ui, sans-serif" font-size="12" fill="#22C55E" text-anchor="end">LIVE</text>
  
  <!-- KPI Cards Row -->
  <rect x="130" y="360" width="200" height="100" rx="12" fill="#EFF6FF" stroke="#3B82F6" stroke-width="2"/>
  <text x="150" y="395" font-family="system-ui, sans-serif" font-size="14" fill="#3B82F6">Customers At Risk</text>
  <text x="150" y="440" font-family="system-ui, sans-serif" font-size="36" font-weight="700" fill="#3B82F6">2,847</text>
  
  <rect x="350" y="360" width="200" height="100" rx="12" fill="#FEF2F2" stroke="#EF4444" stroke-width="2"/>
  <text x="370" y="395" font-family="system-ui, sans-serif" font-size="14" fill="#EF4444">Predicted Churn Rate</text>
  <text x="370" y="440" font-family="system-ui, sans-serif" font-size="36" font-weight="700" fill="#EF4444">12.3%</text>
  
  <rect x="570" y="360" width="200" height="100" rx="12" fill="#ECFDF5" stroke="#22C55E" stroke-width="2"/>
  <text x="590" y="395" font-family="system-ui, sans-serif" font-size="14" fill="#22C55E">Model Accuracy</text>
  <text x="590" y="440" font-family="system-ui, sans-serif" font-size="36" font-weight="700" fill="#22C55E">94.2%</text>
  
  <rect x="790" y="360" width="160" height="100" rx="12" fill="#FAF5FF" stroke="#A855F7" stroke-width="2"/>
  <text x="810" y="395" font-family="system-ui, sans-serif" font-size="14" fill="#A855F7">Revenue Saved</text>
  <text x="810" y="440" font-family="system-ui, sans-serif" font-size="32" font-weight="700" fill="#A855F7">$1.2M</text>
  
  <!-- Feature Importance Chart -->
  <rect x="130" y="490" width="400" height="250" rx="12" fill="#F9FAFB" stroke="#E4E4E7"/>
  <text x="150" y="520" font-family="system-ui, sans-serif" font-size="16" font-weight="600" fill="#18181B">📊 Top Churn Predictors</text>
  
  <text x="150" y="560" font-family="system-ui, sans-serif" font-size="13" fill="#71717A">Days Since Last Order</text>
  <rect x="290" y="548" width="220" height="18" rx="4" fill="#3B82F6"/>
  
  <text x="150" y="595" font-family="system-ui, sans-serif" font-size="13" fill="#71717A">Complaint History</text>
  <rect x="290" y="583" width="180" height="18" rx="4" fill="#3B82F6" fill-opacity="0.8"/>
  
  <text x="150" y="630" font-family="system-ui, sans-serif" font-size="13" fill="#71717A">Avg Order Value ↓</text>
  <rect x="290" y="618" width="150" height="18" rx="4" fill="#3B82F6" fill-opacity="0.6"/>
  
  <text x="150" y="665" font-family="system-ui, sans-serif" font-size="13" fill="#71717A">App Usage Decline</text>
  <rect x="290" y="653" width="120" height="18" rx="4" fill="#3B82F6" fill-opacity="0.4"/>
  
  <text x="150" y="700" font-family="system-ui, sans-serif" font-size="13" fill="#71717A">Customer Tenure</text>
  <rect x="290" y="688" width="90" height="18" rx="4" fill="#3B82F6" fill-opacity="0.3"/>
  
  <!-- Action Recommendations -->
  <rect x="550" y="490" width="400" height="250" rx="12" fill="#F9FAFB" stroke="#E4E4E7"/>
  <text x="570" y="520" font-family="system-ui, sans-serif" font-size="16" font-weight="600" fill="#18181B">🎯 Recommended Actions</text>
  
  <rect x="570" y="540" width="360" height="55" rx="8" fill="white" stroke="#22C55E"/>
  <text x="590" y="565" font-family="system-ui, sans-serif" font-size="14" font-weight="600" fill="#22C55E">High Priority (847 customers)</text>
  <text x="590" y="583" font-family="system-ui, sans-serif" font-size="12" fill="#71717A">Send 20% discount + free shipping</text>
  
  <rect x="570" y="605" width="360" height="55" rx="8" fill="white" stroke="#F59E0B"/>
  <text x="590" y="630" font-family="system-ui, sans-serif" font-size="14" font-weight="600" fill="#F59E0B">Medium Priority (1,200 customers)</text>
  <text x="590" y="648" font-family="system-ui, sans-serif" font-size="12" fill="#71717A">Personalized email + loyalty points</text>
  
  <rect x="570" y="670" width="360" height="55" rx="8" fill="white" stroke="#3B82F6"/>
  <text x="590" y="695" font-family="system-ui, sans-serif" font-size="14" font-weight="600" fill="#3B82F6">Low Priority (800 customers)</text>
  <text x="590" y="713" font-family="system-ui, sans-serif" font-size="12" fill="#71717A">Standard re-engagement campaign</text>
  
  <!-- Pipeline Info -->
  <rect x="130" y="760" width="820" height="80" rx="12" fill="#18181B"/>
  <text x="170" y="795" font-family="system-ui, sans-serif" font-size="14" font-weight="600" fill="white">Pipeline:</text>
  
  <rect x="260" y="780" width="100" height="30" rx="6" fill="#3B82F6"/>
  <text x="310" y="800" font-family="system-ui, sans-serif" font-size="12" fill="white" text-anchor="middle">ETL</text>
  <text x="370" y="800" font-family="system-ui, sans-serif" font-size="16" fill="#71717A">→</text>
  
  <rect x="390" y="780" width="100" height="30" rx="6" fill="#A855F7"/>
  <text x="440" y="800" font-family="system-ui, sans-serif" font-size="12" fill="white" text-anchor="middle">Features</text>
  <text x="500" y="800" font-family="system-ui, sans-serif" font-size="16" fill="#71717A">→</text>
  
  <rect x="520" y="780" width="100" height="30" rx="6" fill="#22C55E"/>
  <text x="570" y="800" font-family="system-ui, sans-serif" font-size="12" fill="white" text-anchor="middle">XGBoost</text>
  <text x="630" y="800" font-family="system-ui, sans-serif" font-size="16" fill="#71717A">→</text>
  
  <rect x="650" y="780" width="100" height="30" rx="6" fill="#F59E0B"/>
  <text x="700" y="800" font-family="system-ui, sans-serif" font-size="12" fill="white" text-anchor="middle">API</text>
  <text x="760" y="800" font-family="system-ui, sans-serif" font-size="16" fill="#71717A">→</text>
  
  <rect x="780" y="780" width="140" height="30" rx="6" fill="#EF4444"/>
  <text x="850" y="800" font-family="system-ui, sans-serif" font-size="12" fill="white" text-anchor="middle">Dashboard</text>
  
  <!-- Footer -->
  <text x="540" y="1040" font-family="system-ui, sans-serif" font-size="14" fill="#71717A" text-anchor="middle">@devweekends</text>
</svg>