<svg viewBox="0 0 1080 1080" xmlns="http://www.w3.org/2000/svg">
  <rect width="1080" height="1080" fill="#FAFAFA"/>
  
  <!-- Header -->
  <text x="60" y="80" font-family="system-ui, sans-serif" font-size="14" font-weight="600" fill="#18181B" letter-spacing="3">DEV WEEKENDS</text>
  
  <!-- Title -->
  <text x="540" y="160" font-family="system-ui, sans-serif" font-size="42" font-weight="700" fill="#18181B" text-anchor="middle">Classification in Healthcare</text>
  <text x="540" y="210" font-family="system-ui, sans-serif" font-size="22" fill="#71717A" text-anchor="middle">Medical Diagnosis System</text>
  
  <!-- Patient Card -->
  <rect x="100" y="280" width="400" height="500" rx="20" fill="white" stroke="#E4E4E7" stroke-width="2"/>
  <rect x="100" y="280" width="400" height="60" rx="20" fill="#3B82F6"/>
  <rect x="100" y="320" width="400" height="20" fill="#3B82F6"/>
  <text x="300" y="318" font-family="system-ui, sans-serif" font-size="20" font-weight="600" fill="white" text-anchor="middle">👤 Patient Data</text>
  
  <text x="130" y="380" font-family="system-ui, sans-serif" font-size="16" font-weight="600" fill="#18181B">Symptoms:</text>
  <rect x="130" y="395" width="340" height="35" rx="6" fill="#F4F4F5"/>
  <text x="145" y="420" font-family="system-ui, sans-serif" font-size="14" fill="#71717A">• Persistent cough (2 weeks)</text>
  <rect x="130" y="440" width="340" height="35" rx="6" fill="#F4F4F5"/>
  <text x="145" y="465" font-family="system-ui, sans-serif" font-size="14" fill="#71717A">• Fever (101°F)</text>
  <rect x="130" y="485" width="340" height="35" rx="6" fill="#F4F4F5"/>
  <text x="145" y="510" font-family="system-ui, sans-serif" font-size="14" fill="#71717A">• Fatigue</text>
  
  <text x="130" y="560" font-family="system-ui, sans-serif" font-size="16" font-weight="600" fill="#18181B">Test Results:</text>
  <rect x="130" y="575" width="165" height="50" rx="6" fill="#EFF6FF" stroke="#3B82F6"/>
  <text x="212" y="600" font-family="system-ui, sans-serif" font-size="12" fill="#3B82F6" text-anchor="middle">WBC: 12,000</text>
  <text x="212" y="618" font-family="system-ui, sans-serif" font-size="10" fill="#71717A" text-anchor="middle">↑ Elevated</text>
  
  <rect x="305" y="575" width="165" height="50" rx="6" fill="#EFF6FF" stroke="#3B82F6"/>
  <text x="387" y="600" font-family="system-ui, sans-serif" font-size="12" fill="#3B82F6" text-anchor="middle">CRP: 45 mg/L</text>
  <text x="387" y="618" font-family="system-ui, sans-serif" font-size="10" fill="#71717A" text-anchor="middle">↑ High</text>
  
  <text x="130" y="670" font-family="system-ui, sans-serif" font-size="16" font-weight="600" fill="#18181B">Patient History:</text>
  <text x="130" y="700" font-family="system-ui, sans-serif" font-size="14" fill="#71717A">Age: 45, Non-smoker, No allergies</text>
  <text x="130" y="725" font-family="system-ui, sans-serif" font-size="14" fill="#71717A">Recent travel: None</text>
  
  <!-- Arrow -->
  <line x1="500" y1="530" x2="560" y2="530" stroke="#A855F7" stroke-width="4"/>
  <polygon points="560,530 545,520 545,540" fill="#A855F7"/>
  <text x="530" y="560" font-family="system-ui, sans-serif" font-size="14" fill="#A855F7" text-anchor="middle">ML</text>
  
  <!-- Diagnosis Panel -->
  <rect x="580" y="280" width="400" height="500" rx="20" fill="white" stroke="#E4E4E7" stroke-width="2"/>
  <rect x="580" y="280" width="400" height="60" rx="20" fill="#22C55E"/>
  <rect x="580" y="320" width="400" height="20" fill="#22C55E"/>
  <text x="780" y="318" font-family="system-ui, sans-serif" font-size="20" font-weight="600" fill="white" text-anchor="middle">🩺 ML Diagnosis</text>
  
  <!-- Diagnosis Results -->
  <rect x="610" y="360" width="340" height="100" rx="12" fill="#ECFDF5" stroke="#22C55E" stroke-width="2"/>
  <text x="780" y="400" font-family="system-ui, sans-serif" font-size="20" font-weight="700" fill="#22C55E" text-anchor="middle">Bacterial Infection</text>
  <text x="780" y="430" font-family="system-ui, sans-serif" font-size="16" fill="#22C55E" text-anchor="middle">Confidence: 87%</text>
  <rect x="660" y="440" width="240" height="8" rx="4" fill="#D1FAE5"/>
  <rect x="660" y="440" width="208" height="8" rx="4" fill="#22C55E"/>
  
  <text x="630" y="500" font-family="system-ui, sans-serif" font-size="16" font-weight="600" fill="#18181B">Other Possibilities:</text>
  
  <rect x="610" y="520" width="340" height="50" rx="8" fill="#FEF3C7" stroke="#F59E0B"/>
  <text x="630" y="550" font-family="system-ui, sans-serif" font-size="14" fill="#F59E0B">Viral Infection</text>
  <text x="920" y="550" font-family="system-ui, sans-serif" font-size="14" fill="#F59E0B" text-anchor="end">8%</text>
  
  <rect x="610" y="580" width="340" height="50" rx="8" fill="#F4F4F5" stroke="#D4D4D8"/>
  <text x="630" y="610" font-family="system-ui, sans-serif" font-size="14" fill="#71717A">Allergic Reaction</text>
  <text x="920" y="610" font-family="system-ui, sans-serif" font-size="14" fill="#71717A" text-anchor="end">3%</text>
  
  <rect x="610" y="640" width="340" height="50" rx="8" fill="#F4F4F5" stroke="#D4D4D8"/>
  <text x="630" y="670" font-family="system-ui, sans-serif" font-size="14" fill="#71717A">Other</text>
  <text x="920" y="670" font-family="system-ui, sans-serif" font-size="14" fill="#71717A" text-anchor="end">2%</text>
  
  <rect x="610" y="710" width="340" height="50" rx="12" fill="#3B82F6"/>
  <text x="780" y="742" font-family="system-ui, sans-serif" font-size="16" font-weight="600" fill="white" text-anchor="middle">📋 Recommend: Antibiotics</text>
  
  <!-- Bottom Info -->
  <rect x="100" y="820" width="880" height="130" rx="16" fill="#18181B"/>
  <text x="540" y="870" font-family="system-ui, sans-serif" font-size="20" font-weight="600" fill="white" text-anchor="middle">Classification Model Categories</text>
  
  <rect x="140" y="895" width="160" height="40" rx="8" fill="#22C55E"/>
  <text x="220" y="922" font-family="system-ui, sans-serif" font-size="14" fill="white" text-anchor="middle">Bacterial</text>
  
  <rect x="320" y="895" width="160" height="40" rx="8" fill="#3B82F6"/>
  <text x="400" y="922" font-family="system-ui, sans-serif" font-size="14" fill="white" text-anchor="middle">Viral</text>
  
  <rect x="500" y="895" width="160" height="40" rx="8" fill="#A855F7"/>
  <text x="580" y="922" font-family="system-ui, sans-serif" font-size="14" fill="white" text-anchor="middle">Allergic</text>
  
  <rect x="680" y="895" width="160" height="40" rx="8" fill="#F59E0B"/>
  <text x="760" y="922" font-family="system-ui, sans-serif" font-size="14" fill="white" text-anchor="middle">Autoimmune</text>
  
  <rect x="860" y="895" width="100" height="40" rx="8" fill="#71717A"/>
  <text x="910" y="922" font-family="system-ui, sans-serif" font-size="14" fill="white" text-anchor="middle">Other</text>
  
  <!-- Footer -->
  <text x="540" y="1040" font-family="system-ui, sans-serif" font-size="14" fill="#71717A" text-anchor="middle">@devweekends</text>
</svg>