<svg width="1080" height="1080" viewBox="0 0 1080 1080" fill="none" xmlns="http://www.w3.org/2000/svg">
  <rect width="1080" height="1080" fill="#FAFAFA"/>
  
  <text x="60" y="80" font-family="system-ui, sans-serif" font-size="14" font-weight="600" fill="#18181B" letter-spacing="3">DEV WEEKENDS</text>
  
  <rect x="60" y="140" width="200" height="40" fill="#8B5CF6"/>
  <text x="160" y="168" font-family="system-ui, sans-serif" font-size="12" font-weight="600" fill="#FAFAFA" text-anchor="middle" letter-spacing="2">ML MASTERY</text>
  
  <text x="60" y="280" font-family="system-ui, sans-serif" font-size="56" font-weight="700" fill="#18181B">End-to-End</text>
  <text x="60" y="350" font-family="system-ui, sans-serif" font-size="56" font-weight="700" fill="#22C55E">ML Pipeline</text>
  
  <!-- Pipeline stages -->
  <g transform="translate(60, 400)">
    <rect x="0" y="0" width="960" height="280" fill="#F4F4F5" rx="12"/>
    
    <!-- Stage 1: Data -->
    <g transform="translate(30, 30)">
      <rect x="0" y="0" width="140" height="120" fill="#3B82F6" rx="8"/>
      <text x="70" y="40" font-family="system-ui, sans-serif" font-size="28" fill="#FAFAFA" text-anchor="middle">📊</text>
      <text x="70" y="70" font-family="system-ui, sans-serif" font-size="14" font-weight="600" fill="#FAFAFA" text-anchor="middle">Data</text>
      <text x="70" y="90" font-family="system-ui, sans-serif" font-size="11" fill="#DBEAFE" text-anchor="middle">Collection</text>
      <text x="70" y="108" font-family="system-ui, sans-serif" font-size="11" fill="#DBEAFE" text-anchor="middle">Cleaning</text>
    </g>
    
    <path d="M 185 90 L 210 90" stroke="#8B5CF6" stroke-width="3" marker-end="url(#pipelineArrow)"/>
    
    <!-- Stage 2: Features -->
    <g transform="translate(225, 30)">
      <rect x="0" y="0" width="140" height="120" fill="#F59E0B" rx="8"/>
      <text x="70" y="40" font-family="system-ui, sans-serif" font-size="28" fill="#FAFAFA" text-anchor="middle">🔧</text>
      <text x="70" y="70" font-family="system-ui, sans-serif" font-size="14" font-weight="600" fill="#FAFAFA" text-anchor="middle">Features</text>
      <text x="70" y="90" font-family="system-ui, sans-serif" font-size="11" fill="#FEF3C7" text-anchor="middle">Engineering</text>
      <text x="70" y="108" font-family="system-ui, sans-serif" font-size="11" fill="#FEF3C7" text-anchor="middle">Selection</text>
    </g>
    
    <path d="M 380 90 L 405 90" stroke="#8B5CF6" stroke-width="3" marker-end="url(#pipelineArrow)"/>
    
    <!-- Stage 3: Model -->
    <g transform="translate(420, 30)">
      <rect x="0" y="0" width="140" height="120" fill="#8B5CF6" rx="8"/>
      <text x="70" y="40" font-family="system-ui, sans-serif" font-size="28" fill="#FAFAFA" text-anchor="middle">🧠</text>
      <text x="70" y="70" font-family="system-ui, sans-serif" font-size="14" font-weight="600" fill="#FAFAFA" text-anchor="middle">Model</text>
      <text x="70" y="90" font-family="system-ui, sans-serif" font-size="11" fill="#DDD6FE" text-anchor="middle">Training</text>
      <text x="70" y="108" font-family="system-ui, sans-serif" font-size="11" fill="#DDD6FE" text-anchor="middle">Tuning</text>
    </g>
    
    <path d="M 575 90 L 600 90" stroke="#8B5CF6" stroke-width="3" marker-end="url(#pipelineArrow)"/>
    
    <!-- Stage 4: Evaluate -->
    <g transform="translate(615, 30)">
      <rect x="0" y="0" width="140" height="120" fill="#EC4899" rx="8"/>
      <text x="70" y="40" font-family="system-ui, sans-serif" font-size="28" fill="#FAFAFA" text-anchor="middle">📈</text>
      <text x="70" y="70" font-family="system-ui, sans-serif" font-size="14" font-weight="600" fill="#FAFAFA" text-anchor="middle">Evaluate</text>
      <text x="70" y="90" font-family="system-ui, sans-serif" font-size="11" fill="#FBCFE8" text-anchor="middle">Metrics</text>
      <text x="70" y="108" font-family="system-ui, sans-serif" font-size="11" fill="#FBCFE8" text-anchor="middle">Validation</text>
    </g>
    
    <path d="M 770 90 L 795 90" stroke="#8B5CF6" stroke-width="3" marker-end="url(#pipelineArrow)"/>
    
    <!-- Stage 5: Deploy -->
    <g transform="translate(810, 30)">
      <rect x="0" y="0" width="140" height="120" fill="#22C55E" rx="8"/>
      <text x="70" y="40" font-family="system-ui, sans-serif" font-size="28" fill="#FAFAFA" text-anchor="middle">🚀</text>
      <text x="70" y="70" font-family="system-ui, sans-serif" font-size="14" font-weight="600" fill="#FAFAFA" text-anchor="middle">Deploy</text>
      <text x="70" y="90" font-family="system-ui, sans-serif" font-size="11" fill="#BBF7D0" text-anchor="middle">Production</text>
      <text x="70" y="108" font-family="system-ui, sans-serif" font-size="11" fill="#BBF7D0" text-anchor="middle">Monitor</text>
    </g>
    
    <!-- Feedback loop -->
    <path d="M 880 160 C 920 160 940 200 940 220 L 940 240 C 940 260 920 260 880 260 L 100 260 C 60 260 60 240 60 220 L 60 170" 
          stroke="#52525B" stroke-width="2" stroke-dasharray="8" fill="none" marker-end="url(#pipelineArrow2)"/>
    <text x="480" y="250" font-family="system-ui, sans-serif" font-size="12" fill="#52525B" text-anchor="middle">Continuous Improvement Loop</text>
  </g>
  
  <!-- Key components -->
  <g transform="translate(60, 710)">
    <rect x="0" y="0" width="310" height="150" fill="#18181B" rx="12"/>
    <text x="155" y="30" font-family="system-ui, sans-serif" font-size="16" font-weight="600" fill="#3B82F6" text-anchor="middle">Version Control</text>
    <text x="20" y="60" font-family="system-ui, sans-serif" font-size="12" fill="#FAFAFA">• Git for code</text>
    <text x="20" y="82" font-family="system-ui, sans-serif" font-size="12" fill="#FAFAFA">• DVC for data versioning</text>
    <text x="20" y="104" font-family="system-ui, sans-serif" font-size="12" fill="#FAFAFA">• MLflow for experiments</text>
    <text x="20" y="126" font-family="system-ui, sans-serif" font-size="12" fill="#FAFAFA">• Model registry</text>
  </g>
  
  <g transform="translate(390, 710)">
    <rect x="0" y="0" width="280" height="150" fill="#18181B" rx="12"/>
    <text x="140" y="30" font-family="system-ui, sans-serif" font-size="16" font-weight="600" fill="#F59E0B" text-anchor="middle">Automation</text>
    <text x="20" y="60" font-family="system-ui, sans-serif" font-size="12" fill="#FAFAFA">• CI/CD pipelines</text>
    <text x="20" y="82" font-family="system-ui, sans-serif" font-size="12" fill="#FAFAFA">• Automated testing</text>
    <text x="20" y="104" font-family="system-ui, sans-serif" font-size="12" fill="#FAFAFA">• Scheduled retraining</text>
    <text x="20" y="126" font-family="system-ui, sans-serif" font-size="12" fill="#FAFAFA">• Feature pipelines</text>
  </g>
  
  <g transform="translate(690, 710)">
    <rect x="0" y="0" width="330" height="150" fill="#18181B" rx="12"/>
    <text x="165" y="30" font-family="system-ui, sans-serif" font-size="16" font-weight="600" fill="#22C55E" text-anchor="middle">Monitoring</text>
    <text x="20" y="60" font-family="system-ui, sans-serif" font-size="12" fill="#FAFAFA">• Model performance drift</text>
    <text x="20" y="82" font-family="system-ui, sans-serif" font-size="12" fill="#FAFAFA">• Data quality checks</text>
    <text x="20" y="104" font-family="system-ui, sans-serif" font-size="12" fill="#FAFAFA">• Latency &amp; throughput</text>
    <text x="20" y="126" font-family="system-ui, sans-serif" font-size="12" fill="#FAFAFA">• Alerting systems</text>
  </g>
  
  <!-- Bottom insight -->
  <rect x="60" y="890" width="960" height="80" fill="#8B5CF6" rx="12"/>
  <text x="540" y="925" font-family="system-ui, sans-serif" font-size="18" font-weight="600" fill="#FAFAFA" text-anchor="middle">💡 ML is 10% modeling, 90% everything else</text>
  <text x="540" y="955" font-family="system-ui, sans-serif" font-size="14" fill="#DDD6FE" text-anchor="middle">Data pipelines, feature stores, monitoring, and infrastructure matter more than algorithm choice</text>
  
  <text x="540" y="1040" font-family="system-ui, sans-serif" font-size="16" fill="#A1A1AA" text-anchor="middle">@devweekends</text>
  
  <defs>
    <marker id="pipelineArrow" markerWidth="10" markerHeight="7" refX="9" refY="3.5" orient="auto">
      <polygon points="0 0, 10 3.5, 0 7" fill="#8B5CF6"/>
    </marker>
    <marker id="pipelineArrow2" markerWidth="10" markerHeight="7" refX="9" refY="3.5" orient="auto">
      <polygon points="0 0, 10 3.5, 0 7" fill="#52525B"/>
    </marker>
  </defs>
</svg>