<svg viewBox="0 0 1080 1080" xmlns="http://www.w3.org/2000/svg">
  <rect width="1080" height="1080" fill="#FAFAFA"/>
  
  <!-- Header -->
  <text x="60" y="80" font-family="system-ui, sans-serif" font-size="14" font-weight="600" fill="#18181B" letter-spacing="3">DEV WEEKENDS</text>
  
  <!-- Title -->
  <text x="540" y="160" font-family="system-ui, sans-serif" font-size="42" font-weight="700" fill="#18181B" text-anchor="middle">KNN in Real World</text>
  <text x="540" y="210" font-family="system-ui, sans-serif" font-size="22" fill="#71717A" text-anchor="middle">Netflix Movie Recommendations</text>
  
  <!-- Netflix Interface -->
  <rect x="100" y="280" width="880" height="560" rx="20" fill="#141414"/>
  
  <!-- Netflix Header -->
  <rect x="100" y="280" width="880" height="60" fill="#141414" rx="20"/>
  <text x="160" y="320" font-family="system-ui, sans-serif" font-size="28" font-weight="700" fill="#E50914">NETFLIX</text>
  <text x="400" y="318" font-family="system-ui, sans-serif" font-size="16" fill="white">Browse</text>
  <text x="500" y="318" font-family="system-ui, sans-serif" font-size="16" fill="white">My List</text>
  
  <!-- User Profile -->
  <rect x="850" y="295" width="100" height="35" rx="6" fill="#E50914"/>
  <text x="900" y="318" font-family="system-ui, sans-serif" font-size="14" fill="white" text-anchor="middle">👤 You</text>
  
  <!-- Main Content Area -->
  <text x="140" y="380" font-family="system-ui, sans-serif" font-size="20" font-weight="600" fill="white">Because you watched "Inception" 🎬</text>
  
  <!-- Movie Cards Row -->
  <rect x="140" y="400" width="160" height="220" rx="8" fill="#3B82F6"/>
  <text x="220" y="500" font-family="system-ui, sans-serif" font-size="40" fill="white" text-anchor="middle">🌀</text>
  <text x="220" y="560" font-family="system-ui, sans-serif" font-size="14" fill="white" text-anchor="middle">Interstellar</text>
  <rect x="160" y="590" width="120" height="20" rx="4" fill="#22C55E"/>
  <text x="220" y="605" font-family="system-ui, sans-serif" font-size="11" fill="white" text-anchor="middle">95% Match</text>
  
  <rect x="320" y="400" width="160" height="220" rx="8" fill="#A855F7"/>
  <text x="400" y="500" font-family="system-ui, sans-serif" font-size="40" fill="white" text-anchor="middle">🧩</text>
  <text x="400" y="560" font-family="system-ui, sans-serif" font-size="14" fill="white" text-anchor="middle">Shutter Island</text>
  <rect x="340" y="590" width="120" height="20" rx="4" fill="#22C55E"/>
  <text x="400" y="605" font-family="system-ui, sans-serif" font-size="11" fill="white" text-anchor="middle">92% Match</text>
  
  <rect x="500" y="400" width="160" height="220" rx="8" fill="#F59E0B"/>
  <text x="580" y="500" font-family="system-ui, sans-serif" font-size="40" fill="white" text-anchor="middle">🎭</text>
  <text x="580" y="560" font-family="system-ui, sans-serif" font-size="14" fill="white" text-anchor="middle">The Prestige</text>
  <rect x="520" y="590" width="120" height="20" rx="4" fill="#22C55E"/>
  <text x="580" y="605" font-family="system-ui, sans-serif" font-size="11" fill="white" text-anchor="middle">89% Match</text>
  
  <rect x="680" y="400" width="160" height="220" rx="8" fill="#22C55E"/>
  <text x="760" y="500" font-family="system-ui, sans-serif" font-size="40" fill="white" text-anchor="middle">🔮</text>
  <text x="760" y="560" font-family="system-ui, sans-serif" font-size="14" fill="white" text-anchor="middle">Memento</text>
  <rect x="700" y="590" width="120" height="20" rx="4" fill="#22C55E"/>
  <text x="760" y="605" font-family="system-ui, sans-serif" font-size="11" fill="white" text-anchor="middle">87% Match</text>
  
  <!-- How KNN Works Here -->
  <text x="140" y="680" font-family="system-ui, sans-serif" font-size="18" font-weight="600" fill="white">How KNN Finds Similar Movies:</text>
  
  <rect x="140" y="700" width="200" height="70" rx="8" fill="#262626"/>
  <text x="240" y="735" font-family="system-ui, sans-serif" font-size="14" fill="#A1A1AA" text-anchor="middle">Genre: Sci-Fi/Thriller</text>
  <text x="240" y="755" font-family="system-ui, sans-serif" font-size="12" fill="#71717A" text-anchor="middle">Feature Vector</text>
  
  <rect x="360" y="700" width="200" height="70" rx="8" fill="#262626"/>
  <text x="460" y="735" font-family="system-ui, sans-serif" font-size="14" fill="#A1A1AA" text-anchor="middle">Director Style</text>
  <text x="460" y="755" font-family="system-ui, sans-serif" font-size="12" fill="#71717A" text-anchor="middle">Christopher Nolan</text>
  
  <rect x="580" y="700" width="200" height="70" rx="8" fill="#262626"/>
  <text x="680" y="735" font-family="system-ui, sans-serif" font-size="14" fill="#A1A1AA" text-anchor="middle">User Ratings</text>
  <text x="680" y="755" font-family="system-ui, sans-serif" font-size="12" fill="#71717A" text-anchor="middle">Similar viewers liked</text>
  
  <rect x="800" y="700" width="150" height="70" rx="8" fill="#E50914"/>
  <text x="875" y="740" font-family="system-ui, sans-serif" font-size="14" fill="white" text-anchor="middle">K Nearest</text>
  <text x="875" y="760" font-family="system-ui, sans-serif" font-size="12" fill="white" text-anchor="middle">Movies!</text>
  
  <!-- Bottom Info -->
  <rect x="100" y="880" width="880" height="80" rx="12" fill="#18181B"/>
  <text x="540" y="930" font-family="system-ui, sans-serif" font-size="18" fill="white" text-anchor="middle">KNN finds movies with similar feature vectors (genre, actors, ratings, themes) to recommend</text>
  
  <!-- Footer -->
  <text x="540" y="1040" font-family="system-ui, sans-serif" font-size="14" fill="#71717A" text-anchor="middle">@devweekends</text>
</svg>