<svg viewBox="0 0 1080 1080" xmlns="http://www.w3.org/2000/svg">
  <rect width="1080" height="1080" fill="#FAFAFA"/>
  
  <!-- Header -->
  <text x="60" y="80" font-family="system-ui, sans-serif" font-size="14" font-weight="600" fill="#18181B" letter-spacing="3">DEV WEEKENDS</text>
  
  <!-- Title -->
  <text x="540" y="160" font-family="system-ui, sans-serif" font-size="42" font-weight="700" fill="#18181B" text-anchor="middle">ML Prediction Concept</text>
  <text x="540" y="210" font-family="system-ui, sans-serif" font-size="22" fill="#71717A" text-anchor="middle">From Input Features to Predictions</text>
  
  <!-- Input Section -->
  <rect x="80" y="320" width="280" height="400" rx="20" fill="#EFF6FF" stroke="#3B82F6" stroke-width="3"/>
  <text x="220" y="370" font-family="system-ui, sans-serif" font-size="22" font-weight="600" fill="#3B82F6" text-anchor="middle">📊 Input Features</text>
  
  <rect x="110" y="400" width="220" height="50" rx="10" fill="white" stroke="#3B82F6"/>
  <text x="220" y="432" font-family="system-ui, sans-serif" font-size="16" fill="#18181B" text-anchor="middle">Feature 1: Age</text>
  
  <rect x="110" y="470" width="220" height="50" rx="10" fill="white" stroke="#3B82F6"/>
  <text x="220" y="502" font-family="system-ui, sans-serif" font-size="16" fill="#18181B" text-anchor="middle">Feature 2: Income</text>
  
  <rect x="110" y="540" width="220" height="50" rx="10" fill="white" stroke="#3B82F6"/>
  <text x="220" y="572" font-family="system-ui, sans-serif" font-size="16" fill="#18181B" text-anchor="middle">Feature 3: Location</text>
  
  <rect x="110" y="610" width="220" height="50" rx="10" fill="white" stroke="#3B82F6"/>
  <text x="220" y="642" font-family="system-ui, sans-serif" font-size="16" fill="#18181B" text-anchor="middle">Feature N: ...</text>
  
  <!-- Arrow 1 -->
  <line x1="360" y1="520" x2="410" y2="520" stroke="#71717A" stroke-width="4"/>
  <polygon points="410,520 395,510 395,530" fill="#71717A"/>
  
  <!-- Model Box -->
  <rect x="420" y="380" width="240" height="280" rx="20" fill="#18181B"/>
  <text x="540" y="450" font-family="system-ui, sans-serif" font-size="48" fill="white" text-anchor="middle">🧠</text>
  <text x="540" y="510" font-family="system-ui, sans-serif" font-size="24" font-weight="700" fill="white" text-anchor="middle">ML Model</text>
  <text x="540" y="550" font-family="system-ui, sans-serif" font-size="16" fill="#A1A1AA" text-anchor="middle">Learns Patterns</text>
  <text x="540" y="580" font-family="system-ui, sans-serif" font-size="16" fill="#A1A1AA" text-anchor="middle">Makes Decisions</text>
  <rect x="460" y="610" width="160" height="30" rx="6" fill="#22C55E"/>
  <text x="540" y="632" font-family="system-ui, sans-serif" font-size="14" fill="white" text-anchor="middle">f(x) = prediction</text>
  
  <!-- Arrow 2 -->
  <line x1="660" y1="520" x2="710" y2="520" stroke="#71717A" stroke-width="4"/>
  <polygon points="710,520 695,510 695,530" fill="#71717A"/>
  
  <!-- Output Section -->
  <rect x="720" y="380" width="280" height="280" rx="20" fill="#ECFDF5" stroke="#22C55E" stroke-width="3"/>
  <text x="860" y="430" font-family="system-ui, sans-serif" font-size="22" font-weight="600" fill="#22C55E" text-anchor="middle">🎯 Prediction</text>
  
  <rect x="760" y="470" width="200" height="70" rx="10" fill="white" stroke="#22C55E" stroke-width="2"/>
  <text x="860" y="500" font-family="system-ui, sans-serif" font-size="16" font-weight="600" fill="#22C55E" text-anchor="middle">Classification</text>
  <text x="860" y="525" font-family="system-ui, sans-serif" font-size="14" fill="#71717A" text-anchor="middle">Yes / No, A / B / C</text>
  
  <rect x="760" y="560" width="200" height="70" rx="10" fill="white" stroke="#22C55E" stroke-width="2"/>
  <text x="860" y="590" font-family="system-ui, sans-serif" font-size="16" font-weight="600" fill="#22C55E" text-anchor="middle">Regression</text>
  <text x="860" y="615" font-family="system-ui, sans-serif" font-size="14" fill="#71717A" text-anchor="middle">$50,000, 3.7, 85%</text>
  
  <!-- Key Insight -->
  <rect x="180" y="780" width="720" height="120" rx="16" fill="#F5F3FF" stroke="#A855F7" stroke-width="2"/>
  <text x="540" y="830" font-family="system-ui, sans-serif" font-size="20" font-weight="600" fill="#A855F7" text-anchor="middle">💡 The Core ML Equation</text>
  <text x="540" y="870" font-family="system-ui, sans-serif" font-size="18" fill="#18181B" text-anchor="middle">Input Features (X) → ML Model (f) → Prediction (ŷ)</text>
  
  <!-- Footer -->
  <text x="540" y="1040" font-family="system-ui, sans-serif" font-size="14" fill="#71717A" text-anchor="middle">@devweekends</text>
</svg>