<svg width="1080" height="1080" viewBox="0 0 1080 1080" fill="none" xmlns="http://www.w3.org/2000/svg">
  <rect width="1080" height="1080" fill="#FAFAFA"/>
  
  <!-- Header -->
  <text x="60" y="80" font-family="system-ui, sans-serif" font-size="14" font-weight="600" fill="#18181B" letter-spacing="3">DEV WEEKENDS</text>
  
  <!-- Topic Tag -->
  <rect x="60" y="140" width="180" height="40" fill="#F59E0B" rx="4"/>
  <text x="150" y="168" font-family="system-ui, sans-serif" font-size="12" font-weight="600" fill="#FFFFFF" text-anchor="middle" letter-spacing="2">ML MASTERY</text>
  
  <!-- Title -->
  <text x="60" y="280" font-family="system-ui, sans-serif" font-size="56" font-weight="700" fill="#18181B">Stock Market</text>
  <text x="60" y="350" font-family="system-ui, sans-serif" font-size="56" font-weight="700" fill="#F59E0B">Overfitting</text>
  
  <!-- Subtitle -->
  <text x="60" y="400" font-family="system-ui, sans-serif" font-size="20" fill="#71717A">Why backtesting isn't enough</text>
  
  <!-- Main Diagram Area -->
  <rect x="60" y="440" width="960" height="420" fill="#F4F4F5" rx="8"/>
  
  <!-- Historical Data (Training) -->
  <rect x="100" y="480" width="400" height="200" fill="#FFFFFF" rx="8" stroke="#10B981" stroke-width="2"/>
  <text x="300" y="510" font-family="system-ui, sans-serif" font-size="14" font-weight="600" fill="#10B981" text-anchor="middle">📈 Historical Data (Backtest)</text>
  
  <!-- Stock chart - rising with patterns -->
  <line x1="130" y1="650" x2="470" y2="650" stroke="#E5E7EB" stroke-width="1"/>
  <path d="M140,620 L180,600 L220,610 L260,580 L300,590 L340,560 L380,570 L420,540 L460,550" fill="none" stroke="#10B981" stroke-width="3"/>
  
  <!-- Model predictions perfectly matching -->
  <circle cx="180" cy="600" r="5" fill="#F59E0B"/>
  <circle cx="220" cy="610" r="5" fill="#F59E0B"/>
  <circle cx="260" cy="580" r="5" fill="#F59E0B"/>
  <circle cx="300" cy="590" r="5" fill="#F59E0B"/>
  <circle cx="340" cy="560" r="5" fill="#F59E0B"/>
  <circle cx="380" cy="570" r="5" fill="#F59E0B"/>
  <circle cx="420" cy="540" r="5" fill="#F59E0B"/>
  <circle cx="460" cy="550" r="5" fill="#F59E0B"/>
  
  <text x="300" y="675" font-family="system-ui, sans-serif" font-size="12" fill="#10B981" text-anchor="middle">Model Return: +127% 🚀</text>
  
  <!-- Future Data (Reality) -->
  <rect x="540" y="480" width="400" height="200" fill="#FFFFFF" rx="8" stroke="#EF4444" stroke-width="2"/>
  <text x="740" y="510" font-family="system-ui, sans-serif" font-size="14" font-weight="600" fill="#EF4444" text-anchor="middle">📉 Live Trading (Reality)</text>
  
  <!-- Stock chart - volatile/down -->
  <line x1="570" y1="650" x2="910" y2="650" stroke="#E5E7EB" stroke-width="1"/>
  <path d="M580,560 L620,590 L660,550 L700,620 L740,580 L780,640 L820,600 L860,660 L900,630" fill="none" stroke="#EF4444" stroke-width="3"/>
  
  <!-- Model predictions missing badly -->
  <circle cx="620" cy="540" r="5" fill="#F59E0B"/>
  <circle cx="660" cy="520" r="5" fill="#F59E0B"/>
  <circle cx="700" cy="510" r="5" fill="#F59E0B"/>
  <line x1="620" y1="540" x2="620" y2="590" stroke="#F59E0B" stroke-width="1" stroke-dasharray="3,2"/>
  <line x1="700" y1="510" x2="700" y2="620" stroke="#F59E0B" stroke-width="1" stroke-dasharray="3,2"/>
  
  <text x="740" y="675" font-family="system-ui, sans-serif" font-size="12" fill="#EF4444" text-anchor="middle">Actual Return: -43% 💸</text>
  
  <!-- What went wrong -->
  <rect x="100" y="710" width="400" height="120" fill="#FFFFFF" rx="8" stroke="#E5E7EB" stroke-width="1"/>
  <text x="300" y="745" font-family="system-ui, sans-serif" font-size="16" font-weight="600" fill="#18181B" text-anchor="middle">What Happened?</text>
  <line x1="120" y1="760" x2="480" y2="760" stroke="#E5E7EB" stroke-width="1"/>
  <text x="300" y="790" font-family="system-ui, sans-serif" font-size="13" fill="#52525B" text-anchor="middle">Model learned patterns specific to</text>
  <text x="300" y="815" font-family="system-ui, sans-serif" font-size="13" fill="#F59E0B" text-anchor="middle">historical data, not market fundamentals</text>
  
  <!-- Prevention -->
  <rect x="540" y="710" width="400" height="120" fill="#FFFFFF" rx="8" stroke="#10B981" stroke-width="2"/>
  <text x="740" y="745" font-family="system-ui, sans-serif" font-size="16" font-weight="600" fill="#10B981" text-anchor="middle">Prevention Strategies</text>
  <line x1="560" y1="760" x2="920" y2="760" stroke="#E5E7EB" stroke-width="1"/>
  <text x="580" y="790" font-family="system-ui, sans-serif" font-size="12" fill="#52525B">• Walk-forward validation</text>
  <text x="580" y="815" font-family="system-ui, sans-serif" font-size="12" fill="#52525B">• Out-of-sample testing</text>
  <text x="750" y="790" font-family="system-ui, sans-serif" font-size="12" fill="#52525B">• Regularization</text>
  <text x="750" y="815" font-family="system-ui, sans-serif" font-size="12" fill="#52525B">• Simpler models</text>
  
  <!-- Bottom insight -->
  <rect x="60" y="870" width="960" height="80" fill="#FFFFFF" rx="8" stroke="#E5E7EB" stroke-width="1"/>
  <text x="540" y="900" font-family="system-ui, sans-serif" font-size="18" font-weight="600" fill="#F59E0B" text-anchor="middle">Past Performance ≠ Future Results</text>
  <text x="540" y="935" font-family="system-ui, sans-serif" font-size="14" fill="#52525B" text-anchor="middle">Overfitted models memorize history but fail to generalize to new market conditions</text>
  
  <!-- Footer -->
  <text x="540" y="1040" font-family="system-ui, sans-serif" font-size="14" fill="#A1A1AA" text-anchor="middle">@devweekends</text>
</svg>