<svg width="1080" height="1080" viewBox="0 0 1080 1080" fill="none" xmlns="http://www.w3.org/2000/svg">
  <rect width="1080" height="1080" fill="#FAFAFA"/>
  
  <!-- Header -->
  <text x="60" y="80" font-family="system-ui, sans-serif" font-size="14" font-weight="600" fill="#18181B" letter-spacing="3">DEV WEEKENDS</text>
  
  <!-- Topic Tag -->
  <rect x="60" y="140" width="180" height="40" fill="#0EA5E9" rx="4"/>
  <text x="150" y="168" font-family="system-ui, sans-serif" font-size="12" font-weight="600" fill="#FFFFFF" text-anchor="middle" letter-spacing="2">ML MASTERY</text>
  
  <!-- Title -->
  <text x="60" y="280" font-family="system-ui, sans-serif" font-size="56" font-weight="700" fill="#18181B">Regularization</text>
  <text x="60" y="350" font-family="system-ui, sans-serif" font-size="56" font-weight="700" fill="#0EA5E9">Techniques</text>
  
  <!-- Subtitle -->
  <text x="60" y="400" font-family="system-ui, sans-serif" font-size="20" fill="#71717A">Preventing overfitting by constraining model complexity</text>
  
  <!-- Main Diagram Area -->
  <rect x="60" y="440" width="960" height="420" fill="#F4F4F5" rx="8"/>
  
  <!-- L1 Regularization (Lasso) -->
  <rect x="100" y="480" width="280" height="200" fill="#FFFFFF" rx="8" stroke="#0EA5E9" stroke-width="2"/>
  <text x="240" y="515" font-family="system-ui, sans-serif" font-size="16" font-weight="600" fill="#0EA5E9" text-anchor="middle">L1 - Lasso</text>
  <line x1="120" y1="530" x2="360" y2="530" stroke="#E5E7EB" stroke-width="1"/>
  
  <!-- L1 visualization - diamond -->
  <polygon points="240,580 280,620 240,660 200,620" fill="#E0F2FE" stroke="#0EA5E9" stroke-width="2"/>
  
  <text x="240" y="620" font-family="system-ui, sans-serif" font-size="12" fill="#0EA5E9" text-anchor="middle">|w|</text>
  
  <text x="240" y="560" font-family="system-ui, sans-serif" font-size="11" fill="#52525B" text-anchor="middle">Penalty = λΣ|wᵢ|</text>
  
  <!-- Sparse weights visualization -->
  <rect x="120" y="680" width="30" height="20" fill="#0EA5E9" rx="2"/>
  <rect x="155" y="680" width="30" height="0" fill="#D4D4D4" rx="2" stroke="#D4D4D4"/>
  <rect x="190" y="680" width="30" height="20" fill="#0EA5E9" rx="2"/>
  <rect x="225" y="680" width="30" height="0" fill="#D4D4D4" rx="2" stroke="#D4D4D4"/>
  <rect x="260" y="680" width="30" height="0" fill="#D4D4D4" rx="2" stroke="#D4D4D4"/>
  <rect x="295" y="680" width="30" height="20" fill="#0EA5E9" rx="2"/>
  <rect x="330" y="680" width="30" height="0" fill="#D4D4D4" rx="2" stroke="#D4D4D4"/>
  
  <text x="240" y="665" font-family="system-ui, sans-serif" font-size="9" fill="#52525B" text-anchor="middle">Weights (many become zero)</text>
  
  <!-- L2 Regularization (Ridge) -->
  <rect x="400" y="480" width="280" height="200" fill="#FFFFFF" rx="8" stroke="#10B981" stroke-width="2"/>
  <text x="540" y="515" font-family="system-ui, sans-serif" font-size="16" font-weight="600" fill="#10B981" text-anchor="middle">L2 - Ridge</text>
  <line x1="420" y1="530" x2="660" y2="530" stroke="#E5E7EB" stroke-width="1"/>
  
  <!-- L2 visualization - circle -->
  <circle cx="540" cy="620" r="40" fill="#D1FAE5" stroke="#10B981" stroke-width="2"/>
  
  <text x="540" y="625" font-family="system-ui, sans-serif" font-size="12" fill="#10B981" text-anchor="middle">w²</text>
  
  <text x="540" y="560" font-family="system-ui, sans-serif" font-size="11" fill="#52525B" text-anchor="middle">Penalty = λΣwᵢ²</text>
  
  <!-- Small but non-zero weights -->
  <rect x="420" y="680" width="30" height="10" fill="#10B981" rx="2"/>
  <rect x="455" y="680" width="30" height="8" fill="#10B981" rx="2"/>
  <rect x="490" y="680" width="30" height="12" fill="#10B981" rx="2"/>
  <rect x="525" y="680" width="30" height="6" fill="#10B981" rx="2"/>
  <rect x="560" y="680" width="30" height="9" fill="#10B981" rx="2"/>
  <rect x="595" y="680" width="30" height="11" fill="#10B981" rx="2"/>
  <rect x="630" y="680" width="30" height="7" fill="#10B981" rx="2"/>
  
  <text x="540" y="665" font-family="system-ui, sans-serif" font-size="9" fill="#52525B" text-anchor="middle">Weights (all small, none zero)</text>
  
  <!-- Dropout -->
  <rect x="700" y="480" width="280" height="200" fill="#FFFFFF" rx="8" stroke="#F59E0B" stroke-width="2"/>
  <text x="840" y="515" font-family="system-ui, sans-serif" font-size="16" font-weight="600" fill="#F59E0B" text-anchor="middle">Dropout</text>
  <line x1="720" y1="530" x2="960" y2="530" stroke="#E5E7EB" stroke-width="1"/>
  
  <!-- Neural network with dropout -->
  <circle cx="760" cy="580" r="12" fill="#3B82F6"/>
  <circle cx="760" cy="620" r="12" fill="#D4D4D4" stroke-dasharray="3,2"/>
  <circle cx="760" cy="660" r="12" fill="#3B82F6"/>
  
  <circle cx="840" cy="580" r="12" fill="#D4D4D4" stroke-dasharray="3,2"/>
  <circle cx="840" cy="620" r="12" fill="#8B5CF6"/>
  <circle cx="840" cy="660" r="12" fill="#8B5CF6"/>
  
  <circle cx="920" cy="600" r="12" fill="#10B981"/>
  <circle cx="920" cy="640" r="12" fill="#D4D4D4" stroke-dasharray="3,2"/>
  
  <!-- Connections -->
  <line x1="772" y1="580" x2="828" y2="620" stroke="#A5B4FC" stroke-width="1"/>
  <line x1="772" y1="580" x2="828" y2="660" stroke="#A5B4FC" stroke-width="1"/>
  <line x1="772" y1="660" x2="828" y2="620" stroke="#A5B4FC" stroke-width="1"/>
  <line x1="772" y1="660" x2="828" y2="660" stroke="#A5B4FC" stroke-width="1"/>
  <line x1="852" y1="620" x2="908" y2="600" stroke="#D8B4FE" stroke-width="1"/>
  <line x1="852" y1="660" x2="908" y2="600" stroke="#D8B4FE" stroke-width="1"/>
  
  <text x="840" y="560" font-family="system-ui, sans-serif" font-size="11" fill="#52525B" text-anchor="middle">Randomly drop neurons</text>
  <text x="840" y="690" font-family="system-ui, sans-serif" font-size="9" fill="#52525B" text-anchor="middle">🔵 Active  ⚪ Dropped (p=0.5)</text>
  
  <!-- Comparison table -->
  <rect x="100" y="700" width="860" height="140" fill="#FFFFFF" rx="8" stroke="#E5E7EB" stroke-width="1"/>
  
  <text x="540" y="730" font-family="system-ui, sans-serif" font-size="14" font-weight="600" fill="#18181B" text-anchor="middle">When to Use Each?</text>
  <line x1="120" y1="745" x2="940" y2="745" stroke="#E5E7EB" stroke-width="1"/>
  
  <text x="240" y="780" font-family="system-ui, sans-serif" font-size="13" font-weight="600" fill="#0EA5E9" text-anchor="middle">L1 (Lasso)</text>
  <text x="240" y="805" font-family="system-ui, sans-serif" font-size="11" fill="#52525B" text-anchor="middle">Feature selection needed</text>
  <text x="240" y="825" font-family="system-ui, sans-serif" font-size="11" fill="#52525B" text-anchor="middle">Sparse models preferred</text>
  
  <text x="540" y="780" font-family="system-ui, sans-serif" font-size="13" font-weight="600" fill="#10B981" text-anchor="middle">L2 (Ridge)</text>
  <text x="540" y="805" font-family="system-ui, sans-serif" font-size="11" fill="#52525B" text-anchor="middle">All features important</text>
  <text x="540" y="825" font-family="system-ui, sans-serif" font-size="11" fill="#52525B" text-anchor="middle">Multicollinearity issues</text>
  
  <text x="840" y="780" font-family="system-ui, sans-serif" font-size="13" font-weight="600" fill="#F59E0B" text-anchor="middle">Dropout</text>
  <text x="840" y="805" font-family="system-ui, sans-serif" font-size="11" fill="#52525B" text-anchor="middle">Deep neural networks</text>
  <text x="840" y="825" font-family="system-ui, sans-serif" font-size="11" fill="#52525B" text-anchor="middle">Large models, limited data</text>
  
  <!-- Bottom insight -->
  <rect x="60" y="870" width="960" height="80" fill="#FFFFFF" rx="8" stroke="#E5E7EB" stroke-width="1"/>
  <text x="540" y="900" font-family="system-ui, sans-serif" font-size="18" font-weight="600" fill="#0EA5E9" text-anchor="middle">Fight Overfitting, Not Complexity</text>
  <text x="540" y="935" font-family="system-ui, sans-serif" font-size="14" fill="#52525B" text-anchor="middle">Regularization adds penalty to loss function: Loss = Error + λ × Penalty</text>
  
  <!-- Footer -->
  <text x="540" y="1040" font-family="system-ui, sans-serif" font-size="14" fill="#A1A1AA" text-anchor="middle">@devweekends</text>
</svg>