<svg width="1080" height="1080" viewBox="0 0 1080 1080" fill="none" xmlns="http://www.w3.org/2000/svg">
  <rect width="1080" height="1080" fill="#FAFAFA"/>
  
  <!-- Header -->
  <text x="60" y="80" font-family="system-ui, sans-serif" font-size="14" font-weight="600" fill="#18181B" letter-spacing="3">DEV WEEKENDS</text>
  
  <!-- Topic Tag -->
  <rect x="60" y="140" width="180" height="40" fill="#14B8A6" rx="4"/>
  <text x="150" y="168" font-family="system-ui, sans-serif" font-size="12" font-weight="600" fill="#FFFFFF" text-anchor="middle" letter-spacing="2">ML MASTERY</text>
  
  <!-- Title -->
  <text x="60" y="280" font-family="system-ui, sans-serif" font-size="56" font-weight="700" fill="#18181B">Amazon</text>
  <text x="60" y="350" font-family="system-ui, sans-serif" font-size="56" font-weight="700" fill="#14B8A6">Demand Forecast</text>
  
  <!-- Subtitle -->
  <text x="60" y="400" font-family="system-ui, sans-serif" font-size="20" fill="#71717A">Predicting inventory needs with time series ML</text>
  
  <!-- Main Diagram Area -->
  <rect x="60" y="440" width="960" height="420" fill="#F4F4F5" rx="8"/>
  
  <!-- Amazon logo area -->
  <rect x="100" y="470" width="200" height="60" fill="#FF9900" rx="4"/>
  <text x="200" y="510" font-family="system-ui, sans-serif" font-size="24" font-weight="700" fill="#232F3E" text-anchor="middle">amazon</text>
  
  <text x="540" y="510" font-family="system-ui, sans-serif" font-size="16" font-weight="600" fill="#18181B" text-anchor="middle">Inventory Demand Forecasting</text>
  
  <!-- Challenge -->
  <rect x="100" y="550" width="280" height="120" fill="#FFFFFF" rx="8" stroke="#EF4444" stroke-width="2"/>
  <text x="240" y="580" font-family="system-ui, sans-serif" font-size="14" font-weight="600" fill="#EF4444" text-anchor="middle">📦 The Challenge</text>
  <line x1="120" y1="595" x2="360" y2="595" stroke="#E5E7EB" stroke-width="1"/>
  <text x="240" y="620" font-family="system-ui, sans-serif" font-size="12" fill="#52525B" text-anchor="middle">400M+ products</text>
  <text x="240" y="640" font-family="system-ui, sans-serif" font-size="12" fill="#52525B" text-anchor="middle">Millions of warehouses</text>
  <text x="240" y="660" font-family="system-ui, sans-serif" font-size="11" fill="#EF4444" text-anchor="middle">Wrong forecast = $$$$ lost</text>
  
  <!-- Solution -->
  <rect x="400" y="550" width="280" height="120" fill="#FFFFFF" rx="8" stroke="#14B8A6" stroke-width="2"/>
  <text x="540" y="580" font-family="system-ui, sans-serif" font-size="14" font-weight="600" fill="#14B8A6" text-anchor="middle">🧠 DeepAR Model</text>
  <line x1="420" y1="595" x2="660" y2="595" stroke="#E5E7EB" stroke-width="1"/>
  <text x="540" y="620" font-family="system-ui, sans-serif" font-size="12" fill="#52525B" text-anchor="middle">Autoregressive RNN</text>
  <text x="540" y="640" font-family="system-ui, sans-serif" font-size="12" fill="#52525B" text-anchor="middle">Probabilistic forecasts</text>
  <text x="540" y="660" font-family="system-ui, sans-serif" font-size="11" fill="#14B8A6" text-anchor="middle">14-day forecast horizon</text>
  
  <!-- Impact -->
  <rect x="700" y="550" width="280" height="120" fill="#FFFFFF" rx="8" stroke="#10B981" stroke-width="2"/>
  <text x="840" y="580" font-family="system-ui, sans-serif" font-size="14" font-weight="600" fill="#10B981" text-anchor="middle">💰 Business Impact</text>
  <line x1="720" y1="595" x2="960" y2="595" stroke="#E5E7EB" stroke-width="1"/>
  <text x="840" y="620" font-family="system-ui, sans-serif" font-size="12" fill="#52525B" text-anchor="middle">15% less overstock</text>
  <text x="840" y="640" font-family="system-ui, sans-serif" font-size="12" fill="#52525B" text-anchor="middle">30% fewer stockouts</text>
  <text x="840" y="660" font-family="system-ui, sans-serif" font-size="11" fill="#10B981" text-anchor="middle">$Billions saved annually</text>
  
  <!-- Forecasting visualization -->
  <rect x="100" y="690" width="450" height="150" fill="#FFFFFF" rx="8" stroke="#E5E7EB" stroke-width="1"/>
  <text x="325" y="720" font-family="system-ui, sans-serif" font-size="14" font-weight="600" fill="#18181B" text-anchor="middle">📊 Prime Day Demand Prediction</text>
  <line x1="120" y1="735" x2="530" y2="735" stroke="#E5E7EB" stroke-width="1"/>
  
  <!-- Mini chart -->
  <line x1="140" y1="810" x2="520" y2="810" stroke="#E5E7EB" stroke-width="1"/>
  
  <!-- Normal demand -->
  <path d="M150,800 L180,795 L210,800 L240,795 L270,800" fill="none" stroke="#14B8A6" stroke-width="2"/>
  
  <!-- Prime day spike prediction -->
  <path d="M270,800 L300,780 L330,750 L360,760 L390,795 L420,800 L450,798 L480,800" fill="none" stroke="#F59E0B" stroke-width="2" stroke-dasharray="5,3"/>
  
  <!-- Actual -->
  <path d="M270,800 L300,775 L330,745 L360,755 L390,790 L420,800" fill="none" stroke="#10B981" stroke-width="2"/>
  
  <circle cx="330" cy="745" r="4" fill="#10B981"/>
  <text x="340" y="760" font-family="system-ui, sans-serif" font-size="9" fill="#10B981">Prime Day</text>
  
  <text x="180" y="825" font-family="system-ui, sans-serif" font-size="9" fill="#14B8A6">Normal</text>
  <text x="370" y="825" font-family="system-ui, sans-serif" font-size="9" fill="#F59E0B">Forecast</text>
  <text x="450" y="825" font-family="system-ui, sans-serif" font-size="9" fill="#10B981">Actual</text>
  
  <!-- Factors considered -->
  <rect x="570" y="690" width="410" height="150" fill="#FFFFFF" rx="8" stroke="#E5E7EB" stroke-width="1"/>
  <text x="775" y="720" font-family="system-ui, sans-serif" font-size="14" font-weight="600" fill="#18181B" text-anchor="middle">🔍 Features Used</text>
  <line x1="590" y1="735" x2="960" y2="735" stroke="#E5E7EB" stroke-width="1"/>
  
  <text x="600" y="765" font-family="system-ui, sans-serif" font-size="11" fill="#52525B">• Historical sales data</text>
  <text x="600" y="785" font-family="system-ui, sans-serif" font-size="11" fill="#52525B">• Holiday calendar</text>
  <text x="600" y="805" font-family="system-ui, sans-serif" font-size="11" fill="#52525B">• Weather forecasts</text>
  <text x="600" y="825" font-family="system-ui, sans-serif" font-size="11" fill="#52525B">• Marketing campaigns</text>
  
  <text x="780" y="765" font-family="system-ui, sans-serif" font-size="11" fill="#52525B">• Price changes</text>
  <text x="780" y="785" font-family="system-ui, sans-serif" font-size="11" fill="#52525B">• Competitor data</text>
  <text x="780" y="805" font-family="system-ui, sans-serif" font-size="11" fill="#52525B">• Economic indicators</text>
  <text x="780" y="825" font-family="system-ui, sans-serif" font-size="11" fill="#52525B">• Social trends</text>
  
  <!-- Bottom insight -->
  <rect x="60" y="870" width="960" height="80" fill="#FFFFFF" rx="8" stroke="#E5E7EB" stroke-width="1"/>
  <text x="540" y="900" font-family="system-ui, sans-serif" font-size="18" font-weight="600" fill="#14B8A6" text-anchor="middle">Time Series ML Powers Modern Supply Chain</text>
  <text x="540" y="935" font-family="system-ui, sans-serif" font-size="14" fill="#52525B" text-anchor="middle">Every package at your door was predicted by ML months in advance</text>
  
  <!-- Footer -->
  <text x="540" y="1040" font-family="system-ui, sans-serif" font-size="14" fill="#A1A1AA" text-anchor="middle">@devweekends</text>
</svg>