<svg width="1080" height="1080" viewBox="0 0 1080 1080" fill="none" xmlns="http://www.w3.org/2000/svg">
  <rect width="1080" height="1080" fill="#FAFAFA"/>
  
  <!-- Header -->
  <text x="60" y="80" font-family="system-ui, sans-serif" font-size="14" font-weight="600" fill="#18181B" letter-spacing="3">DEV WEEKENDS</text>
  
  <!-- Topic Tag -->
  <rect x="60" y="140" width="180" height="40" fill="#14B8A6" rx="4"/>
  <text x="150" y="168" font-family="system-ui, sans-serif" font-size="12" font-weight="600" fill="#FFFFFF" text-anchor="middle" letter-spacing="2">ML MASTERY</text>
  
  <!-- Title -->
  <text x="60" y="280" font-family="system-ui, sans-serif" font-size="56" font-weight="700" fill="#18181B">Time Series</text>
  <text x="60" y="350" font-family="system-ui, sans-serif" font-size="56" font-weight="700" fill="#14B8A6">Forecasting</text>
  
  <!-- Subtitle -->
  <text x="60" y="400" font-family="system-ui, sans-serif" font-size="20" fill="#71717A">Predicting future values from sequential data</text>
  
  <!-- Main Diagram Area -->
  <rect x="60" y="440" width="960" height="420" fill="#F4F4F5" rx="8"/>
  
  <!-- Time series chart -->
  <rect x="100" y="480" width="860" height="250" fill="#FFFFFF" rx="8" stroke="#E5E7EB" stroke-width="1"/>
  
  <!-- Axes -->
  <line x1="140" y1="680" x2="920" y2="680" stroke="#E5E7EB" stroke-width="2"/>
  <line x1="140" y1="520" x2="140" y2="680" stroke="#E5E7EB" stroke-width="2"/>
  
  <text x="530" y="710" font-family="system-ui, sans-serif" font-size="12" fill="#52525B" text-anchor="middle">Time →</text>
  <text x="120" y="600" font-family="system-ui, sans-serif" font-size="12" fill="#52525B" text-anchor="middle" transform="rotate(-90, 120, 600)">Value</text>
  
  <!-- Historical data line -->
  <path d="M160,640 L200,620 L240,630 L280,600 L320,610 L360,580 L400,590 L440,560 L480,570 L520,550 L560,560 L600,540" 
        fill="none" stroke="#14B8A6" stroke-width="3"/>
  
  <!-- Historical points -->
  <circle cx="160" cy="640" r="5" fill="#14B8A6"/>
  <circle cx="200" cy="620" r="5" fill="#14B8A6"/>
  <circle cx="240" cy="630" r="5" fill="#14B8A6"/>
  <circle cx="280" cy="600" r="5" fill="#14B8A6"/>
  <circle cx="320" cy="610" r="5" fill="#14B8A6"/>
  <circle cx="360" cy="580" r="5" fill="#14B8A6"/>
  <circle cx="400" cy="590" r="5" fill="#14B8A6"/>
  <circle cx="440" cy="560" r="5" fill="#14B8A6"/>
  <circle cx="480" cy="570" r="5" fill="#14B8A6"/>
  <circle cx="520" cy="550" r="5" fill="#14B8A6"/>
  <circle cx="560" cy="560" r="5" fill="#14B8A6"/>
  <circle cx="600" cy="540" r="5" fill="#14B8A6"/>
  
  <!-- Vertical divider line (now/forecast boundary) -->
  <line x1="620" y1="510" x2="620" y2="690" stroke="#F59E0B" stroke-width="2" stroke-dasharray="5,3"/>
  <text x="620" y="505" font-family="system-ui, sans-serif" font-size="11" fill="#F59E0B" text-anchor="middle">Now</text>
  
  <!-- Forecast line -->
  <path d="M600,540 L640,530 L680,520 L720,510 L760,505 L800,500 L840,495 L880,490" 
        fill="none" stroke="#F59E0B" stroke-width="3" stroke-dasharray="8,4"/>
  
  <!-- Confidence interval -->
  <path d="M600,540 L640,545 L680,555 L720,560 L760,570 L800,580 L840,590 L880,600" 
        fill="none" stroke="#F59E0B" stroke-width="1" stroke-dasharray="3,2" opacity="0.5"/>
  <path d="M600,540 L640,515 L680,490 L720,470 L760,455 L800,440 L840,430 L880,420" 
        fill="none" stroke="#F59E0B" stroke-width="1" stroke-dasharray="3,2" opacity="0.5"/>
  
  <!-- Forecast points -->
  <circle cx="640" cy="530" r="5" fill="#F59E0B"/>
  <circle cx="680" cy="520" r="5" fill="#F59E0B"/>
  <circle cx="720" cy="510" r="5" fill="#F59E0B"/>
  <circle cx="760" cy="505" r="5" fill="#F59E0B"/>
  <circle cx="800" cy="500" r="5" fill="#F59E0B"/>
  <circle cx="840" cy="495" r="5" fill="#F59E0B"/>
  <circle cx="880" cy="490" r="5" fill="#F59E0B"/>
  
  <!-- Legend -->
  <rect x="700" y="520" width="15" height="3" fill="#14B8A6"/>
  <text x="720" y="525" font-family="system-ui, sans-serif" font-size="10" fill="#52525B">Historical</text>
  <rect x="780" y="520" width="15" height="3" fill="#F59E0B"/>
  <text x="800" y="525" font-family="system-ui, sans-serif" font-size="10" fill="#52525B">Forecast</text>
  
  <!-- Components -->
  <rect x="100" y="755" width="200" height="100" fill="#FFFFFF" rx="8" stroke="#14B8A6" stroke-width="2"/>
  <text x="200" y="785" font-family="system-ui, sans-serif" font-size="14" font-weight="600" fill="#14B8A6" text-anchor="middle">📈 Trend</text>
  <text x="200" y="815" font-family="system-ui, sans-serif" font-size="11" fill="#52525B" text-anchor="middle">Long-term direction</text>
  <text x="200" y="835" font-family="system-ui, sans-serif" font-size="11" fill="#52525B" text-anchor="middle">↗ Upward / ↘ Downward</text>
  
  <rect x="320" y="755" width="200" height="100" fill="#FFFFFF" rx="8" stroke="#8B5CF6" stroke-width="2"/>
  <text x="420" y="785" font-family="system-ui, sans-serif" font-size="14" font-weight="600" fill="#8B5CF6" text-anchor="middle">🔄 Seasonality</text>
  <text x="420" y="815" font-family="system-ui, sans-serif" font-size="11" fill="#52525B" text-anchor="middle">Repeating patterns</text>
  <text x="420" y="835" font-family="system-ui, sans-serif" font-size="11" fill="#52525B" text-anchor="middle">Daily, Weekly, Yearly</text>
  
  <rect x="540" y="755" width="200" height="100" fill="#FFFFFF" rx="8" stroke="#EC4899" stroke-width="2"/>
  <text x="640" y="785" font-family="system-ui, sans-serif" font-size="14" font-weight="600" fill="#EC4899" text-anchor="middle">📊 Cycles</text>
  <text x="640" y="815" font-family="system-ui, sans-serif" font-size="11" fill="#52525B" text-anchor="middle">Non-fixed fluctuations</text>
  <text x="640" y="835" font-family="system-ui, sans-serif" font-size="11" fill="#52525B" text-anchor="middle">Economic cycles</text>
  
  <rect x="760" y="755" width="200" height="100" fill="#FFFFFF" rx="8" stroke="#71717A" stroke-width="2"/>
  <text x="860" y="785" font-family="system-ui, sans-serif" font-size="14" font-weight="600" fill="#71717A" text-anchor="middle">🎲 Noise</text>
  <text x="860" y="815" font-family="system-ui, sans-serif" font-size="11" fill="#52525B" text-anchor="middle">Random variation</text>
  <text x="860" y="835" font-family="system-ui, sans-serif" font-size="11" fill="#52525B" text-anchor="middle">Unpredictable</text>
  
  <!-- Bottom insight -->
  <rect x="60" y="870" width="960" height="80" fill="#FFFFFF" rx="8" stroke="#E5E7EB" stroke-width="1"/>
  <text x="540" y="900" font-family="system-ui, sans-serif" font-size="18" font-weight="600" fill="#14B8A6" text-anchor="middle">Time = Y(trend) + S(season) + C(cycle) + ε(noise)</text>
  <text x="540" y="935" font-family="system-ui, sans-serif" font-size="14" fill="#52525B" text-anchor="middle">Decompose series into components, then forecast each separately</text>
  
  <!-- Footer -->
  <text x="540" y="1040" font-family="system-ui, sans-serif" font-size="14" fill="#A1A1AA" text-anchor="middle">@devweekends</text>
</svg>