<svg xmlns="http://www.w3.org/2000/svg" viewBox="0 0 900 450">
  <!-- SVD: How Netflix Recommendations Work -->
  <!-- Background -->
  <rect width="900" height="450" fill="#f8fafc"/>
  
  <!-- Title -->
  <text x="450" y="40" font-family="Arial, sans-serif" font-size="22" font-weight="bold" fill="#1e293b" text-anchor="middle">SVD: How Netflix Predicts Your Ratings</text>
  <text x="450" y="62" font-family="Arial, sans-serif" font-size="13" fill="#64748b" text-anchor="middle">Finding hidden patterns in incomplete data</text>
  
  <!-- LEFT: User-Movie Matrix with gaps -->
  <g transform="translate(40, 90)">
    <rect x="0" y="0" width="260" height="280" fill="#ffffff" rx="8" stroke="#e2e8f0" stroke-width="1"/>
    
    <text x="130" y="28" font-family="Arial, sans-serif" font-size="13" font-weight="bold" fill="#1e293b" text-anchor="middle">Ratings Matrix</text>
    <text x="130" y="45" font-family="Arial, sans-serif" font-size="10" fill="#64748b" text-anchor="middle">(50% missing!)</text>
    
    <!-- Column headers (movies) -->
    <text x="75" y="70" font-family="Arial, sans-serif" font-size="9" fill="#64748b" text-anchor="middle">M1</text>
    <text x="105" y="70" font-family="Arial, sans-serif" font-size="9" fill="#64748b" text-anchor="middle">M2</text>
    <text x="135" y="70" font-family="Arial, sans-serif" font-size="9" fill="#64748b" text-anchor="middle">M3</text>
    <text x="165" y="70" font-family="Arial, sans-serif" font-size="9" fill="#64748b" text-anchor="middle">M4</text>
    <text x="195" y="70" font-family="Arial, sans-serif" font-size="9" fill="#64748b" text-anchor="middle">M5</text>
    <text x="225" y="70" font-family="Arial, sans-serif" font-size="9" fill="#64748b" text-anchor="middle">M6</text>
    
    <!-- Row labels and data -->
    <!-- User 1 -->
    <text x="30" y="95" font-family="Arial, sans-serif" font-size="10" fill="#64748b">Alice</text>
    <rect x="60" y="80" width="28" height="22" fill="#dcfce7" rx="3"/>
    <text x="74" y="95" font-family="Arial, sans-serif" font-size="11" font-weight="bold" fill="#166534" text-anchor="middle">5</text>
    <rect x="90" y="80" width="28" height="22" fill="#dcfce7" rx="3"/>
    <text x="104" y="95" font-family="Arial, sans-serif" font-size="11" font-weight="bold" fill="#166534" text-anchor="middle">4</text>
    <rect x="120" y="80" width="28" height="22" fill="#f1f5f9" rx="3"/>
    <text x="134" y="95" font-family="Arial, sans-serif" font-size="11" fill="#94a3b8" text-anchor="middle">?</text>
    <rect x="150" y="80" width="28" height="22" fill="#fee2e2" rx="3"/>
    <text x="164" y="95" font-family="Arial, sans-serif" font-size="11" font-weight="bold" fill="#dc2626" text-anchor="middle">1</text>
    <rect x="180" y="80" width="28" height="22" fill="#f1f5f9" rx="3"/>
    <text x="194" y="95" font-family="Arial, sans-serif" font-size="11" fill="#94a3b8" text-anchor="middle">?</text>
    <rect x="210" y="80" width="28" height="22" fill="#f1f5f9" rx="3"/>
    <text x="224" y="95" font-family="Arial, sans-serif" font-size="11" fill="#94a3b8" text-anchor="middle">?</text>
    
    <!-- User 2 -->
    <text x="30" y="125" font-family="Arial, sans-serif" font-size="10" fill="#64748b">Bob</text>
    <rect x="60" y="110" width="28" height="22" fill="#dcfce7" rx="3"/>
    <text x="74" y="125" font-family="Arial, sans-serif" font-size="11" font-weight="bold" fill="#166534" text-anchor="middle">4</text>
    <rect x="90" y="110" width="28" height="22" fill="#f1f5f9" rx="3"/>
    <text x="104" y="125" font-family="Arial, sans-serif" font-size="11" fill="#94a3b8" text-anchor="middle">?</text>
    <rect x="120" y="110" width="28" height="22" fill="#f1f5f9" rx="3"/>
    <text x="134" y="125" font-family="Arial, sans-serif" font-size="11" fill="#94a3b8" text-anchor="middle">?</text>
    <rect x="150" y="110" width="28" height="22" fill="#fee2e2" rx="3"/>
    <text x="164" y="125" font-family="Arial, sans-serif" font-size="11" font-weight="bold" fill="#dc2626" text-anchor="middle">1</text>
    <rect x="180" y="110" width="28" height="22" fill="#f1f5f9" rx="3"/>
    <text x="194" y="125" font-family="Arial, sans-serif" font-size="11" fill="#94a3b8" text-anchor="middle">?</text>
    <rect x="210" y="110" width="28" height="22" fill="#f1f5f9" rx="3"/>
    <text x="224" y="125" font-family="Arial, sans-serif" font-size="11" fill="#94a3b8" text-anchor="middle">?</text>
    
    <!-- User 3 -->
    <text x="30" y="155" font-family="Arial, sans-serif" font-size="10" fill="#64748b">Carol</text>
    <rect x="60" y="140" width="28" height="22" fill="#fee2e2" rx="3"/>
    <text x="74" y="155" font-family="Arial, sans-serif" font-size="11" font-weight="bold" fill="#dc2626" text-anchor="middle">1</text>
    <rect x="90" y="140" width="28" height="22" fill="#fee2e2" rx="3"/>
    <text x="104" y="155" font-family="Arial, sans-serif" font-size="11" font-weight="bold" fill="#dc2626" text-anchor="middle">1</text>
    <rect x="120" y="140" width="28" height="22" fill="#f1f5f9" rx="3"/>
    <text x="134" y="155" font-family="Arial, sans-serif" font-size="11" fill="#94a3b8" text-anchor="middle">?</text>
    <rect x="150" y="140" width="28" height="22" fill="#dcfce7" rx="3"/>
    <text x="164" y="155" font-family="Arial, sans-serif" font-size="11" font-weight="bold" fill="#166534" text-anchor="middle">5</text>
    <rect x="180" y="140" width="28" height="22" fill="#dcfce7" rx="3"/>
    <text x="194" y="155" font-family="Arial, sans-serif" font-size="11" font-weight="bold" fill="#166534" text-anchor="middle">4</text>
    <rect x="210" y="140" width="28" height="22" fill="#dcfce7" rx="3"/>
    <text x="224" y="155" font-family="Arial, sans-serif" font-size="11" font-weight="bold" fill="#166534" text-anchor="middle">5</text>
    
    <!-- User 4 -->
    <text x="30" y="185" font-family="Arial, sans-serif" font-size="10" fill="#64748b">Dave</text>
    <rect x="60" y="170" width="28" height="22" fill="#f1f5f9" rx="3"/>
    <text x="74" y="185" font-family="Arial, sans-serif" font-size="11" fill="#94a3b8" text-anchor="middle">?</text>
    <rect x="90" y="170" width="28" height="22" fill="#f1f5f9" rx="3"/>
    <text x="104" y="185" font-family="Arial, sans-serif" font-size="11" fill="#94a3b8" text-anchor="middle">?</text>
    <rect x="120" y="170" width="28" height="22" fill="#f1f5f9" rx="3"/>
    <text x="134" y="185" font-family="Arial, sans-serif" font-size="11" fill="#94a3b8" text-anchor="middle">?</text>
    <rect x="150" y="170" width="28" height="22" fill="#dcfce7" rx="3"/>
    <text x="164" y="185" font-family="Arial, sans-serif" font-size="11" font-weight="bold" fill="#166534" text-anchor="middle">4</text>
    <rect x="180" y="170" width="28" height="22" fill="#dcfce7" rx="3"/>
    <text x="194" y="185" font-family="Arial, sans-serif" font-size="11" font-weight="bold" fill="#166534" text-anchor="middle">5</text>
    <rect x="210" y="170" width="28" height="22" fill="#dcfce7" rx="3"/>
    <text x="224" y="185" font-family="Arial, sans-serif" font-size="11" font-weight="bold" fill="#166534" text-anchor="middle">4</text>
    
    <!-- Legend -->
    <g transform="translate(20, 210)">
      <rect x="0" y="0" width="220" height="55" fill="#f8fafc" rx="4"/>
      <rect x="10" y="10" width="18" height="14" fill="#dcfce7" rx="2"/>
      <text x="35" y="21" font-family="Arial, sans-serif" font-size="9" fill="#64748b">High rating (liked)</text>
      <rect x="120" y="10" width="18" height="14" fill="#fee2e2" rx="2"/>
      <text x="145" y="21" font-family="Arial, sans-serif" font-size="9" fill="#64748b">Low rating</text>
      <rect x="10" y="32" width="18" height="14" fill="#f1f5f9" rx="2"/>
      <text x="35" y="43" font-family="Arial, sans-serif" font-size="9" fill="#64748b">? = Unknown (predict!)</text>
    </g>
  </g>
  
  <!-- SVD Arrow -->
  <g transform="translate(315, 200)">
    <text x="0" y="-10" font-family="Arial, sans-serif" font-size="12" font-weight="bold" fill="#7c3aed" text-anchor="middle">SVD</text>
    <text x="0" y="25" font-family="Arial, sans-serif" font-size="28" fill="#7c3aed" text-anchor="middle">→</text>
  </g>
  
  <!-- MIDDLE: Hidden Factors -->
  <g transform="translate(350, 90)">
    <rect x="0" y="0" width="200" height="280" fill="#ffffff" rx="8" stroke="#e2e8f0" stroke-width="1"/>
    
    <text x="100" y="28" font-family="Arial, sans-serif" font-size="13" font-weight="bold" fill="#1e293b" text-anchor="middle">Hidden Factors Found!</text>
    
    <!-- Factor 1: Action -->
    <g transform="translate(15, 50)">
      <rect x="0" y="0" width="170" height="70" fill="#fee2e2" rx="6" stroke="#ef4444" stroke-width="2"/>
      <text x="85" y="22" font-family="Arial, sans-serif" font-size="11" font-weight="bold" fill="#dc2626" text-anchor="middle">Factor 1: ACTION</text>
      <text x="85" y="42" font-family="Arial, sans-serif" font-size="9" fill="#b91c1c" text-anchor="middle">M1, M2 = Action movies</text>
      <text x="85" y="58" font-family="Arial, sans-serif" font-size="9" fill="#b91c1c" text-anchor="middle">Alice, Bob love action!</text>
    </g>
    
    <!-- Factor 2: Romance -->
    <g transform="translate(15, 135)">
      <rect x="0" y="0" width="170" height="70" fill="#fce7f3" rx="6" stroke="#ec4899" stroke-width="2"/>
      <text x="85" y="22" font-family="Arial, sans-serif" font-size="11" font-weight="bold" fill="#db2777" text-anchor="middle">Factor 2: ROMANCE</text>
      <text x="85" y="42" font-family="Arial, sans-serif" font-size="9" fill="#be185d" text-anchor="middle">M4, M5, M6 = Romance</text>
      <text x="85" y="58" font-family="Arial, sans-serif" font-size="9" fill="#be185d" text-anchor="middle">Carol, Dave love romance!</text>
    </g>
    
    <!-- Insight -->
    <g transform="translate(15, 220)">
      <rect x="0" y="0" width="170" height="45" fill="#f0fdf4" rx="4"/>
      <text x="85" y="18" font-family="Arial, sans-serif" font-size="10" font-weight="bold" fill="#166534" text-anchor="middle">2 hidden factors</text>
      <text x="85" y="35" font-family="Arial, sans-serif" font-size="10" fill="#166534" text-anchor="middle">explain all preferences!</text>
    </g>
  </g>
  
  <!-- Predict Arrow -->
  <g transform="translate(565, 200)">
    <text x="0" y="-10" font-family="Arial, sans-serif" font-size="12" font-weight="bold" fill="#22c55e" text-anchor="middle">Predict</text>
    <text x="0" y="25" font-family="Arial, sans-serif" font-size="28" fill="#22c55e" text-anchor="middle">→</text>
  </g>
  
  <!-- RIGHT: Predictions -->
  <g transform="translate(600, 90)">
    <rect x="0" y="0" width="260" height="280" fill="#ffffff" rx="8" stroke="#e2e8f0" stroke-width="1"/>
    
    <text x="130" y="28" font-family="Arial, sans-serif" font-size="13" font-weight="bold" fill="#1e293b" text-anchor="middle">Predicted Ratings!</text>
    
    <!-- Predictions for Alice -->
    <g transform="translate(20, 55)">
      <text x="0" y="0" font-family="Arial, sans-serif" font-size="11" font-weight="bold" fill="#1e293b">Alice's missing ratings:</text>
      
      <rect x="0" y="15" width="220" height="40" fill="#dbeafe" rx="4"/>
      <text x="10" y="35" font-family="Arial, sans-serif" font-size="10" fill="#1e40af">M3 (Action): predicted 4.2</text>
      <text x="10" y="48" font-family="Arial, sans-serif" font-size="10" fill="#1e40af">M5, M6 (Romance): predicted 0.5</text>
    </g>
    
    <!-- Predictions for Dave -->
    <g transform="translate(20, 120)">
      <text x="0" y="0" font-family="Arial, sans-serif" font-size="11" font-weight="bold" fill="#1e293b">Dave's missing ratings:</text>
      
      <rect x="0" y="15" width="220" height="40" fill="#dbeafe" rx="4"/>
      <text x="10" y="35" font-family="Arial, sans-serif" font-size="10" fill="#1e40af">M1, M2 (Action): predicted 0.8</text>
      <text x="10" y="48" font-family="Arial, sans-serif" font-size="10" fill="#1e40af">M3: predicted 0.5</text>
    </g>
    
    <!-- The magic -->
    <g transform="translate(20, 185)">
      <rect x="0" y="0" width="220" height="80" fill="#fef3c7" rx="6" stroke="#f59e0b" stroke-width="2"/>
      <text x="110" y="22" font-family="Arial, sans-serif" font-size="11" font-weight="bold" fill="#92400e" text-anchor="middle">The Magic</text>
      <text x="110" y="42" font-family="Arial, sans-serif" font-size="10" fill="#78350f" text-anchor="middle">SVD discovered that Alice</text>
      <text x="110" y="56" font-family="Arial, sans-serif" font-size="10" fill="#78350f" text-anchor="middle">is an "action fan" without us</text>
      <text x="110" y="70" font-family="Arial, sans-serif" font-size="10" fill="#78350f" text-anchor="middle">ever labeling the movies!</text>
    </g>
  </g>
  
  <!-- Bottom insight -->
  <rect x="150" y="390" width="600" height="35" fill="#f0fdf4" rx="6" stroke="#22c55e" stroke-width="1"/>
  <text x="450" y="413" font-family="Arial, sans-serif" font-size="12" fill="#166534" text-anchor="middle">Netflix uses SVD with ~50 hidden factors to predict billions of ratings!</text>
  
  <!-- DevWeekends Branding -->
  <text x="880" y="440" font-family="Arial, sans-serif" font-size="10" fill="#94a3b8" text-anchor="end">devweekends</text>
</svg>
