<svg viewBox="0 0 1080 1080" xmlns="http://www.w3.org/2000/svg">
  <defs>
    <linearGradient id="bgGradient" x1="0%" y1="0%" x2="100%" y2="100%">
      <stop offset="0%" style="stop-color:#18181B"/>
      <stop offset="100%" style="stop-color:#09090B"/>
    </linearGradient>
  </defs>
  
  <rect width="1080" height="1080" fill="url(#bgGradient)"/>
  
  <!-- VGG-style (stacked) -->
  <g transform="translate(100, 280)">
    <text x="100" y="-20" fill="#3B82F6" font-family="system-ui" font-size="24" text-anchor="middle" font-weight="bold">VGG</text>
    <rect x="20" y="0" width="160" height="40" rx="5" fill="#3B82F6" opacity="0.8"/>
    <rect x="20" y="50" width="160" height="40" rx="5" fill="#3B82F6" opacity="0.7"/>
    <rect x="20" y="100" width="160" height="40" rx="5" fill="#3B82F6" opacity="0.6"/>
    <rect x="20" y="150" width="160" height="40" rx="5" fill="#3B82F6" opacity="0.5"/>
    <rect x="20" y="200" width="160" height="40" rx="5" fill="#3B82F6" opacity="0.4"/>
    <line x1="100" y1="260" x2="100" y2="300" stroke="#6B7280" stroke-width="2" stroke-dasharray="5,5"/>
  </g>
  
  <!-- ResNet-style (with skip) -->
  <g transform="translate(350, 280)">
    <text x="100" y="-20" fill="#22C55E" font-family="system-ui" font-size="24" text-anchor="middle" font-weight="bold">ResNet</text>
    <rect x="20" y="0" width="160" height="80" rx="5" fill="#22C55E" opacity="0.7"/>
    <rect x="20" y="100" width="160" height="80" rx="5" fill="#22C55E" opacity="0.6"/>
    <rect x="20" y="200" width="160" height="80" rx="5" fill="#22C55E" opacity="0.5"/>
    <!-- Skip connections -->
    <path d="M0,40 C-30,40 -30,140 0,140" fill="none" stroke="#22C55E" stroke-width="3"/>
    <path d="M0,140 C-30,140 -30,240 0,240" fill="none" stroke="#22C55E" stroke-width="3"/>
  </g>
  
  <!-- Inception-style (parallel) -->
  <g transform="translate(600, 280)">
    <text x="100" y="-20" fill="#A855F7" font-family="system-ui" font-size="24" text-anchor="middle" font-weight="bold">Inception</text>
    <rect x="70" y="0" width="60" height="40" rx="5" fill="#A855F7" opacity="0.8"/>
    <!-- Parallel branches -->
    <rect x="0" y="60" width="40" height="60" rx="5" fill="#A855F7" opacity="0.6"/>
    <rect x="50" y="60" width="40" height="60" rx="5" fill="#A855F7" opacity="0.6"/>
    <rect x="100" y="60" width="40" height="60" rx="5" fill="#A855F7" opacity="0.6"/>
    <rect x="150" y="60" width="40" height="60" rx="5" fill="#A855F7" opacity="0.6"/>
    <!-- Concat -->
    <rect x="20" y="140" width="160" height="40" rx="5" fill="#A855F7" opacity="0.7"/>
  </g>
  
  <!-- DenseNet-style (dense connections) -->
  <g transform="translate(850, 280)">
    <text x="50" y="-20" fill="#F59E0B" font-family="system-ui" font-size="24" text-anchor="middle" font-weight="bold">DenseNet</text>
    <rect x="0" y="0" width="100" height="50" rx="5" fill="#F59E0B" opacity="0.8"/>
    <rect x="0" y="70" width="100" height="50" rx="5" fill="#F59E0B" opacity="0.7"/>
    <rect x="0" y="140" width="100" height="50" rx="5" fill="#F59E0B" opacity="0.6"/>
    <rect x="0" y="210" width="100" height="50" rx="5" fill="#F59E0B" opacity="0.5"/>
    <!-- Dense connections -->
    <path d="M110,25 L110,95" fill="none" stroke="#F59E0B" stroke-width="2"/>
    <path d="M120,25 L120,165" fill="none" stroke="#F59E0B" stroke-width="2"/>
    <path d="M130,25 L130,235" fill="none" stroke="#F59E0B" stroke-width="2"/>
    <path d="M110,95 L110,165" fill="none" stroke="#F59E0B" stroke-width="2"/>
    <path d="M120,95 L120,235" fill="none" stroke="#F59E0B" stroke-width="2"/>
  </g>
  
  <!-- EfficientNet scaling -->
  <g transform="translate(200, 650)">
    <text x="340" y="0" fill="#FAFAFA" font-family="system-ui" font-size="28" text-anchor="middle" font-weight="bold">EfficientNet: Compound Scaling</text>
    
    <!-- Depth -->
    <g transform="translate(0, 40)">
      <text x="0" y="30" fill="#6B7280" font-family="system-ui" font-size="20">Depth</text>
      <rect x="80" y="10" width="40" height="40" rx="5" fill="#3B82F6"/>
      <rect x="130" y="10" width="40" height="40" rx="5" fill="#3B82F6"/>
      <rect x="180" y="10" width="40" height="40" rx="5" fill="#3B82F6" opacity="0.5" stroke="#3B82F6" stroke-width="2" stroke-dasharray="4"/>
    </g>
    
    <!-- Width -->
    <g transform="translate(250, 40)">
      <text x="0" y="30" fill="#6B7280" font-family="system-ui" font-size="20">Width</text>
      <rect x="80" y="0" width="100" height="60" rx="5" fill="#22C55E"/>
      <rect x="190" y="0" width="30" height="60" rx="5" fill="#22C55E" opacity="0.5" stroke="#22C55E" stroke-width="2" stroke-dasharray="4"/>
    </g>
    
    <!-- Resolution -->
    <g transform="translate(500, 40)">
      <text x="0" y="30" fill="#6B7280" font-family="system-ui" font-size="20">Resolution</text>
      <rect x="100" y="5" width="50" height="50" rx="5" fill="#A855F7"/>
      <rect x="160" y="0" width="60" height="60" rx="5" fill="#A855F7" opacity="0.5" stroke="#A855F7" stroke-width="2" stroke-dasharray="4"/>
    </g>
  </g>
  
  <!-- Architecture comparison metrics -->
  <g transform="translate(200, 820)">
    <text x="0" y="0" fill="#6B7280" font-family="system-ui" font-size="18">Params:</text>
    <text x="80" y="0" fill="#3B82F6" font-family="system-ui" font-size="18">138M</text>
    <text x="160" y="0" fill="#22C55E" font-family="system-ui" font-size="18">25M</text>
    <text x="240" y="0" fill="#A855F7" font-family="system-ui" font-size="18">23M</text>
    <text x="320" y="0" fill="#F59E0B" font-family="system-ui" font-size="18">8M</text>
    
    <text x="0" y="35" fill="#6B7280" font-family="system-ui" font-size="18">Top-1:</text>
    <text x="80" y="35" fill="#3B82F6" font-family="system-ui" font-size="18">71.5%</text>
    <text x="160" y="35" fill="#22C55E" font-family="system-ui" font-size="18">76.1%</text>
    <text x="240" y="35" fill="#A855F7" font-family="system-ui" font-size="18">78.8%</text>
    <text x="320" y="35" fill="#F59E0B" font-family="system-ui" font-size="18">76.8%</text>
  </g>
  
  <!-- Title -->
  <text x="540" y="120" fill="#FAFAFA" font-family="system-ui" font-size="56" text-anchor="middle" font-weight="bold">CNN Architectures</text>
  <text x="540" y="180" fill="#6B7280" font-family="system-ui" font-size="32" text-anchor="middle">Evolution of Design Patterns</text>
  
  <!-- Branding -->
  <text x="540" y="1020" fill="#6B7280" font-family="system-ui" font-size="24" text-anchor="middle">DEV WEEKENDS</text>
</svg>