<svg viewBox="0 0 1080 1080" xmlns="http://www.w3.org/2000/svg">
  <defs>
    <linearGradient id="bgGrad" x1="0%" y1="0%" x2="100%" y2="100%">
      <stop offset="0%" style="stop-color:#18181B"/>
      <stop offset="100%" style="stop-color:#1f1f23"/>
    </linearGradient>
  </defs>
  
  <!-- Background -->
  <rect width="1080" height="1080" fill="url(#bgGrad)"/>
  
  <!-- Header -->
  <text x="540" y="80" font-family="system-ui, sans-serif" font-size="32" font-weight="600" fill="#FAFAFA" text-anchor="middle">DEV WEEKENDS</text>
  
  <!-- Title -->
  <text x="540" y="160" font-family="system-ui, sans-serif" font-size="42" font-weight="700" fill="#FAFAFA" text-anchor="middle">Diffusion Models</text>
  <text x="540" y="205" font-family="system-ui, sans-serif" font-size="22" fill="#9CA3AF" text-anchor="middle">Learning to Denoise</text>
  
  <!-- Diffusion Process -->
  <g transform="translate(540, 450)">
    <!-- Forward Process (Adding Noise) -->
    <text x="0" y="-200" font-family="system-ui, sans-serif" font-size="20" font-weight="600" fill="#EF4444" text-anchor="middle">Forward Process: q(xₜ|xₜ₋₁)</text>
    
    <!-- Clean Image -->
    <g transform="translate(-350, -100)">
      <rect x="-50" y="-50" width="100" height="100" rx="8" fill="#22C55E"/>
      <text x="0" y="70" font-family="system-ui, sans-serif" font-size="14" fill="#22C55E" text-anchor="middle">x₀ (Clean)</text>
    </g>
    
    <!-- Arrow -->
    <path d="M -280 -100 L -220 -100" stroke="#EF4444" stroke-width="2" marker-end="url(#arrowRed)"/>
    <text x="-250" y="-120" font-family="system-ui, sans-serif" font-size="12" fill="#EF4444" text-anchor="middle">+noise</text>
    
    <!-- Slightly noisy -->
    <g transform="translate(-170, -100)">
      <rect x="-50" y="-50" width="100" height="100" rx="8" fill="#22C55E" opacity="0.8"/>
      <rect x="-40" y="-40" width="80" height="80" fill="url(#noise1)" opacity="0.3"/>
      <text x="0" y="70" font-family="system-ui, sans-serif" font-size="14" fill="#9CA3AF" text-anchor="middle">x₁</text>
    </g>
    
    <!-- Arrow -->
    <path d="M -100 -100 L -40 -100" stroke="#EF4444" stroke-width="2" marker-end="url(#arrowRed)"/>
    
    <!-- More noisy -->
    <g transform="translate(10, -100)">
      <rect x="-50" y="-50" width="100" height="100" rx="8" fill="#22C55E" opacity="0.5"/>
      <rect x="-40" y="-40" width="80" height="80" fill="url(#noise2)" opacity="0.5"/>
      <text x="0" y="70" font-family="system-ui, sans-serif" font-size="14" fill="#9CA3AF" text-anchor="middle">xₜ</text>
    </g>
    
    <!-- Arrow -->
    <path d="M 80 -100 L 140 -100" stroke="#EF4444" stroke-width="2" marker-end="url(#arrowRed)"/>
    <text x="110" y="-120" font-family="system-ui, sans-serif" font-size="12" fill="#EF4444" text-anchor="middle">...</text>
    
    <!-- Pure Noise -->
    <g transform="translate(200, -100)">
      <rect x="-50" y="-50" width="100" height="100" rx="8" fill="#6B7280"/>
      <rect x="-40" y="-40" width="80" height="80" fill="url(#noise3)" opacity="0.8"/>
      <text x="0" y="70" font-family="system-ui, sans-serif" font-size="14" fill="#9CA3AF" text-anchor="middle">xₜ (Noise)</text>
    </g>
    
    <!-- Reverse Process (Denoising) -->
    <text x="0" y="50" font-family="system-ui, sans-serif" font-size="20" font-weight="600" fill="#3B82F6" text-anchor="middle">Reverse Process: p_θ(xₜ₋₁|xₜ)</text>
    
    <!-- Pure Noise -->
    <g transform="translate(200, 150)">
      <rect x="-50" y="-50" width="100" height="100" rx="8" fill="#6B7280"/>
      <rect x="-40" y="-40" width="80" height="80" fill="url(#noise3)" opacity="0.8"/>
      <text x="0" y="70" font-family="system-ui, sans-serif" font-size="14" fill="#9CA3AF" text-anchor="middle">xₜ (Noise)</text>
    </g>
    
    <!-- Arrow -->
    <path d="M 130 150 L 70 150" stroke="#3B82F6" stroke-width="2" marker-end="url(#arrowBlue)"/>
    <text x="100" y="130" font-family="system-ui, sans-serif" font-size="12" fill="#3B82F6" text-anchor="middle">-noise</text>
    
    <!-- Less noisy -->
    <g transform="translate(10, 150)">
      <rect x="-50" y="-50" width="100" height="100" rx="8" fill="#22C55E" opacity="0.5"/>
      <rect x="-40" y="-40" width="80" height="80" fill="url(#noise2)" opacity="0.5"/>
    </g>
    
    <!-- Arrow -->
    <path d="M -50 150 L -110 150" stroke="#3B82F6" stroke-width="2" marker-end="url(#arrowBlue)"/>
    
    <!-- Cleaner -->
    <g transform="translate(-170, 150)">
      <rect x="-50" y="-50" width="100" height="100" rx="8" fill="#22C55E" opacity="0.8"/>
      <rect x="-40" y="-40" width="80" height="80" fill="url(#noise1)" opacity="0.3"/>
    </g>
    
    <!-- Arrow -->
    <path d="M -230 150 L -290 150" stroke="#3B82F6" stroke-width="2" marker-end="url(#arrowBlue)"/>
    
    <!-- Clean -->
    <g transform="translate(-350, 150)">
      <rect x="-50" y="-50" width="100" height="100" rx="8" fill="#22C55E"/>
      <text x="0" y="70" font-family="system-ui, sans-serif" font-size="14" fill="#22C55E" text-anchor="middle">x₀ (Generated)</text>
    </g>
    
    <!-- UNet in the middle -->
    <rect x="-60" y="100" width="120" height="50" rx="8" fill="#A855F7"/>
    <text x="0" y="130" font-family="system-ui, sans-serif" font-size="16" fill="#FAFAFA" text-anchor="middle">UNet ε_θ</text>
  </g>
  
  <!-- Noise patterns -->
  <defs>
    <pattern id="noise1" x="0" y="0" width="8" height="8" patternUnits="userSpaceOnUse">
      <rect x="0" y="0" width="4" height="4" fill="#6B7280"/>
      <rect x="4" y="4" width="4" height="4" fill="#6B7280"/>
    </pattern>
    <pattern id="noise2" x="0" y="0" width="6" height="6" patternUnits="userSpaceOnUse">
      <rect x="0" y="0" width="3" height="3" fill="#6B7280"/>
      <rect x="3" y="3" width="3" height="3" fill="#6B7280"/>
    </pattern>
    <pattern id="noise3" x="0" y="0" width="4" height="4" patternUnits="userSpaceOnUse">
      <rect x="0" y="0" width="2" height="2" fill="#9CA3AF"/>
      <rect x="2" y="2" width="2" height="2" fill="#4B5563"/>
    </pattern>
    <marker id="arrowRed" markerWidth="10" markerHeight="7" refX="9" refY="3.5" orient="auto">
      <polygon points="0 0, 10 3.5, 0 7" fill="#EF4444"/>
    </marker>
    <marker id="arrowBlue" markerWidth="10" markerHeight="7" refX="9" refY="3.5" orient="auto">
      <polygon points="0 0, 10 3.5, 0 7" fill="#3B82F6"/>
    </marker>
  </defs>
  
  <!-- Training Objective -->
  <rect x="140" y="780" width="800" height="70" rx="12" fill="#27272A"/>
  <text x="540" y="822" font-family="system-ui, sans-serif" font-size="20" fill="#FAFAFA" text-anchor="middle">ℒ = 𝔼[‖ε - ε_θ(xₜ, t)‖²]  (Predict the noise)</text>
  
  <!-- Applications -->
  <g transform="translate(140, 890)">
    <rect x="0" y="0" width="160" height="45" rx="8" fill="#3B82F6" opacity="0.2"/>
    <text x="80" y="28" font-family="system-ui, sans-serif" font-size="14" fill="#3B82F6" text-anchor="middle">DALL-E</text>
  </g>
  <g transform="translate(320, 890)">
    <rect x="0" y="0" width="160" height="45" rx="8" fill="#A855F7" opacity="0.2"/>
    <text x="80" y="28" font-family="system-ui, sans-serif" font-size="14" fill="#A855F7" text-anchor="middle">Stable Diffusion</text>
  </g>
  <g transform="translate(500, 890)">
    <rect x="0" y="0" width="160" height="45" rx="8" fill="#22C55E" opacity="0.2"/>
    <text x="80" y="28" font-family="system-ui, sans-serif" font-size="14" fill="#22C55E" text-anchor="middle">Midjourney</text>
  </g>
  <g transform="translate(680, 890)">
    <rect x="0" y="0" width="160" height="45" rx="8" fill="#F59E0B" opacity="0.2"/>
    <text x="80" y="28" font-family="system-ui, sans-serif" font-size="14" fill="#F59E0B" text-anchor="middle">Imagen</text>
  </g>
  
  <!-- Footer -->
  <text x="540" y="1040" font-family="system-ui, sans-serif" font-size="20" fill="#6B7280" text-anchor="middle">@devweekends</text>
</svg>