<svg viewBox="0 0 1080 1080" xmlns="http://www.w3.org/2000/svg">
  <defs>
    <linearGradient id="bgGradient" x1="0%" y1="0%" x2="100%" y2="100%">
      <stop offset="0%" style="stop-color:#18181B"/>
      <stop offset="100%" style="stop-color:#09090B"/>
    </linearGradient>
  </defs>
  
  <rect width="1080" height="1080" fill="url(#bgGradient)"/>
  
  <!-- Efficiency Metrics -->
  <g transform="translate(100, 230)">
    <text x="440" y="0" fill="#FAFAFA" font-family="system-ui" font-size="28" text-anchor="middle" font-weight="bold">Efficiency Trade-offs</text>
    
    <!-- Latency -->
    <rect x="0" y="40" width="200" height="100" rx="10" fill="#27272A" stroke="#3B82F6" stroke-width="2"/>
    <text x="100" y="80" fill="#3B82F6" font-family="system-ui" font-size="20" text-anchor="middle" font-weight="bold">Latency</text>
    <text x="100" y="110" fill="#6B7280" font-family="system-ui" font-size="14" text-anchor="middle">⚡ Speed (ms)</text>
    
    <!-- Parameters -->
    <rect x="220" y="40" width="200" height="100" rx="10" fill="#27272A" stroke="#22C55E" stroke-width="2"/>
    <text x="320" y="80" fill="#22C55E" font-family="system-ui" font-size="20" text-anchor="middle" font-weight="bold">Parameters</text>
    <text x="320" y="110" fill="#6B7280" font-family="system-ui" font-size="14" text-anchor="middle">📦 Size (M)</text>
    
    <!-- FLOPs -->
    <rect x="440" y="40" width="200" height="100" rx="10" fill="#27272A" stroke="#A855F7" stroke-width="2"/>
    <text x="540" y="80" fill="#A855F7" font-family="system-ui" font-size="20" text-anchor="middle" font-weight="bold">FLOPs</text>
    <text x="540" y="110" fill="#6B7280" font-family="system-ui" font-size="14" text-anchor="middle">🔢 Compute (G)</text>
    
    <!-- Accuracy -->
    <rect x="660" y="40" width="200" height="100" rx="10" fill="#27272A" stroke="#F59E0B" stroke-width="2"/>
    <text x="760" y="80" fill="#F59E0B" font-family="system-ui" font-size="20" text-anchor="middle" font-weight="bold">Accuracy</text>
    <text x="760" y="110" fill="#6B7280" font-family="system-ui" font-size="14" text-anchor="middle">🎯 Top-1 (%)</text>
  </g>
  
  <!-- Efficient Architecture Techniques -->
  <g transform="translate(100, 420)">
    <text x="440" y="0" fill="#FAFAFA" font-family="system-ui" font-size="28" text-anchor="middle" font-weight="bold">Design Principles</text>
    
    <!-- Depthwise Separable -->
    <rect x="0" y="40" width="280" height="130" rx="10" fill="#27272A" stroke="#3B82F6" stroke-width="2"/>
    <text x="140" y="75" fill="#3B82F6" font-family="system-ui" font-size="18" text-anchor="middle" font-weight="bold">Depthwise Separable</text>
    <text x="140" y="100" fill="#6B7280" font-family="system-ui" font-size="13" text-anchor="middle">Split spatial & channel</text>
    <!-- Visual -->
    <rect x="40" y="115" width="40" height="40" rx="4" fill="#3B82F6" opacity="0.5"/>
    <text x="85" y="138" fill="#6B7280" font-family="system-ui" font-size="16">→</text>
    <rect x="95" y="115" width="25" height="40" rx="3" fill="#3B82F6" opacity="0.7"/>
    <text x="125" y="138" fill="#6B7280" font-family="system-ui" font-size="16">+</text>
    <rect x="140" y="125" width="60" height="20" rx="3" fill="#3B82F6"/>
    
    <!-- Inverted Residual -->
    <rect x="300" y="40" width="280" height="130" rx="10" fill="#27272A" stroke="#22C55E" stroke-width="2"/>
    <text x="440" y="75" fill="#22C55E" font-family="system-ui" font-size="18" text-anchor="middle" font-weight="bold">Inverted Residual</text>
    <text x="440" y="100" fill="#6B7280" font-family="system-ui" font-size="13" text-anchor="middle">Expand → Depthwise → Project</text>
    <!-- Visual -->
    <rect x="340" y="120" width="20" height="30" rx="3" fill="#22C55E" opacity="0.5"/>
    <text x="365" y="138" fill="#6B7280" font-family="system-ui" font-size="14">→</text>
    <rect x="380" y="110" width="40" height="50" rx="4" fill="#22C55E" opacity="0.7"/>
    <text x="425" y="138" fill="#6B7280" font-family="system-ui" font-size="14">→</text>
    <rect x="440" y="110" width="40" height="50" rx="4" fill="#22C55E" opacity="0.7"/>
    <text x="485" y="138" fill="#6B7280" font-family="system-ui" font-size="14">→</text>
    <rect x="500" y="120" width="20" height="30" rx="3" fill="#22C55E"/>
    
    <!-- SE Blocks -->
    <rect x="600" y="40" width="260" height="130" rx="10" fill="#27272A" stroke="#A855F7" stroke-width="2"/>
    <text x="730" y="75" fill="#A855F7" font-family="system-ui" font-size="18" text-anchor="middle" font-weight="bold">Squeeze-Excite</text>
    <text x="730" y="100" fill="#6B7280" font-family="system-ui" font-size="13" text-anchor="middle">Channel attention</text>
    <!-- Visual -->
    <rect x="640" y="115" width="80" height="40" rx="4" fill="#A855F7" opacity="0.5"/>
    <text x="730" y="138" fill="#6B7280" font-family="system-ui" font-size="16">×</text>
    <circle cx="770" cy="135" r="15" fill="#A855F7" opacity="0.7"/>
    <text x="770" y="140" fill="#FAFAFA" font-family="system-ui" font-size="12" text-anchor="middle">SE</text>
    <text x="800" y="138" fill="#6B7280" font-family="system-ui" font-size="16">=</text>
    <rect x="815" y="115" width="30" height="40" rx="4" fill="#A855F7"/>
  </g>
  
  <!-- Architecture Family -->
  <g transform="translate(100, 640)">
    <text x="440" y="0" fill="#FAFAFA" font-family="system-ui" font-size="28" text-anchor="middle" font-weight="bold">Efficient Architecture Families</text>
    
    <!-- MobileNet -->
    <rect x="0" y="40" width="200" height="100" rx="10" fill="#27272A" stroke="#3B82F6" stroke-width="2"/>
    <text x="100" y="75" fill="#3B82F6" font-family="system-ui" font-size="18" text-anchor="middle" font-weight="bold">MobileNet</text>
    <text x="100" y="100" fill="#6B7280" font-family="system-ui" font-size="12" text-anchor="middle">V1, V2, V3</text>
    <text x="100" y="120" fill="#6B7280" font-family="system-ui" font-size="11" text-anchor="middle">Depthwise + Inverted</text>
    
    <!-- EfficientNet -->
    <rect x="220" y="40" width="200" height="100" rx="10" fill="#27272A" stroke="#22C55E" stroke-width="2"/>
    <text x="320" y="75" fill="#22C55E" font-family="system-ui" font-size="18" text-anchor="middle" font-weight="bold">EfficientNet</text>
    <text x="320" y="100" fill="#6B7280" font-family="system-ui" font-size="12" text-anchor="middle">B0-B7, V2</text>
    <text x="320" y="120" fill="#6B7280" font-family="system-ui" font-size="11" text-anchor="middle">Compound scaling</text>
    
    <!-- ShuffleNet -->
    <rect x="440" y="40" width="200" height="100" rx="10" fill="#27272A" stroke="#A855F7" stroke-width="2"/>
    <text x="540" y="75" fill="#A855F7" font-family="system-ui" font-size="18" text-anchor="middle" font-weight="bold">ShuffleNet</text>
    <text x="540" y="100" fill="#6B7280" font-family="system-ui" font-size="12" text-anchor="middle">V1, V2</text>
    <text x="540" y="120" fill="#6B7280" font-family="system-ui" font-size="11" text-anchor="middle">Channel shuffle</text>
    
    <!-- GhostNet -->
    <rect x="660" y="40" width="200" height="100" rx="10" fill="#27272A" stroke="#F59E0B" stroke-width="2"/>
    <text x="760" y="75" fill="#F59E0B" font-family="system-ui" font-size="18" text-anchor="middle" font-weight="bold">GhostNet</text>
    <text x="760" y="100" fill="#6B7280" font-family="system-ui" font-size="12" text-anchor="middle">Ghost modules</text>
    <text x="760" y="120" fill="#6B7280" font-family="system-ui" font-size="11" text-anchor="middle">Cheap features</text>
  </g>
  
  <!-- Scaling methods -->
  <g transform="translate(100, 830)">
    <text x="440" y="0" fill="#FAFAFA" font-family="system-ui" font-size="24" text-anchor="middle">Scaling Strategies</text>
    
    <!-- Width -->
    <rect x="50" y="35" width="180" height="60" rx="8" fill="#27272A" stroke="#6B7280" stroke-width="2"/>
    <rect x="70" y="50" width="20" height="30" rx="3" fill="#3B82F6"/>
    <text x="95" y="70" fill="#6B7280" font-family="system-ui" font-size="16">→</text>
    <rect x="110" y="45" width="40" height="40" rx="3" fill="#3B82F6"/>
    <text x="180" y="70" fill="#FAFAFA" font-family="system-ui" font-size="12">Width</text>
    
    <!-- Depth -->
    <rect x="260" y="35" width="180" height="60" rx="8" fill="#27272A" stroke="#6B7280" stroke-width="2"/>
    <rect x="280" y="55" width="30" height="20" rx="3" fill="#22C55E"/>
    <text x="315" y="70" fill="#6B7280" font-family="system-ui" font-size="16">→</text>
    <rect x="330" y="40" width="30" height="15" rx="2" fill="#22C55E"/>
    <rect x="330" y="57" width="30" height="15" rx="2" fill="#22C55E"/>
    <rect x="330" y="74" width="30" height="15" rx="2" fill="#22C55E"/>
    <text x="390" y="70" fill="#FAFAFA" font-family="system-ui" font-size="12">Depth</text>
    
    <!-- Resolution -->
    <rect x="470" y="35" width="180" height="60" rx="8" fill="#27272A" stroke="#6B7280" stroke-width="2"/>
    <rect x="490" y="50" width="25" height="25" rx="3" fill="#A855F7"/>
    <text x="525" y="70" fill="#6B7280" font-family="system-ui" font-size="16">→</text>
    <rect x="545" y="40" width="40" height="40" rx="3" fill="#A855F7"/>
    <text x="615" y="70" fill="#FAFAFA" font-family="system-ui" font-size="12">Resolution</text>
    
    <!-- Compound -->
    <rect x="680" y="35" width="180" height="60" rx="8" fill="#27272A" stroke="#F59E0B" stroke-width="2"/>
    <text x="770" y="70" fill="#F59E0B" font-family="system-ui" font-size="14" text-anchor="middle">Compound ✓</text>
  </g>
  
  <!-- Title -->
  <text x="540" y="100" fill="#FAFAFA" font-family="system-ui" font-size="52" text-anchor="middle" font-weight="bold">Efficient Architectures</text>
  <text x="540" y="160" fill="#6B7280" font-family="system-ui" font-size="32" text-anchor="middle">Mobile &amp; Edge Deployment</text>
  
  <!-- Branding -->
  <text x="540" y="1020" fill="#6B7280" font-family="system-ui" font-size="24" text-anchor="middle">DEV WEEKENDS</text>
</svg>