<svg viewBox="0 0 1080 1080" xmlns="http://www.w3.org/2000/svg">
  <defs>
    <linearGradient id="bgGrad" x1="0%" y1="0%" x2="100%" y2="100%">
      <stop offset="0%" style="stop-color:#18181B"/>
      <stop offset="100%" style="stop-color:#1f1f23"/>
    </linearGradient>
  </defs>
  
  <!-- Background -->
  <rect width="1080" height="1080" fill="url(#bgGrad)"/>
  
  <!-- Header -->
  <text x="540" y="80" font-family="system-ui, sans-serif" font-size="32" font-weight="600" fill="#FAFAFA" text-anchor="middle">DEV WEEKENDS</text>
  
  <!-- Title -->
  <text x="540" y="160" font-family="system-ui, sans-serif" font-size="42" font-weight="700" fill="#FAFAFA" text-anchor="middle">Normalization Techniques</text>
  <text x="540" y="205" font-family="system-ui, sans-serif" font-size="22" fill="#9CA3AF" text-anchor="middle">Stabilizing Activations Across Dimensions</text>
  
  <!-- Tensor Visualization -->
  <!-- Data tensor representation: N x C x H x W -->
  
  <!-- Batch Normalization -->
  <g transform="translate(180, 380)">
    <text x="100" y="-100" font-family="system-ui, sans-serif" font-size="20" font-weight="600" fill="#3B82F6" text-anchor="middle">Batch Norm</text>
    <text x="100" y="-75" font-family="system-ui, sans-serif" font-size="14" fill="#9CA3AF" text-anchor="middle">Normalize across batch</text>
    
    <!-- Batch dimension highlighted -->
    <g transform="translate(0, 0)">
      <!-- Stack of samples (batch) -->
      <rect x="0" y="0" width="60" height="60" rx="4" fill="#3B82F6" opacity="0.8"/>
      <rect x="20" y="20" width="60" height="60" rx="4" fill="#3B82F6" opacity="0.6"/>
      <rect x="40" y="40" width="60" height="60" rx="4" fill="#3B82F6" opacity="0.4"/>
      <rect x="60" y="60" width="60" height="60" rx="4" fill="#3B82F6" opacity="0.3"/>
      
      <!-- Channel boxes next to it -->
      <rect x="140" y="0" width="60" height="60" rx="4" fill="#27272A"/>
      <rect x="160" y="20" width="60" height="60" rx="4" fill="#27272A"/>
      <rect x="180" y="40" width="60" height="60" rx="4" fill="#27272A"/>
      <rect x="200" y="60" width="60" height="60" rx="4" fill="#27272A"/>
    </g>
    
    <text x="60" y="160" font-family="system-ui, sans-serif" font-size="12" fill="#3B82F6" text-anchor="middle">N (Batch)</text>
    <text x="190" y="160" font-family="system-ui, sans-serif" font-size="12" fill="#6B7280" text-anchor="middle">C (Channel)</text>
  </g>
  
  <!-- Layer Normalization -->
  <g transform="translate(450, 380)">
    <text x="100" y="-100" font-family="system-ui, sans-serif" font-size="20" font-weight="600" fill="#A855F7" text-anchor="middle">Layer Norm</text>
    <text x="100" y="-75" font-family="system-ui, sans-serif" font-size="14" fill="#9CA3AF" text-anchor="middle">Normalize across features</text>
    
    <!-- Feature dimension highlighted -->
    <g transform="translate(0, 0)">
      <!-- Stack showing layer norm across features -->
      <rect x="0" y="0" width="60" height="60" rx="4" fill="#27272A"/>
      <rect x="20" y="20" width="60" height="60" rx="4" fill="#27272A"/>
      <rect x="40" y="40" width="60" height="60" rx="4" fill="#27272A"/>
      <rect x="60" y="60" width="60" height="60" rx="4" fill="#27272A"/>
      
      <!-- Highlighted features -->
      <rect x="140" y="0" width="60" height="60" rx="4" fill="#A855F7" opacity="0.8"/>
      <rect x="160" y="20" width="60" height="60" rx="4" fill="#A855F7" opacity="0.6"/>
      <rect x="180" y="40" width="60" height="60" rx="4" fill="#A855F7" opacity="0.4"/>
      <rect x="200" y="60" width="60" height="60" rx="4" fill="#A855F7" opacity="0.3"/>
    </g>
    
    <text x="60" y="160" font-family="system-ui, sans-serif" font-size="12" fill="#6B7280" text-anchor="middle">N (Batch)</text>
    <text x="190" y="160" font-family="system-ui, sans-serif" font-size="12" fill="#A855F7" text-anchor="middle">C×H×W</text>
  </g>
  
  <!-- Instance Normalization -->
  <g transform="translate(720, 380)">
    <text x="100" y="-100" font-family="system-ui, sans-serif" font-size="20" font-weight="600" fill="#22C55E" text-anchor="middle">Instance Norm</text>
    <text x="100" y="-75" font-family="system-ui, sans-serif" font-size="14" fill="#9CA3AF" text-anchor="middle">Per sample, per channel</text>
    
    <!-- Single sample, single channel highlighted -->
    <g transform="translate(0, 0)">
      <rect x="0" y="0" width="60" height="60" rx="4" fill="#27272A"/>
      <rect x="20" y="20" width="60" height="60" rx="4" fill="#27272A"/>
      <rect x="40" y="40" width="60" height="60" rx="4" fill="#27272A"/>
      <rect x="60" y="60" width="60" height="60" rx="4" fill="#27272A"/>
      
      <!-- Single highlighted spatial area -->
      <rect x="140" y="0" width="120" height="120" rx="4" fill="#22C55E" opacity="0.6"/>
      <line x1="200" y1="0" x2="200" y2="120" stroke="#22C55E" stroke-width="2"/>
      <line x1="140" y1="60" x2="260" y2="60" stroke="#22C55E" stroke-width="2"/>
    </g>
    
    <text x="60" y="160" font-family="system-ui, sans-serif" font-size="12" fill="#6B7280" text-anchor="middle">N × C</text>
    <text x="200" y="160" font-family="system-ui, sans-serif" font-size="12" fill="#22C55E" text-anchor="middle">H × W</text>
  </g>
  
  <!-- Normalization Formula -->
  <rect x="200" y="560" width="680" height="80" rx="12" fill="#27272A"/>
  <text x="540" y="595" font-family="system-ui, sans-serif" font-size="26" fill="#FAFAFA" text-anchor="middle">x̂ = (x - μ) / √(σ² + ε)</text>
  <text x="540" y="625" font-family="system-ui, sans-serif" font-size="18" fill="#F59E0B" text-anchor="middle">y = γx̂ + β (learnable scale &amp; shift)</text>
  
  <!-- Use Cases -->
  <text x="540" y="700" font-family="system-ui, sans-serif" font-size="22" font-weight="600" fill="#FAFAFA" text-anchor="middle">When to Use Each</text>
  
  <g transform="translate(140, 730)">
    <rect x="0" y="0" width="240" height="110" rx="12" fill="#3B82F6" opacity="0.15"/>
    <text x="120" y="30" font-family="system-ui, sans-serif" font-size="16" font-weight="600" fill="#3B82F6" text-anchor="middle">BatchNorm</text>
    <text x="120" y="55" font-family="system-ui, sans-serif" font-size="12" fill="#9CA3AF" text-anchor="middle">✓ CNNs (ResNet, VGG)</text>
    <text x="120" y="75" font-family="system-ui, sans-serif" font-size="12" fill="#9CA3AF" text-anchor="middle">✓ Large batch sizes</text>
    <text x="120" y="95" font-family="system-ui, sans-serif" font-size="12" fill="#9CA3AF" text-anchor="middle">✗ Variable sequences</text>
  </g>
  
  <g transform="translate(420, 730)">
    <rect x="0" y="0" width="240" height="110" rx="12" fill="#A855F7" opacity="0.15"/>
    <text x="120" y="30" font-family="system-ui, sans-serif" font-size="16" font-weight="600" fill="#A855F7" text-anchor="middle">LayerNorm</text>
    <text x="120" y="55" font-family="system-ui, sans-serif" font-size="12" fill="#9CA3AF" text-anchor="middle">✓ Transformers, NLP</text>
    <text x="120" y="75" font-family="system-ui, sans-serif" font-size="12" fill="#9CA3AF" text-anchor="middle">✓ RNNs, LSTMs</text>
    <text x="120" y="95" font-family="system-ui, sans-serif" font-size="12" fill="#9CA3AF" text-anchor="middle">✓ Any batch size</text>
  </g>
  
  <g transform="translate(700, 730)">
    <rect x="0" y="0" width="240" height="110" rx="12" fill="#22C55E" opacity="0.15"/>
    <text x="120" y="30" font-family="system-ui, sans-serif" font-size="16" font-weight="600" fill="#22C55E" text-anchor="middle">InstanceNorm</text>
    <text x="120" y="55" font-family="system-ui, sans-serif" font-size="12" fill="#9CA3AF" text-anchor="middle">✓ Style transfer</text>
    <text x="120" y="75" font-family="system-ui, sans-serif" font-size="12" fill="#9CA3AF" text-anchor="middle">✓ Image generation</text>
    <text x="120" y="95" font-family="system-ui, sans-serif" font-size="12" fill="#9CA3AF" text-anchor="middle">✓ Per-image contrast</text>
  </g>
  
  <!-- Group Norm mention -->
  <g transform="translate(340, 870)">
    <rect x="0" y="0" width="400" height="70" rx="12" fill="#F59E0B" opacity="0.15"/>
    <text x="200" y="28" font-family="system-ui, sans-serif" font-size="16" font-weight="600" fill="#F59E0B" text-anchor="middle">GroupNorm</text>
    <text x="200" y="52" font-family="system-ui, sans-serif" font-size="12" fill="#9CA3AF" text-anchor="middle">Splits channels into groups • Best for small batches • Detection tasks</text>
  </g>
  
  <!-- Key insight -->
  <g transform="translate(180, 960)">
    <rect x="0" y="0" width="720" height="40" rx="8" fill="#27272A"/>
    <text x="360" y="27" font-family="system-ui, sans-serif" font-size="14" fill="#FAFAFA" text-anchor="middle">💡 Normalization reduces internal covariate shift → faster training &amp; stable gradients</text>
  </g>
  
  <!-- Footer -->
  <text x="540" y="1040" font-family="system-ui, sans-serif" font-size="20" fill="#6B7280" text-anchor="middle">@devweekends</text>
</svg>