<svg width="1080" height="1080" viewBox="0 0 1080 1080" fill="none" xmlns="http://www.w3.org/2000/svg">
  <!-- Background -->
  <rect width="1080" height="1080" fill="#FAFAFA"/>
  
  <!-- Header -->
  <text x="60" y="80" font-family="system-ui, sans-serif" font-size="14" font-weight="600" letter-spacing="3">
    <tspan fill="#FF9900">AWS</tspan><tspan fill="#232F3E"> CLOUD MASTERY</tspan>
  </text>
  
  <!-- Topic Tag -->
  <rect x="60" y="110" width="160" height="36" rx="18" fill="#22C55E"/>
  <text x="140" y="134" font-family="system-ui, sans-serif" font-size="12" font-weight="600" fill="#FFFFFF" text-anchor="middle" letter-spacing="2">STORAGE</text>
  
  <!-- Title -->
  <text x="60" y="220" font-family="system-ui, sans-serif" font-size="52" font-weight="800" fill="#232F3E">S3 Storage</text>
  <text x="60" y="280" font-family="system-ui, sans-serif" font-size="52" font-weight="800" fill="#22C55E">Classes</text>
  
  <!-- Subtitle -->
  <text x="60" y="330" font-family="system-ui, sans-serif" font-size="18" fill="#6B7280">Optimize cost based on access frequency and retrieval needs</text>
  
  <!-- Axis Labels -->
  <text x="80" y="380" font-family="system-ui, sans-serif" font-size="12" fill="#6B7280" font-weight="600">FREQUENT ACCESS</text>
  <text x="80" y="850" font-family="system-ui, sans-serif" font-size="12" fill="#6B7280" font-weight="600">INFREQUENT/ARCHIVE</text>
  
  <!-- Arrow indicating cost decrease -->
  <line x1="40" y1="400" x2="40" y2="820" stroke="#9CA3AF" stroke-width="2"/>
  <polygon points="40,820 35,810 45,810" fill="#9CA3AF"/>
  <text x="25" y="610" font-family="system-ui, sans-serif" font-size="10" fill="#9CA3AF" text-anchor="middle" transform="rotate(-90, 25, 610)">COST DECREASES →</text>
  
  <!-- S3 Standard -->
  <rect x="60" y="400" width="960" height="85" rx="12" fill="#22C55E"/>
  <text x="90" y="430" font-family="system-ui, sans-serif" font-size="18" font-weight="700" fill="#FFFFFF">S3 Standard</text>
  <text x="90" y="455" font-family="system-ui, sans-serif" font-size="13" fill="#DCFCE7">Default storage • 99.99% availability • 11 9s durability • Millisecond access</text>
  <text x="90" y="475" font-family="system-ui, sans-serif" font-size="12" fill="#DCFCE7">Use: Frequently accessed data, dynamic websites, content distribution, gaming</text>
  <rect x="880" y="415" width="120" height="50" rx="6" fill="#FFFFFF"/>
  <text x="940" y="440" font-family="system-ui, sans-serif" font-size="11" fill="#22C55E" text-anchor="middle" font-weight="700">~$0.023/GB</text>
  <text x="940" y="455" font-family="system-ui, sans-serif" font-size="9" fill="#6B7280" text-anchor="middle">per month</text>
  
  <!-- S3 Intelligent-Tiering -->
  <rect x="60" y="495" width="960" height="85" rx="12" fill="#3B82F6"/>
  <text x="90" y="525" font-family="system-ui, sans-serif" font-size="18" font-weight="700" fill="#FFFFFF">S3 Intelligent-Tiering</text>
  <text x="90" y="550" font-family="system-ui, sans-serif" font-size="13" fill="#DBEAFE">Auto-moves between tiers • No retrieval fees • Monitoring fee applies</text>
  <text x="90" y="570" font-family="system-ui, sans-serif" font-size="12" fill="#DBEAFE">Use: Unknown or changing access patterns, long-lived data with unpredictable access</text>
  <rect x="880" y="510" width="120" height="50" rx="6" fill="#FFFFFF"/>
  <text x="940" y="535" font-family="system-ui, sans-serif" font-size="11" fill="#3B82F6" text-anchor="middle" font-weight="700">Auto-optimized</text>
  <text x="940" y="550" font-family="system-ui, sans-serif" font-size="9" fill="#6B7280" text-anchor="middle">+monitoring fee</text>
  
  <!-- S3 Standard-IA -->
  <rect x="60" y="590" width="470" height="90" rx="12" fill="#F59E0B"/>
  <text x="90" y="620" font-family="system-ui, sans-serif" font-size="16" font-weight="700" fill="#FFFFFF">S3 Standard-IA</text>
  <text x="90" y="645" font-family="system-ui, sans-serif" font-size="12" fill="#FEF3C7">Infrequent Access • 99.9% availability</text>
  <text x="90" y="665" font-family="system-ui, sans-serif" font-size="11" fill="#FEF3C7">Retrieval fee applies • Min 30-day storage</text>
  <rect x="400" y="605" width="110" height="45" rx="6" fill="#FFFFFF"/>
  <text x="455" y="630" font-family="system-ui, sans-serif" font-size="10" fill="#F59E0B" text-anchor="middle" font-weight="700">~$0.0125/GB</text>
  <text x="455" y="645" font-family="system-ui, sans-serif" font-size="8" fill="#6B7280" text-anchor="middle">-45% storage cost</text>
  
  <!-- S3 One Zone-IA -->
  <rect x="550" y="590" width="470" height="90" rx="12" fill="#EC4899"/>
  <text x="580" y="620" font-family="system-ui, sans-serif" font-size="16" font-weight="700" fill="#FFFFFF">S3 One Zone-IA</text>
  <text x="580" y="645" font-family="system-ui, sans-serif" font-size="12" fill="#FCE7F3">Single AZ only • 99.5% availability</text>
  <text x="580" y="665" font-family="system-ui, sans-serif" font-size="11" fill="#FCE7F3">Recreatable data • Secondary backups</text>
  <rect x="890" y="605" width="110" height="45" rx="6" fill="#FFFFFF"/>
  <text x="945" y="630" font-family="system-ui, sans-serif" font-size="10" fill="#EC4899" text-anchor="middle" font-weight="700">~$0.01/GB</text>
  <text x="945" y="645" font-family="system-ui, sans-serif" font-size="8" fill="#6B7280" text-anchor="middle">-20% vs Std-IA</text>
  
  <!-- Glacier Instant Retrieval -->
  <rect x="60" y="695" width="310" height="95" rx="12" fill="#8B5CF6"/>
  <text x="90" y="725" font-family="system-ui, sans-serif" font-size="14" font-weight="700" fill="#FFFFFF">Glacier Instant</text>
  <text x="90" y="745" font-family="system-ui, sans-serif" font-size="11" fill="#EDE9FE">Archive with ms retrieval</text>
  <text x="90" y="765" font-family="system-ui, sans-serif" font-size="10" fill="#EDE9FE">Min 90-day storage</text>
  <rect x="240" y="710" width="110" height="40" rx="6" fill="#FFFFFF"/>
  <text x="295" y="732" font-family="system-ui, sans-serif" font-size="10" fill="#8B5CF6" text-anchor="middle" font-weight="700">~$0.004/GB</text>
  <text x="295" y="745" font-family="system-ui, sans-serif" font-size="8" fill="#6B7280" text-anchor="middle">-68% vs Std</text>
  
  <!-- Glacier Flexible Retrieval -->
  <rect x="385" y="695" width="310" height="95" rx="12" fill="#6366F1"/>
  <text x="415" y="725" font-family="system-ui, sans-serif" font-size="14" font-weight="700" fill="#FFFFFF">Glacier Flexible</text>
  <text x="415" y="745" font-family="system-ui, sans-serif" font-size="11" fill="#E0E7FF">1-12 hours retrieval</text>
  <text x="415" y="765" font-family="system-ui, sans-serif" font-size="10" fill="#E0E7FF">Free bulk retrieval 5-12h</text>
  <rect x="565" y="710" width="110" height="40" rx="6" fill="#FFFFFF"/>
  <text x="620" y="732" font-family="system-ui, sans-serif" font-size="10" fill="#6366F1" text-anchor="middle" font-weight="700">~$0.0036/GB</text>
  <text x="620" y="745" font-family="system-ui, sans-serif" font-size="8" fill="#6B7280" text-anchor="middle">min 90 days</text>
  
  <!-- Glacier Deep Archive -->
  <rect x="710" y="695" width="310" height="95" rx="12" fill="#1E3A8A"/>
  <text x="740" y="725" font-family="system-ui, sans-serif" font-size="14" font-weight="700" fill="#FFFFFF">Glacier Deep Archive</text>
  <text x="740" y="745" font-family="system-ui, sans-serif" font-size="11" fill="#DBEAFE">12-48 hours retrieval</text>
  <text x="740" y="765" font-family="system-ui, sans-serif" font-size="10" fill="#DBEAFE">Lowest cost • Min 180-day</text>
  <rect x="890" y="710" width="110" height="40" rx="6" fill="#FFFFFF"/>
  <text x="945" y="732" font-family="system-ui, sans-serif" font-size="10" fill="#1E3A8A" text-anchor="middle" font-weight="700">~$0.00099/GB</text>
  <text x="945" y="745" font-family="system-ui, sans-serif" font-size="8" fill="#6B7280" text-anchor="middle">-95% vs Std</text>
  
  <!-- Lifecycle Rules Arrow -->
  <rect x="60" y="810" width="960" height="80" rx="12" fill="#F3F4F6" stroke="#E5E7EB" stroke-width="2"/>
  <text x="540" y="840" font-family="system-ui, sans-serif" font-size="16" font-weight="700" fill="#374151" text-anchor="middle">S3 Lifecycle Rules - Automatic Transitions</text>
  
  <!-- Transition flow -->
  <rect x="90" y="855" width="100" height="25" rx="4" fill="#22C55E"/>
  <text x="140" y="872" font-family="system-ui, sans-serif" font-size="10" font-weight="600" fill="#FFFFFF" text-anchor="middle">Standard</text>
  
  <line x1="195" y1="867" x2="230" y2="867" stroke="#9CA3AF" stroke-width="2"/>
  <polygon points="230,867 222,862 222,872" fill="#9CA3AF"/>
  <text x="212" y="860" font-family="system-ui, sans-serif" font-size="8" fill="#6B7280" text-anchor="middle">30d</text>
  
  <rect x="235" y="855" width="100" height="25" rx="4" fill="#F59E0B"/>
  <text x="285" y="872" font-family="system-ui, sans-serif" font-size="10" font-weight="600" fill="#FFFFFF" text-anchor="middle">Standard-IA</text>
  
  <line x1="340" y1="867" x2="375" y2="867" stroke="#9CA3AF" stroke-width="2"/>
  <polygon points="375,867 367,862 367,872" fill="#9CA3AF"/>
  <text x="357" y="860" font-family="system-ui, sans-serif" font-size="8" fill="#6B7280" text-anchor="middle">90d</text>
  
  <rect x="380" y="855" width="120" height="25" rx="4" fill="#8B5CF6"/>
  <text x="440" y="872" font-family="system-ui, sans-serif" font-size="10" font-weight="600" fill="#FFFFFF" text-anchor="middle">Glacier Instant</text>
  
  <line x1="505" y1="867" x2="540" y2="867" stroke="#9CA3AF" stroke-width="2"/>
  <polygon points="540,867 532,862 532,872" fill="#9CA3AF"/>
  <text x="522" y="860" font-family="system-ui, sans-serif" font-size="8" fill="#6B7280" text-anchor="middle">180d</text>
  
  <rect x="545" y="855" width="120" height="25" rx="4" fill="#6366F1"/>
  <text x="605" y="872" font-family="system-ui, sans-serif" font-size="10" font-weight="600" fill="#FFFFFF" text-anchor="middle">Glacier Flexible</text>
  
  <line x1="670" y1="867" x2="705" y2="867" stroke="#9CA3AF" stroke-width="2"/>
  <polygon points="705,867 697,862 697,872" fill="#9CA3AF"/>
  <text x="687" y="860" font-family="system-ui, sans-serif" font-size="8" fill="#6B7280" text-anchor="middle">365d</text>
  
  <rect x="710" y="855" width="130" height="25" rx="4" fill="#1E3A8A"/>
  <text x="775" y="872" font-family="system-ui, sans-serif" font-size="10" font-weight="600" fill="#FFFFFF" text-anchor="middle">Deep Archive</text>
  
  <line x1="845" y1="867" x2="880" y2="867" stroke="#9CA3AF" stroke-width="2"/>
  <polygon points="880,867 872,862 872,872" fill="#9CA3AF"/>
  <text x="862" y="860" font-family="system-ui, sans-serif" font-size="8" fill="#6B7280" text-anchor="middle">7y</text>
  
  <rect x="885" y="855" width="110" height="25" rx="4" fill="#EF4444"/>
  <text x="940" y="872" font-family="system-ui, sans-serif" font-size="10" font-weight="600" fill="#FFFFFF" text-anchor="middle">🗑️ Delete</text>
  
  <!-- Key insight -->
  <rect x="60" y="910" width="960" height="60" rx="12" fill="#232F3E"/>
  <text x="540" y="945" font-family="system-ui, sans-serif" font-size="16" fill="#FFFFFF" text-anchor="middle">
    <tspan fill="#FF9900" font-weight="700">Pro Tip:</tspan> Use S3 Intelligent-Tiering for unpredictable workloads • Analyze with S3 Storage Lens
  </text>
  
  <!-- Footer -->
  <text x="540" y="1040" font-family="system-ui, sans-serif" font-size="14" fill="#9CA3AF" text-anchor="middle">@devweekends</text>
</svg>