<svg viewBox="0 0 1080 1080" xmlns="http://www.w3.org/2000/svg">
  <!-- Background -->
  <rect width="1080" height="1080" fill="#FAFAFA"/>
  
  <!-- Branding Top -->
  <text x="60" y="80" font-family="system-ui, sans-serif" font-size="14" font-weight="600" fill="#18181B" letter-spacing="3">DEV WEEKENDS</text>
  
  <!-- Title -->
  <text x="540" y="130" font-family="system-ui, sans-serif" font-size="38" font-weight="700" fill="#18181B" text-anchor="middle">Image Similarity Search</text>
  <text x="540" y="175" font-family="system-ui, sans-serif" font-size="18" fill="#71717A" text-anchor="middle">Find similar images using vector representations</text>
  
  <!-- The Pipeline -->
  <rect x="60" y="210" width="960" height="220" rx="15" fill="white" stroke="#3B82F6" stroke-width="2"/>
  <text x="540" y="255" font-family="system-ui, sans-serif" font-size="22" fill="#3B82F6" text-anchor="middle" font-weight="600">The Image Search Pipeline</text>
  
  <!-- Step 1: Image -->
  <rect x="100" y="290" width="140" height="110" rx="10" fill="#3B82F6" fill-opacity="0.1"/>
  <rect x="130" y="310" width="80" height="60" rx="6" fill="#87CEEB"/>
  <!-- Simple landscape -->
  <circle cx="150" cy="330" r="8" fill="#FFD700"/>
  <polygon points="130,370 170,340 200,370" fill="#228B22"/>
  <text x="170" y="400" font-family="system-ui, sans-serif" font-size="11" fill="#18181B" text-anchor="middle" font-weight="500">Image</text>
  
  <!-- Arrow 1 -->
  <path d="M 250 345 L 290 345" stroke="#3B82F6" stroke-width="2"/>
  <polygon points="290,345 282,340 282,350" fill="#3B82F6"/>
  
  <!-- Step 2: Pixels -->
  <rect x="300" y="290" width="140" height="110" rx="10" fill="#A855F7" fill-opacity="0.1"/>
  <!-- Pixel grid -->
  <rect x="320" y="310" width="100" height="60" rx="4" fill="#F5F5F5" stroke="#A855F7"/>
  <line x1="340" y1="310" x2="340" y2="370" stroke="#A855F7" stroke-opacity="0.5"/>
  <line x1="360" y1="310" x2="360" y2="370" stroke="#A855F7" stroke-opacity="0.5"/>
  <line x1="380" y1="310" x2="380" y2="370" stroke="#A855F7" stroke-opacity="0.5"/>
  <line x1="400" y1="310" x2="400" y2="370" stroke="#A855F7" stroke-opacity="0.5"/>
  <line x1="320" y1="330" x2="420" y2="330" stroke="#A855F7" stroke-opacity="0.5"/>
  <line x1="320" y1="350" x2="420" y2="350" stroke="#A855F7" stroke-opacity="0.5"/>
  <text x="370" y="400" font-family="system-ui, sans-serif" font-size="11" fill="#18181B" text-anchor="middle" font-weight="500">Pixels (64×64)</text>
  
  <!-- Arrow 2 -->
  <path d="M 450 345 L 490 345" stroke="#A855F7" stroke-width="2"/>
  <polygon points="490,345 482,340 482,350" fill="#A855F7"/>
  
  <!-- Step 3: Vector -->
  <rect x="500" y="290" width="140" height="110" rx="10" fill="#22C55E" fill-opacity="0.1"/>
  <rect x="545" y="305" width="50" height="80" rx="4" fill="#22C55E" fill-opacity="0.3" stroke="#22C55E"/>
  <text x="570" y="330" font-family="system-ui, sans-serif" font-size="9" fill="#22C55E" text-anchor="middle">0.87</text>
  <text x="570" y="348" font-family="system-ui, sans-serif" font-size="9" fill="#22C55E" text-anchor="middle">0.23</text>
  <text x="570" y="366" font-family="system-ui, sans-serif" font-size="9" fill="#22C55E" text-anchor="middle">...</text>
  <text x="570" y="400" font-family="system-ui, sans-serif" font-size="11" fill="#18181B" text-anchor="middle" font-weight="500">Vector (4096)</text>
  
  <!-- Arrow 3 -->
  <path d="M 650 345 L 690 345" stroke="#22C55E" stroke-width="2"/>
  <polygon points="690,345 682,340 682,350" fill="#22C55E"/>
  
  <!-- Step 4: Compare -->
  <rect x="700" y="290" width="140" height="110" rx="10" fill="#EF4444" fill-opacity="0.1"/>
  <text x="770" y="340" font-family="system-ui, sans-serif" font-size="16" fill="#EF4444" text-anchor="middle" font-weight="600">cos(a, b)</text>
  <text x="770" y="370" font-family="system-ui, sans-serif" font-size="10" fill="#71717A" text-anchor="middle">similarity score</text>
  <text x="770" y="400" font-family="system-ui, sans-serif" font-size="11" fill="#18181B" text-anchor="middle" font-weight="500">Compare</text>
  
  <!-- Arrow 4 -->
  <path d="M 850 345 L 890 345" stroke="#EF4444" stroke-width="2"/>
  <polygon points="890,345 882,340 882,350" fill="#EF4444"/>
  
  <!-- Step 5: Results -->
  <rect x="900" y="290" width="100" height="110" rx="10" fill="#22C55E" fill-opacity="0.1"/>
  <text x="950" y="330" font-family="system-ui, sans-serif" font-size="24" text-anchor="middle">🎯</text>
  <text x="950" y="365" font-family="system-ui, sans-serif" font-size="10" fill="#22C55E" text-anchor="middle" font-weight="500">Top-K</text>
  <text x="950" y="380" font-family="system-ui, sans-serif" font-size="10" fill="#22C55E" text-anchor="middle" font-weight="500">Similar</text>
  <text x="950" y="400" font-family="system-ui, sans-serif" font-size="11" fill="#18181B" text-anchor="middle" font-weight="500">Results</text>
  
  <!-- Key Math -->
  <rect x="60" y="455" width="470" height="270" rx="15" fill="white" stroke="#22C55E" stroke-width="2"/>
  <text x="295" y="495" font-family="system-ui, sans-serif" font-size="20" fill="#22C55E" text-anchor="middle" font-weight="600">The Math: Cosine Similarity</text>
  
  <!-- Formula -->
  <rect x="100" y="520" width="390" height="60" rx="8" fill="#22C55E" fill-opacity="0.1"/>
  <text x="295" y="560" font-family="system-ui, sans-serif" font-size="18" fill="#18181B" text-anchor="middle">cos(a, b) = (a · b) / (||a|| × ||b||)</text>
  
  <!-- Interpretation -->
  <text x="100" y="610" font-family="system-ui, sans-serif" font-size="12" fill="#18181B" font-weight="500">Results:</text>
  <rect x="100" y="625" width="180" height="25" rx="4" fill="#22C55E" fill-opacity="0.2"/>
  <text x="190" y="643" font-family="system-ui, sans-serif" font-size="11" fill="#22C55E" text-anchor="middle" font-weight="500">cos = 1.0 → Identical</text>
  
  <rect x="290" y="625" width="180" height="25" rx="4" fill="#3B82F6" fill-opacity="0.2"/>
  <text x="380" y="643" font-family="system-ui, sans-serif" font-size="11" fill="#3B82F6" text-anchor="middle" font-weight="500">cos = 0.9 → Very similar</text>
  
  <rect x="100" y="660" width="180" height="25" rx="4" fill="#A855F7" fill-opacity="0.2"/>
  <text x="190" y="678" font-family="system-ui, sans-serif" font-size="11" fill="#A855F7" text-anchor="middle" font-weight="500">cos = 0.5 → Somewhat</text>
  
  <rect x="290" y="660" width="180" height="25" rx="4" fill="#EF4444" fill-opacity="0.2"/>
  <text x="380" y="678" font-family="system-ui, sans-serif" font-size="11" fill="#EF4444" text-anchor="middle" font-weight="500">cos = 0 → Unrelated</text>
  
  <text x="295" y="710" font-family="system-ui, sans-serif" font-size="11" fill="#71717A" text-anchor="middle">Ignores magnitude, focuses on direction!</text>
  
  <!-- Search Demo -->
  <rect x="550" y="455" width="470" height="270" rx="15" fill="white" stroke="#A855F7" stroke-width="2"/>
  <text x="785" y="495" font-family="system-ui, sans-serif" font-size="20" fill="#A855F7" text-anchor="middle" font-weight="600">Search in Action</text>
  
  <!-- Query image -->
  <rect x="590" y="520" width="80" height="80" rx="8" fill="#A855F7" fill-opacity="0.2" stroke="#A855F7" stroke-width="2"/>
  <text x="630" y="555" font-family="system-ui, sans-serif" font-size="28" text-anchor="middle">👟</text>
  <text x="630" y="575" font-family="system-ui, sans-serif" font-size="9" fill="#A855F7" text-anchor="middle">Query</text>
  <text x="630" y="620" font-family="system-ui, sans-serif" font-size="11" fill="#18181B" text-anchor="middle" font-weight="500">Shoe</text>
  
  <!-- Arrow -->
  <path d="M 680 560 L 720 560" stroke="#A855F7" stroke-width="2"/>
  <polygon points="720,560 712,555 712,565" fill="#A855F7"/>
  
  <!-- Similar results -->
  <rect x="740" y="520" width="250" height="130" rx="8" fill="#22C55E" fill-opacity="0.1"/>
  <text x="865" y="545" font-family="system-ui, sans-serif" font-size="11" fill="#22C55E" text-anchor="middle" font-weight="500">Top 4 Results:</text>
  
  <!-- Result 1 -->
  <rect x="760" y="560" width="45" height="45" rx="4" fill="white" stroke="#22C55E"/>
  <text x="782" y="590" font-family="system-ui, sans-serif" font-size="18" text-anchor="middle">👟</text>
  <text x="782" y="620" font-family="system-ui, sans-serif" font-size="8" fill="#22C55E" text-anchor="middle">0.98</text>
  
  <!-- Result 2 -->
  <rect x="815" y="560" width="45" height="45" rx="4" fill="white" stroke="#22C55E"/>
  <text x="837" y="590" font-family="system-ui, sans-serif" font-size="18" text-anchor="middle">👠</text>
  <text x="837" y="620" font-family="system-ui, sans-serif" font-size="8" fill="#22C55E" text-anchor="middle">0.85</text>
  
  <!-- Result 3 -->
  <rect x="870" y="560" width="45" height="45" rx="4" fill="white" stroke="#3B82F6"/>
  <text x="892" y="590" font-family="system-ui, sans-serif" font-size="18" text-anchor="middle">🥾</text>
  <text x="892" y="620" font-family="system-ui, sans-serif" font-size="8" fill="#3B82F6" text-anchor="middle">0.82</text>
  
  <!-- Result 4 -->
  <rect x="925" y="560" width="45" height="45" rx="4" fill="white" stroke="#3B82F6"/>
  <text x="947" y="590" font-family="system-ui, sans-serif" font-size="18" text-anchor="middle">🩴</text>
  <text x="947" y="620" font-family="system-ui, sans-serif" font-size="8" fill="#3B82F6" text-anchor="middle">0.78</text>
  
  <text x="785" y="710" font-family="system-ui, sans-serif" font-size="11" fill="#71717A" text-anchor="middle">Finds similar footwear automatically!</text>
  
  <!-- Algorithm -->
  <rect x="60" y="750" width="960" height="230" rx="15" fill="#18181B"/>
  <text x="540" y="795" font-family="system-ui, sans-serif" font-size="22" fill="white" text-anchor="middle" font-weight="600">The Search Algorithm</text>
  
  <!-- Pseudo-code -->
  <rect x="100" y="830" width="860" height="130" rx="10" fill="white" fill-opacity="0.1"/>
  
  <text x="130" y="860" font-family="monospace" font-size="12" fill="#22C55E">def</text>
  <text x="162" y="860" font-family="monospace" font-size="12" fill="#3B82F6"> find_similar</text>
  <text x="275" y="860" font-family="monospace" font-size="12" fill="white">(query_image, all_images, k=5):</text>
  
  <text x="150" y="885" font-family="monospace" font-size="12" fill="#A1A1AA"># 1. Convert query to vector</text>
  <text x="150" y="905" font-family="monospace" font-size="12" fill="white">query_vec = image_to_vector(query_image)</text>
  
  <text x="540" y="885" font-family="monospace" font-size="12" fill="#A1A1AA"># 2. Compare with all images</text>
  <text x="540" y="905" font-family="monospace" font-size="12" fill="white">scores = [</text>
  <text x="540" y="925" font-family="monospace" font-size="12" fill="#22C55E">cosine_similarity</text>
  <text x="695" y="925" font-family="monospace" font-size="12" fill="white">(query_vec, img_vec)]</text>
  
  <text x="150" y="945" font-family="monospace" font-size="12" fill="#A1A1AA"># 3. Return top-k</text>
  <text x="540" y="945" font-family="monospace" font-size="12" fill="#A855F7">return</text>
  <text x="590" y="945" font-family="monospace" font-size="12" fill="white"> argsort(scores)[-k:]</text>
  
  <!-- Branding Bottom -->
  <text x="540" y="1040" font-family="system-ui, sans-serif" font-size="14" fill="#71717A" text-anchor="middle">@devweekends</text>
</svg>