<svg viewBox="0 0 1080 1080" xmlns="http://www.w3.org/2000/svg">
  <!-- Background -->
  <rect width="1080" height="1080" fill="#FAFAFA"/>
  
  <!-- Branding Top -->
  <text x="60" y="80" font-family="system-ui, sans-serif" font-size="14" font-weight="600" fill="#18181B" letter-spacing="3">DEV WEEKENDS</text>
  
  <!-- Title -->
  <text x="540" y="130" font-family="system-ui, sans-serif" font-size="36" font-weight="700" fill="#18181B" text-anchor="middle">PCA in Everyday Life</text>
  <text x="540" y="175" font-family="system-ui, sans-serif" font-size="18" fill="#71717A" text-anchor="middle">Compressing information while keeping what matters</text>
  
  <!-- Example 1: Photo Compression -->
  <rect x="60" y="215" width="470" height="250" rx="15" fill="white" stroke="#3B82F6" stroke-width="2"/>
  <text x="295" y="255" font-family="system-ui, sans-serif" font-size="22" fill="#3B82F6" text-anchor="middle" font-weight="600">📸 Photo Compression</text>
  
  <!-- Original image representation -->
  <rect x="90" y="285" width="120" height="100" rx="8" fill="#3B82F6" fill-opacity="0.1" stroke="#3B82F6" stroke-width="1"/>
  <!-- Grid lines to represent pixels -->
  <line x1="110" y1="285" x2="110" y2="385" stroke="#3B82F6" stroke-opacity="0.3"/>
  <line x1="130" y1="285" x2="130" y2="385" stroke="#3B82F6" stroke-opacity="0.3"/>
  <line x1="150" y1="285" x2="150" y2="385" stroke="#3B82F6" stroke-opacity="0.3"/>
  <line x1="170" y1="285" x2="170" y2="385" stroke="#3B82F6" stroke-opacity="0.3"/>
  <line x1="190" y1="285" x2="190" y2="385" stroke="#3B82F6" stroke-opacity="0.3"/>
  <line x1="90" y1="305" x2="210" y2="305" stroke="#3B82F6" stroke-opacity="0.3"/>
  <line x1="90" y1="325" x2="210" y2="325" stroke="#3B82F6" stroke-opacity="0.3"/>
  <line x1="90" y1="345" x2="210" y2="345" stroke="#3B82F6" stroke-opacity="0.3"/>
  <line x1="90" y1="365" x2="210" y2="365" stroke="#3B82F6" stroke-opacity="0.3"/>
  <text x="150" y="405" font-family="system-ui, sans-serif" font-size="10" fill="#71717A" text-anchor="middle">10 MB image</text>
  <text x="150" y="420" font-family="system-ui, sans-serif" font-size="10" fill="#71717A" text-anchor="middle">millions of pixels</text>
  
  <!-- Arrow -->
  <path d="M 225 335 L 265 335" stroke="#3B82F6" stroke-width="2"/>
  <polygon points="265,335 257,330 257,340" fill="#3B82F6"/>
  <text x="245" y="365" font-family="system-ui, sans-serif" font-size="10" fill="#3B82F6" text-anchor="middle">PCA</text>
  
  <!-- Compressed representation -->
  <rect x="280" y="300" width="80" height="70" rx="8" fill="#22C55E" fill-opacity="0.2" stroke="#22C55E" stroke-width="2"/>
  <text x="320" y="340" font-family="system-ui, sans-serif" font-size="12" fill="#22C55E" text-anchor="middle" font-weight="500">100 KB</text>
  <text x="320" y="405" font-family="system-ui, sans-serif" font-size="10" fill="#71717A" text-anchor="middle">Top 50 components</text>
  <text x="320" y="420" font-family="system-ui, sans-serif" font-size="10" fill="#71717A" text-anchor="middle">99% same quality!</text>
  
  <!-- Stats -->
  <text x="420" y="310" font-family="system-ui, sans-serif" font-size="12" fill="#18181B" font-weight="500">JPEG uses PCA-like</text>
  <text x="420" y="330" font-family="system-ui, sans-serif" font-size="12" fill="#18181B" font-weight="500">compression!</text>
  <text x="420" y="365" font-family="system-ui, sans-serif" font-size="11" fill="#71717A">Keep important</text>
  <text x="420" y="385" font-family="system-ui, sans-serif" font-size="11" fill="#71717A">patterns, drop noise</text>
  
  <!-- Example 2: Personality Tests -->
  <rect x="550" y="215" width="470" height="250" rx="15" fill="white" stroke="#22C55E" stroke-width="2"/>
  <text x="785" y="255" font-family="system-ui, sans-serif" font-size="22" fill="#22C55E" text-anchor="middle" font-weight="600">📋 Personality Tests</text>
  
  <!-- Many questions -->
  <rect x="580" y="285" width="140" height="130" rx="8" fill="#22C55E" fill-opacity="0.1"/>
  <text x="650" y="310" font-family="system-ui, sans-serif" font-size="11" fill="#22C55E" text-anchor="middle" font-weight="500">100 Questions</text>
  <text x="595" y="340" font-family="system-ui, sans-serif" font-size="9" fill="#71717A">Do you like parties?</text>
  <text x="595" y="358" font-family="system-ui, sans-serif" font-size="9" fill="#71717A">Are you organized?</text>
  <text x="595" y="376" font-family="system-ui, sans-serif" font-size="9" fill="#71717A">Do you worry a lot?</text>
  <text x="595" y="394" font-family="system-ui, sans-serif" font-size="9" fill="#71717A">Are you curious?</text>
  <text x="650" y="412" font-family="system-ui, sans-serif" font-size="9" fill="#71717A" text-anchor="middle">...</text>
  
  <!-- Arrow -->
  <path d="M 730 355 L 770 355" stroke="#22C55E" stroke-width="2"/>
  <polygon points="770,355 762,350 762,360" fill="#22C55E"/>
  
  <!-- Big 5 -->
  <rect x="790" y="285" width="200" height="130" rx="8" fill="#22C55E" fill-opacity="0.2"/>
  <text x="890" y="310" font-family="system-ui, sans-serif" font-size="11" fill="#22C55E" text-anchor="middle" font-weight="500">Big 5 Traits (via PCA)</text>
  <text x="810" y="338" font-family="system-ui, sans-serif" font-size="10" fill="#18181B">O - Openness</text>
  <text x="810" y="356" font-family="system-ui, sans-serif" font-size="10" fill="#18181B">C - Conscientiousness</text>
  <text x="810" y="374" font-family="system-ui, sans-serif" font-size="10" fill="#18181B">E - Extraversion</text>
  <text x="810" y="392" font-family="system-ui, sans-serif" font-size="10" fill="#18181B">A - Agreeableness</text>
  <text x="810" y="410" font-family="system-ui, sans-serif" font-size="10" fill="#18181B">N - Neuroticism</text>
  
  <text x="785" y="445" font-family="system-ui, sans-serif" font-size="11" fill="#71717A" text-anchor="middle">100 questions → 5 dimensions = PCA!</text>
  
  <!-- Example 3: Survey Analysis -->
  <rect x="60" y="485" width="470" height="260" rx="15" fill="white" stroke="#A855F7" stroke-width="2"/>
  <text x="295" y="525" font-family="system-ui, sans-serif" font-size="22" fill="#A855F7" text-anchor="middle" font-weight="600">📊 Customer Survey</text>
  
  <!-- Survey questions -->
  <rect x="90" y="555" width="160" height="140" rx="8" fill="#A855F7" fill-opacity="0.1"/>
  <text x="170" y="580" font-family="system-ui, sans-serif" font-size="11" fill="#A855F7" text-anchor="middle" font-weight="500">50 Questions</text>
  <text x="105" y="605" font-family="system-ui, sans-serif" font-size="9" fill="#71717A">Product quality?</text>
  <text x="105" y="620" font-family="system-ui, sans-serif" font-size="9" fill="#71717A">Price fairness?</text>
  <text x="105" y="635" font-family="system-ui, sans-serif" font-size="9" fill="#71717A">Shipping speed?</text>
  <text x="105" y="650" font-family="system-ui, sans-serif" font-size="9" fill="#71717A">Customer service?</text>
  <text x="105" y="665" font-family="system-ui, sans-serif" font-size="9" fill="#71717A">Website usability?</text>
  <text x="170" y="685" font-family="system-ui, sans-serif" font-size="9" fill="#71717A" text-anchor="middle">...</text>
  
  <!-- Arrow -->
  <path d="M 260 625 L 300 625" stroke="#A855F7" stroke-width="2"/>
  <polygon points="300,625 292,620 292,630" fill="#A855F7"/>
  
  <!-- Key factors -->
  <rect x="320" y="555" width="180" height="140" rx="8" fill="#22C55E" fill-opacity="0.1"/>
  <text x="410" y="580" font-family="system-ui, sans-serif" font-size="11" fill="#22C55E" text-anchor="middle" font-weight="500">3 Key Factors</text>
  <rect x="340" y="600" width="140" height="25" rx="4" fill="#22C55E" fill-opacity="0.3"/>
  <text x="410" y="618" font-family="system-ui, sans-serif" font-size="10" fill="#22C55E" text-anchor="middle" font-weight="500">Product (45%)</text>
  <rect x="340" y="635" width="90" height="25" rx="4" fill="#3B82F6" fill-opacity="0.3"/>
  <text x="385" y="653" font-family="system-ui, sans-serif" font-size="10" fill="#3B82F6" text-anchor="middle" font-weight="500">Service (30%)</text>
  <rect x="340" y="670" width="60" height="25" rx="4" fill="#A855F7" fill-opacity="0.3"/>
  <text x="370" y="688" font-family="system-ui, sans-serif" font-size="10" fill="#A855F7" text-anchor="middle" font-weight="500">Price (20%)</text>
  
  <text x="295" y="730" font-family="system-ui, sans-serif" font-size="11" fill="#71717A" text-anchor="middle">Focus on these 3 to improve 95% of satisfaction</text>
  
  <!-- Example 4: Face Recognition (ML) -->
  <rect x="550" y="485" width="470" height="260" rx="15" fill="white" stroke="#EF4444" stroke-width="2"/>
  <text x="785" y="525" font-family="system-ui, sans-serif" font-size="22" fill="#EF4444" text-anchor="middle" font-weight="600">🤖 Face Recognition (ML)</text>
  
  <!-- High dimensional face -->
  <rect x="580" y="560" width="120" height="130" rx="8" fill="#EF4444" fill-opacity="0.1"/>
  <text x="640" y="585" font-family="system-ui, sans-serif" font-size="10" fill="#EF4444" text-anchor="middle" font-weight="500">100×100 image</text>
  <text x="640" y="605" font-family="system-ui, sans-serif" font-size="9" fill="#71717A" text-anchor="middle">10,000 pixels!</text>
  <!-- Simplified face -->
  <circle cx="640" cy="660" r="30" fill="#FFE4C4"/>
  <circle cx="630" cy="655" r="4" fill="#18181B"/>
  <circle cx="650" cy="655" r="4" fill="#18181B"/>
  <path d="M 630 670 Q 640 678 650 670" stroke="#18181B" stroke-width="2" fill="none"/>
  
  <!-- Arrow -->
  <path d="M 710 630 L 750 630" stroke="#EF4444" stroke-width="2"/>
  <polygon points="750,630 742,625 742,635" fill="#EF4444"/>
  <text x="730" y="660" font-family="system-ui, sans-serif" font-size="10" fill="#EF4444" text-anchor="middle">PCA</text>
  
  <!-- Eigenfaces -->
  <rect x="770" y="560" width="220" height="130" rx="8" fill="#22C55E" fill-opacity="0.1"/>
  <text x="880" y="585" font-family="system-ui, sans-serif" font-size="11" fill="#22C55E" text-anchor="middle" font-weight="500">Eigenfaces (~100)</text>
  <text x="880" y="610" font-family="system-ui, sans-serif" font-size="10" fill="#71717A" text-anchor="middle">100 numbers per face</text>
  <text x="880" y="635" font-family="system-ui, sans-serif" font-size="10" fill="#71717A" text-anchor="middle">100× compression!</text>
  <text x="880" y="670" font-family="system-ui, sans-serif" font-size="11" fill="#22C55E" text-anchor="middle" font-weight="500">Still recognizable</text>
  
  <text x="785" y="730" font-family="system-ui, sans-serif" font-size="11" fill="#71717A" text-anchor="middle">Basis of early face recognition systems</text>
  
  <!-- Unifying Theme -->
  <rect x="60" y="770" width="960" height="210" rx="15" fill="#18181B"/>
  <text x="540" y="815" font-family="system-ui, sans-serif" font-size="22" fill="white" text-anchor="middle" font-weight="600">The Compression Pattern</text>
  
  <!-- Pattern flow -->
  <rect x="100" y="855" width="260" height="95" rx="10" fill="white" fill-opacity="0.1"/>
  <text x="230" y="890" font-family="system-ui, sans-serif" font-size="14" fill="#EF4444" text-anchor="middle" font-weight="600">High Dimensions</text>
  <text x="230" y="920" font-family="system-ui, sans-serif" font-size="11" fill="#A1A1AA" text-anchor="middle">pixels, questions,</text>
  <text x="230" y="940" font-family="system-ui, sans-serif" font-size="11" fill="#A1A1AA" text-anchor="middle">stocks, sensors...</text>
  
  <path d="M 370 900 L 420 900" stroke="white" stroke-width="2"/>
  <polygon points="420,900 410,895 410,905" fill="white"/>
  
  <rect x="430" y="855" width="220" height="95" rx="10" fill="white" fill-opacity="0.1"/>
  <text x="540" y="890" font-family="system-ui, sans-serif" font-size="14" fill="#A855F7" text-anchor="middle" font-weight="600">Find Variance</text>
  <text x="540" y="920" font-family="system-ui, sans-serif" font-size="11" fill="#A1A1AA" text-anchor="middle">Compute covariance</text>
  <text x="540" y="940" font-family="system-ui, sans-serif" font-size="11" fill="#A1A1AA" text-anchor="middle">Eigendecomposition</text>
  
  <path d="M 660 900 L 710 900" stroke="white" stroke-width="2"/>
  <polygon points="710,900 700,895 700,905" fill="white"/>
  
  <rect x="720" y="855" width="260" height="95" rx="10" fill="white" fill-opacity="0.1"/>
  <text x="850" y="890" font-family="system-ui, sans-serif" font-size="14" fill="#22C55E" text-anchor="middle" font-weight="600">Low Dimensions</text>
  <text x="850" y="920" font-family="system-ui, sans-serif" font-size="11" fill="#A1A1AA" text-anchor="middle">Keep top k components</text>
  <text x="850" y="940" font-family="system-ui, sans-serif" font-size="11" fill="#22C55E" text-anchor="middle" font-weight="500">90%+ information retained</text>
  
  <!-- Branding Bottom -->
  <text x="540" y="1040" font-family="system-ui, sans-serif" font-size="14" fill="#71717A" text-anchor="middle">@devweekends</text>
</svg>